#N canvas 5 33 512 416 10;
#X declare -lib mrpeach;
#X obj -732 -1710 cnv 15 95 85 empty empty empty 20 12 0 14 -262130
-66577 0;
#X obj -663 -1706 vradio 11 1 0 2 s.netz r.netz netz 0 28 0 8 -4032
-1 -1 0;
#X obj -729 -1705 vradio 11 1 0 2 s.srl r.srl srl 0 28 0 8 -191407
-1 -1 1;
#X obj -711 -1705 vradio 11 1 0 2 s.ms r.ms ms 0 28 0 8 -191407 -1
-1 1;
#X obj -601 -1728 loadbang;
#X msg -628 -1728 1;
#X obj -628 -1710 cnv 15 205 105 empty empty empty 20 12 0 14 -262130
-66577 0;
#X obj -526 -1670 vradio 11 1 0 2 s.null.8 r.null.8 8 0 28 0 8 -232576
-1 -1 0;
#X obj -537 -1670 vradio 11 1 0 2 s.null.7 r.null.7 7 0 28 0 8 -232576
-1 -1 0;
#X obj -548 -1670 vradio 11 1 0 2 s.null.6 r.null.6 6 0 28 0 8 -232576
-1 -1 0;
#X obj -559 -1670 vradio 11 1 0 2 s.null.5 r.null.5 5 0 28 0 8 -232576
-1 -1 0;
#X obj -570 -1670 vradio 11 1 0 2 s.null.4 r.null.4 4 0 28 0 8 -232576
-1 -1 0;
#X obj -581 -1670 vradio 11 1 0 2 s.null.3 r.null.3 3 0 28 0 8 -232576
-1 -1 0;
#X obj -592 -1670 vradio 11 1 0 2 s.null.2 r.null.2 2 0 28 0 8 -232576
-1 -1 0;
#X obj -603 -1670 vradio 11 1 0 2 s.null.1 r.null.1 1 0 28 0 8 -232576
-1 -1 0;
#X obj -438 -1670 vradio 11 1 0 2 s.null.16 r.null.16 16 0 28 0 8 -261682
-1 -1 0;
#X obj -449 -1670 vradio 11 1 0 2 s.null.15 r.null.15 15 0 28 0 8 -261682
-1 -1 0;
#X obj -460 -1670 vradio 11 1 0 2 s.null.14 r.null.14 14 0 28 0 8 -261682
-1 -1 0;
#X obj -471 -1670 vradio 11 1 0 2 s.null.13 r.null.13 13 0 28 0 8 -261682
-1 -1 0;
#X obj -482 -1670 vradio 11 1 0 2 s.null.12 r.null.12 12 0 28 0 8 -261682
-1 -1 0;
#X obj -493 -1670 vradio 11 1 0 2 s.null.11 r.null.11 11 0 28 0 8 -261682
-1 -1 0;
#X obj -504 -1670 vradio 11 1 0 2 s.null.10 r.null.10 10 0 28 0 8 -261682
-1 -1 0;
#X obj -515 -1670 vradio 11 1 0 2 s.null.9 r.null.9 9 0 28 0 8 -261682
-1 -1 0;
#X obj -603 -1705 vradio 11 1 0 2 s.stm.1 r.stm.1 1 0 28 0 8 -232576
-1 -1 0;
#X obj -591 -1705 vradio 11 1 0 2 s.stm.2 r.stm.2 2 0 28 0 8 -232576
-1 -1 0;
#X obj -581 -1705 vradio 11 1 0 2 s.stm.3 r.stm3 3 0 28 0 8 -232576
-1 -1 0;
#X obj -570 -1705 vradio 11 1 0 2 s.stm.4 r.stm.4 4 0 28 0 8 -232576
-1 -1 0;
#X obj -559 -1705 vradio 11 1 0 2 s.stm.5 r.stm.5 5 0 28 0 8 -232576
-1 -1 0;
#X obj -548 -1705 vradio 11 1 0 2 s.stm.6 r.stm.6 6 0 28 0 8 -232576
-1 -1 0;
#X obj -537 -1705 vradio 11 1 0 2 s.stm.7 r.stm.7 7 0 28 0 8 -232576
-1 -1 0;
#X obj -526 -1705 vradio 11 1 0 2 s.stm.8 r.stm.8 8 0 28 0 8 -232576
-1 -1 0;
#X obj -515 -1705 vradio 11 1 0 2 s.stm.9 r.stm.9 9 0 28 0 8 -261682
-1 -1 0;
#X obj -504 -1705 vradio 11 1 0 2 s.stm.10 r.stm.10 10 0 28 0 8 -261682
-1 -1 0;
#X obj -493 -1705 vradio 11 1 0 2 s.stm.11 r.stm.11 11 0 28 0 8 -261682
-1 -1 0;
#X obj -482 -1705 vradio 11 1 0 2 s.stm.12 r.stm.12 12 0 28 0 8 -261682
-1 -1 0;
#X obj -471 -1705 vradio 11 1 0 2 s.stm.13 r.stm.13 13 0 28 0 8 -261682
-1 -1 0;
#X obj -460 -1705 vradio 11 1 0 2 s.stm.14 r.stm.14 14 0 28 0 8 -261682
-1 -1 0;
#X obj -449 -1705 vradio 11 1 0 2 s.stm.15 r.stm.15 15 0 28 0 8 -261682
-1 -1 0;
#X obj -438 -1705 vradio 11 1 0 2 s.stm.16 r.stm.16 16 0 28 0 8 -261682
-1 -1 0;
#X obj -625 -1670 vradio 11 1 0 2 s.null r.null null 0 28 0 8 -4032
-1 -1 0;
#X obj -625 -1705 vradio 11 1 0 2 s.stm r.stm stm 0 28 0 8 -4032 -1
-1 0;
#X floatatom -669 -1666 5 0 0 0 - - s.nullindi;
#N canvas 127 155 1084 325 abs2stp 0;
#X obj 147 -327 -;
#X obj 200 -310 < 0;
#X obj 189 -293 abs;
#X obj 189 -242 spigot;
#X obj 147 -242 spigot;
#X msg 147 -259 1;
#X obj 147 -276 select 1 0;
#X msg 177 -259 1;
#X obj 147 -310 moses 0;
#X obj 147 -293 + 100;
#X obj 147 -225 * 32;
#X obj 189 -225 * 32;
#X msg 172 -326 1;
#X obj 279 -327 -;
#X obj 332 -310 < 0;
#X obj 321 -293 abs;
#X obj 321 -242 spigot;
#X obj 279 -242 spigot;
#X msg 279 -259 1;
#X obj 279 -276 select 1 0;
#X msg 309 -259 1;
#X obj 279 -310 moses 0;
#X obj 279 -293 + 100;
#X obj 279 -225 * 32;
#X obj 321 -225 * 32;
#X msg 304 -326 1;
#X obj 411 -327 -;
#X obj 464 -310 < 0;
#X obj 453 -293 abs;
#X obj 453 -242 spigot;
#X obj 411 -242 spigot;
#X msg 411 -259 1;
#X obj 411 -276 select 1 0;
#X msg 441 -259 1;
#X obj 411 -310 moses 0;
#X obj 411 -293 + 100;
#X obj 411 -225 * 32;
#X obj 453 -225 * 32;
#X msg 436 -326 1;
#X obj 27 -167 -;
#X obj 80 -150 < 0;
#X obj 69 -133 abs;
#X obj 69 -82 spigot;
#X obj 27 -82 spigot;
#X msg 27 -99 1;
#X obj 27 -116 select 1 0;
#X msg 57 -99 1;
#X obj 27 -150 moses 0;
#X obj 27 -133 + 100;
#X obj 27 -65 * 32;
#X obj 69 -65 * 32;
#X msg 52 -166 1;
#X obj 147 -167 -;
#X obj 200 -150 < 0;
#X obj 189 -133 abs;
#X obj 189 -82 spigot;
#X obj 147 -82 spigot;
#X msg 147 -99 1;
#X obj 147 -116 select 1 0;
#X msg 177 -99 1;
#X obj 147 -150 moses 0;
#X obj 147 -133 + 100;
#X obj 147 -65 * 32;
#X obj 189 -65 * 32;
#X msg 172 -166 1;
#X obj 279 -167 -;
#X obj 332 -150 < 0;
#X obj 321 -133 abs;
#X obj 321 -82 spigot;
#X obj 279 -82 spigot;
#X msg 279 -99 1;
#X obj 279 -116 select 1 0;
#X msg 309 -99 1;
#X obj 279 -150 moses 0;
#X obj 279 -133 + 100;
#X obj 279 -65 * 32;
#X obj 321 -65 * 32;
#X msg 304 -166 1;
#X obj 411 -167 -;
#X obj 464 -150 < 0;
#X obj 453 -133 abs;
#X obj 453 -82 spigot;
#X obj 411 -82 spigot;
#X msg 411 -99 1;
#X obj 411 -116 select 1 0;
#X msg 441 -99 1;
#X obj 411 -150 moses 0;
#X obj 411 -133 + 100;
#X obj 411 -65 * 32;
#X obj 453 -65 * 32;
#X msg 436 -166 1;
#X obj 544 -327 -;
#X obj 597 -310 < 0;
#X obj 586 -293 abs;
#X obj 586 -242 spigot;
#X obj 544 -242 spigot;
#X msg 544 -259 1;
#X obj 544 -276 select 1 0;
#X msg 574 -259 1;
#X obj 544 -310 moses 0;
#X obj 544 -293 + 100;
#X obj 544 -225 * 32;
#X obj 586 -225 * 32;
#X msg 569 -326 1;
#X obj 677 -327 -;
#X obj 730 -310 < 0;
#X obj 719 -293 abs;
#X obj 719 -242 spigot;
#X obj 677 -242 spigot;
#X msg 677 -259 1;
#X obj 677 -276 select 1 0;
#X msg 707 -259 1;
#X obj 677 -310 moses 0;
#X obj 677 -293 + 100;
#X obj 677 -225 * 32;
#X obj 719 -225 * 32;
#X msg 702 -326 1;
#X obj 809 -327 -;
#X obj 862 -310 < 0;
#X obj 851 -293 abs;
#X obj 851 -242 spigot;
#X obj 809 -242 spigot;
#X msg 809 -259 1;
#X obj 809 -276 select 1 0;
#X msg 839 -259 1;
#X obj 809 -310 moses 0;
#X obj 809 -293 + 100;
#X obj 809 -225 * 32;
#X obj 851 -225 * 32;
#X msg 834 -326 1;
#X obj 941 -327 -;
#X obj 994 -310 < 0;
#X obj 983 -293 abs;
#X obj 983 -242 spigot;
#X obj 941 -242 spigot;
#X msg 941 -259 1;
#X obj 941 -276 select 1 0;
#X msg 971 -259 1;
#X obj 941 -310 moses 0;
#X obj 941 -293 + 100;
#X obj 941 -225 * 32;
#X obj 983 -225 * 32;
#X msg 966 -326 1;
#X obj 544 -167 -;
#X obj 597 -150 < 0;
#X obj 586 -133 abs;
#X obj 586 -82 spigot;
#X obj 544 -82 spigot;
#X msg 544 -99 1;
#X obj 544 -116 select 1 0;
#X msg 574 -99 1;
#X obj 544 -150 moses 0;
#X obj 544 -133 + 100;
#X obj 544 -65 * 32;
#X obj 586 -65 * 32;
#X msg 569 -166 1;
#X obj 677 -167 -;
#X obj 730 -150 < 0;
#X obj 719 -133 abs;
#X obj 719 -82 spigot;
#X obj 677 -82 spigot;
#X msg 677 -99 1;
#X obj 677 -116 select 1 0;
#X msg 707 -99 1;
#X obj 677 -150 moses 0;
#X obj 677 -133 + 100;
#X obj 677 -65 * 32;
#X obj 719 -65 * 32;
#X msg 702 -166 1;
#X obj 809 -167 -;
#X obj 862 -150 < 0;
#X obj 851 -133 abs;
#X obj 851 -82 spigot;
#X obj 809 -82 spigot;
#X msg 809 -99 1;
#X obj 809 -116 select 1 0;
#X msg 839 -99 1;
#X obj 809 -150 moses 0;
#X obj 809 -133 + 100;
#X obj 809 -65 * 32;
#X obj 851 -65 * 32;
#X msg 834 -166 1;
#X obj 941 -167 -;
#X obj 994 -150 < 0;
#X obj 983 -133 abs;
#X obj 983 -82 spigot;
#X obj 941 -82 spigot;
#X msg 941 -99 1;
#X obj 941 -116 select 1 0;
#X msg 971 -99 1;
#X obj 941 -150 moses 0;
#X obj 941 -133 + 100;
#X obj 941 -65 * 32;
#X obj 983 -65 * 32;
#X msg 966 -166 1;
#X obj 204 -327 r null.2;
#X obj 336 -327 r null.3;
#X obj 468 -327 r null.4;
#X obj 601 -327 r null.5;
#X obj 734 -327 r null.6;
#X obj 866 -327 r null.7;
#X obj 998 -327 r null.8;
#X obj 82 -167 r null.9;
#X obj 209 -167 r null.10;
#X obj 341 -167 r null.11;
#X obj 473 -167 r null.12;
#X obj 606 -167 r null.13;
#X obj 739 -167 r null.14;
#X obj 871 -167 r null.15;
#X obj 1003 -167 r null.16;
#X obj 147 -208 s 2B;
#X obj 279 -208 s 3C;
#X obj 411 -208 s 4D;
#X obj 544 -208 s 5E;
#X obj 677 -208 s 6F;
#X obj 809 -208 s 7G;
#X obj 941 -208 s 8H;
#X obj 27 -48 s 9I;
#X obj 147 -48 s 10J;
#X obj 279 -48 s 11K;
#X obj 411 -48 s 12L;
#X obj 544 -48 s 13M;
#X obj 677 -48 s 14N;
#X obj 809 -48 s 15O;
#X obj 941 -48 s 16P;
#X obj 26 -328 -;
#X obj 79 -311 < 0;
#X obj 68 -294 abs;
#X obj 68 -243 spigot;
#X obj 26 -243 spigot;
#X msg 26 -260 1;
#X obj 26 -277 select 1 0;
#X msg 56 -260 1;
#X obj 26 -311 moses 0;
#X obj 26 -294 + 100;
#X obj 26 -226 * 32;
#X obj 68 -226 * 32;
#X msg 51 -327 1;
#X obj 83 -328 r null.1;
#X obj 26 -209 s 1A;
#X obj 26 -345 r abs.1;
#X obj 147 -344 r abs.2;
#X obj 279 -344 r abs.3;
#X obj 411 -344 r abs.4;
#X obj 544 -344 r abs.5;
#X obj 677 -344 r abs.6;
#X obj 809 -344 r abs.7;
#X obj 941 -344 r abs.8;
#X obj 27 -184 r abs.9;
#X obj 147 -184 r abs.10;
#X obj 279 -184 r abs.11;
#X obj 411 -184 r abs.12;
#X obj 544 -184 r abs.13;
#X obj 677 -184 r abs.14;
#X obj 809 -184 r abs.15;
#X obj 941 -184 r abs.16;
#X connect 0 0 1 0;
#X connect 0 0 8 0;
#X connect 1 0 6 0;
#X connect 2 0 3 0;
#X connect 3 0 11 0;
#X connect 4 0 10 0;
#X connect 5 0 3 1;
#X connect 6 0 5 0;
#X connect 6 1 7 0;
#X connect 7 0 4 1;
#X connect 8 0 9 0;
#X connect 8 1 2 0;
#X connect 9 0 4 0;
#X connect 10 0 210 0;
#X connect 11 0 210 0;
#X connect 12 0 0 1;
#X connect 12 0 0 0;
#X connect 12 0 6 0;
#X connect 13 0 14 0;
#X connect 13 0 21 0;
#X connect 14 0 19 0;
#X connect 15 0 16 0;
#X connect 16 0 24 0;
#X connect 17 0 23 0;
#X connect 18 0 16 1;
#X connect 19 0 18 0;
#X connect 19 1 20 0;
#X connect 20 0 17 1;
#X connect 21 0 22 0;
#X connect 21 1 15 0;
#X connect 22 0 17 0;
#X connect 23 0 211 0;
#X connect 24 0 211 0;
#X connect 25 0 13 1;
#X connect 25 0 13 0;
#X connect 25 0 19 0;
#X connect 26 0 27 0;
#X connect 26 0 34 0;
#X connect 27 0 32 0;
#X connect 28 0 29 0;
#X connect 29 0 37 0;
#X connect 30 0 36 0;
#X connect 31 0 29 1;
#X connect 32 0 31 0;
#X connect 32 1 33 0;
#X connect 33 0 30 1;
#X connect 34 0 35 0;
#X connect 34 1 28 0;
#X connect 35 0 30 0;
#X connect 36 0 212 0;
#X connect 37 0 212 0;
#X connect 38 0 26 1;
#X connect 38 0 26 0;
#X connect 38 0 32 0;
#X connect 39 0 40 0;
#X connect 39 0 47 0;
#X connect 40 0 45 0;
#X connect 41 0 42 0;
#X connect 42 0 50 0;
#X connect 43 0 49 0;
#X connect 44 0 42 1;
#X connect 45 0 44 0;
#X connect 45 1 46 0;
#X connect 46 0 43 1;
#X connect 47 0 48 0;
#X connect 47 1 41 0;
#X connect 48 0 43 0;
#X connect 49 0 217 0;
#X connect 50 0 217 0;
#X connect 51 0 39 1;
#X connect 51 0 39 0;
#X connect 51 0 45 0;
#X connect 52 0 53 0;
#X connect 52 0 60 0;
#X connect 53 0 58 0;
#X connect 54 0 55 0;
#X connect 55 0 63 0;
#X connect 56 0 62 0;
#X connect 57 0 55 1;
#X connect 58 0 57 0;
#X connect 58 1 59 0;
#X connect 59 0 56 1;
#X connect 60 0 61 0;
#X connect 60 1 54 0;
#X connect 61 0 56 0;
#X connect 62 0 218 0;
#X connect 63 0 218 0;
#X connect 64 0 52 1;
#X connect 64 0 52 0;
#X connect 64 0 58 0;
#X connect 65 0 66 0;
#X connect 65 0 73 0;
#X connect 66 0 71 0;
#X connect 67 0 68 0;
#X connect 68 0 76 0;
#X connect 69 0 75 0;
#X connect 70 0 68 1;
#X connect 71 0 70 0;
#X connect 71 1 72 0;
#X connect 72 0 69 1;
#X connect 73 0 74 0;
#X connect 73 1 67 0;
#X connect 74 0 69 0;
#X connect 75 0 219 0;
#X connect 76 0 219 0;
#X connect 77 0 65 1;
#X connect 77 0 65 0;
#X connect 77 0 71 0;
#X connect 78 0 79 0;
#X connect 78 0 86 0;
#X connect 79 0 84 0;
#X connect 80 0 81 0;
#X connect 81 0 89 0;
#X connect 82 0 88 0;
#X connect 83 0 81 1;
#X connect 84 0 83 0;
#X connect 84 1 85 0;
#X connect 85 0 82 1;
#X connect 86 0 87 0;
#X connect 86 1 80 0;
#X connect 87 0 82 0;
#X connect 88 0 220 0;
#X connect 89 0 220 0;
#X connect 90 0 78 1;
#X connect 90 0 78 0;
#X connect 90 0 84 0;
#X connect 91 0 92 0;
#X connect 91 0 99 0;
#X connect 92 0 97 0;
#X connect 93 0 94 0;
#X connect 94 0 102 0;
#X connect 95 0 101 0;
#X connect 96 0 94 1;
#X connect 97 0 96 0;
#X connect 97 1 98 0;
#X connect 98 0 95 1;
#X connect 99 0 100 0;
#X connect 99 1 93 0;
#X connect 100 0 95 0;
#X connect 101 0 213 0;
#X connect 102 0 213 0;
#X connect 103 0 91 1;
#X connect 103 0 91 0;
#X connect 103 0 97 0;
#X connect 104 0 105 0;
#X connect 104 0 112 0;
#X connect 105 0 110 0;
#X connect 106 0 107 0;
#X connect 107 0 115 0;
#X connect 108 0 114 0;
#X connect 109 0 107 1;
#X connect 110 0 109 0;
#X connect 110 1 111 0;
#X connect 111 0 108 1;
#X connect 112 0 113 0;
#X connect 112 1 106 0;
#X connect 113 0 108 0;
#X connect 114 0 214 0;
#X connect 115 0 214 0;
#X connect 116 0 104 1;
#X connect 116 0 104 0;
#X connect 116 0 110 0;
#X connect 117 0 118 0;
#X connect 117 0 125 0;
#X connect 118 0 123 0;
#X connect 119 0 120 0;
#X connect 120 0 128 0;
#X connect 121 0 127 0;
#X connect 122 0 120 1;
#X connect 123 0 122 0;
#X connect 123 1 124 0;
#X connect 124 0 121 1;
#X connect 125 0 126 0;
#X connect 125 1 119 0;
#X connect 126 0 121 0;
#X connect 127 0 215 0;
#X connect 128 0 215 0;
#X connect 129 0 117 1;
#X connect 129 0 117 0;
#X connect 129 0 123 0;
#X connect 130 0 131 0;
#X connect 130 0 138 0;
#X connect 131 0 136 0;
#X connect 132 0 133 0;
#X connect 133 0 141 0;
#X connect 134 0 140 0;
#X connect 135 0 133 1;
#X connect 136 0 135 0;
#X connect 136 1 137 0;
#X connect 137 0 134 1;
#X connect 138 0 139 0;
#X connect 138 1 132 0;
#X connect 139 0 134 0;
#X connect 140 0 216 0;
#X connect 141 0 216 0;
#X connect 142 0 130 1;
#X connect 142 0 130 0;
#X connect 142 0 136 0;
#X connect 143 0 144 0;
#X connect 143 0 151 0;
#X connect 144 0 149 0;
#X connect 145 0 146 0;
#X connect 146 0 154 0;
#X connect 147 0 153 0;
#X connect 148 0 146 1;
#X connect 149 0 148 0;
#X connect 149 1 150 0;
#X connect 150 0 147 1;
#X connect 151 0 152 0;
#X connect 151 1 145 0;
#X connect 152 0 147 0;
#X connect 153 0 221 0;
#X connect 154 0 221 0;
#X connect 155 0 143 1;
#X connect 155 0 143 0;
#X connect 155 0 149 0;
#X connect 156 0 157 0;
#X connect 156 0 164 0;
#X connect 157 0 162 0;
#X connect 158 0 159 0;
#X connect 159 0 167 0;
#X connect 160 0 166 0;
#X connect 161 0 159 1;
#X connect 162 0 161 0;
#X connect 162 1 163 0;
#X connect 163 0 160 1;
#X connect 164 0 165 0;
#X connect 164 1 158 0;
#X connect 165 0 160 0;
#X connect 166 0 222 0;
#X connect 167 0 222 0;
#X connect 168 0 156 1;
#X connect 168 0 156 0;
#X connect 168 0 162 0;
#X connect 169 0 170 0;
#X connect 169 0 177 0;
#X connect 170 0 175 0;
#X connect 171 0 172 0;
#X connect 172 0 180 0;
#X connect 173 0 179 0;
#X connect 174 0 172 1;
#X connect 175 0 174 0;
#X connect 175 1 176 0;
#X connect 176 0 173 1;
#X connect 177 0 178 0;
#X connect 177 1 171 0;
#X connect 178 0 173 0;
#X connect 179 0 223 0;
#X connect 180 0 223 0;
#X connect 181 0 169 1;
#X connect 181 0 169 0;
#X connect 181 0 175 0;
#X connect 182 0 183 0;
#X connect 182 0 190 0;
#X connect 183 0 188 0;
#X connect 184 0 185 0;
#X connect 185 0 193 0;
#X connect 186 0 192 0;
#X connect 187 0 185 1;
#X connect 188 0 187 0;
#X connect 188 1 189 0;
#X connect 189 0 186 1;
#X connect 190 0 191 0;
#X connect 190 1 184 0;
#X connect 191 0 186 0;
#X connect 192 0 224 0;
#X connect 193 0 224 0;
#X connect 194 0 182 1;
#X connect 194 0 182 0;
#X connect 194 0 188 0;
#X connect 195 0 12 0;
#X connect 196 0 25 0;
#X connect 197 0 38 0;
#X connect 198 0 103 0;
#X connect 199 0 116 0;
#X connect 200 0 129 0;
#X connect 201 0 142 0;
#X connect 202 0 51 0;
#X connect 203 0 64 0;
#X connect 204 0 77 0;
#X connect 205 0 90 0;
#X connect 206 0 155 0;
#X connect 207 0 168 0;
#X connect 208 0 181 0;
#X connect 209 0 194 0;
#X connect 225 0 226 0;
#X connect 225 0 233 0;
#X connect 226 0 231 0;
#X connect 227 0 228 0;
#X connect 228 0 236 0;
#X connect 229 0 235 0;
#X connect 230 0 228 1;
#X connect 231 0 230 0;
#X connect 231 1 232 0;
#X connect 232 0 229 1;
#X connect 233 0 234 0;
#X connect 233 1 227 0;
#X connect 234 0 229 0;
#X connect 235 0 239 0;
#X connect 236 0 239 0;
#X connect 237 0 225 1;
#X connect 237 0 225 0;
#X connect 237 0 231 0;
#X connect 238 0 237 0;
#X connect 240 0 225 0;
#X connect 240 0 225 1;
#X connect 241 0 0 0;
#X connect 241 0 0 1;
#X connect 242 0 13 0;
#X connect 242 0 13 1;
#X connect 243 0 26 0;
#X connect 243 0 26 1;
#X connect 244 0 91 0;
#X connect 244 0 91 1;
#X connect 245 0 104 0;
#X connect 245 0 104 1;
#X connect 246 0 117 0;
#X connect 246 0 117 1;
#X connect 247 0 130 0;
#X connect 247 0 130 1;
#X connect 248 0 39 0;
#X connect 248 0 39 1;
#X connect 249 0 52 0;
#X connect 249 0 52 1;
#X connect 250 0 65 0;
#X connect 250 0 65 1;
#X connect 251 0 78 0;
#X connect 251 0 78 1;
#X connect 252 0 143 0;
#X connect 252 0 143 1;
#X connect 253 0 156 0;
#X connect 253 0 156 1;
#X connect 254 0 169 0;
#X connect 254 0 169 1;
#X connect 255 0 182 0;
#X connect 255 0 182 1;
#X restore -504 -1318 pd abs2stp;
#N canvas 171 96 672 518 n.del 0;
#X obj -59 185 outlet;
#X obj -92 151 select 1 0;
#X msg -59 168 1;
#X obj -10 185 outlet;
#X msg -10 168 1;
#X obj 39 185 outlet;
#X msg 39 168 1;
#X obj 88 185 outlet;
#X msg 88 168 1;
#X obj 138 185 outlet;
#X msg 138 168 1;
#X obj 186 185 outlet;
#X msg 186 168 1;
#X obj 235 185 outlet;
#X msg 235 168 1;
#X obj 284 185 outlet;
#X msg 284 168 1;
#X obj 334 185 outlet;
#X msg 334 168 1;
#X obj 385 185 outlet;
#X msg 385 168 1;
#X obj 434 185 outlet;
#X msg 434 168 1;
#X obj 482 185 outlet;
#X msg 482 168 1;
#X obj 532 185 outlet;
#X msg 532 168 1;
#X obj 584 185 outlet;
#X msg 584 168 1;
#X obj 635 185 outlet;
#X msg 635 168 1;
#X obj 686 185 outlet;
#X msg 687 168 1;
#X obj 738 185 outlet;
#X msg 738 168 1;
#X obj 789 185 outlet;
#X msg 789 168 1;
#X obj 840 185 outlet;
#X msg 840 168 1;
#X obj 889 185 outlet;
#X msg 889 168 1;
#X obj -25 -198 delay 500;
#X obj -59 -215 delay 500;
#X obj -59 -236 t b b;
#X obj 5 -181 delay 500;
#X obj 40 -164 delay 500;
#X obj 74 -147 delay 500;
#X obj 108 -130 delay 500;
#X obj 145 -113 delay 500;
#X obj 182 -96 delay 500;
#X obj 216 -79 delay 500;
#X obj 284 -45 delay 500;
#X obj 253 -62 delay 500;
#X obj 322 -28 delay 500;
#X obj 356 -11 delay 500;
#X obj 390 6 delay 500;
#X obj 427 23 delay 500;
#X obj 461 40 delay 500;
#X obj 496 57 delay 500;
#X obj 533 74 delay 500;
#X obj 570 91 delay 500;
#X obj 613 108 delay 500;
#X text 98 -234 //kontrol delay gap;
#X msg -59 -200 0;
#X msg -25 -181 0;
#X msg 40 -147 0;
#X msg 5 -164 0;
#X msg 74 -130 0;
#X msg 108 -113 0;
#X msg 145 -96 0;
#X msg 216 -62 0;
#X msg 253 -45 0;
#X msg 284 -30 0;
#X msg 182 -81 0;
#X msg 322 -13 0;
#X msg 356 4 0;
#X msg 390 21 0;
#X msg 427 38 0;
#X msg 497 78 0;
#X msg 461 55 0;
#X msg 533 89 0;
#X msg 570 108 0;
#X msg 613 125 0;
#X msg 66 -232 100;
#X msg -92 168 0;
#X text -64 -256 delay aus;
#X text -93 204 //einfach oneshot aus;
#X obj -90 109 r s.null;
#X connect 1 0 2 0;
#X connect 1 0 4 0;
#X connect 1 0 6 0;
#X connect 1 0 8 0;
#X connect 1 0 10 0;
#X connect 1 0 12 0;
#X connect 1 0 14 0;
#X connect 1 0 16 0;
#X connect 1 0 18 0;
#X connect 1 0 20 0;
#X connect 1 0 22 0;
#X connect 1 0 24 0;
#X connect 1 0 26 0;
#X connect 1 0 28 0;
#X connect 1 0 30 0;
#X connect 1 0 32 0;
#X connect 1 0 34 0;
#X connect 1 0 36 0;
#X connect 1 0 38 0;
#X connect 1 0 40 0;
#X connect 1 1 84 0;
#X connect 2 0 0 0;
#X connect 4 0 3 0;
#X connect 6 0 5 0;
#X connect 8 0 7 0;
#X connect 10 0 9 0;
#X connect 12 0 11 0;
#X connect 14 0 13 0;
#X connect 16 0 15 0;
#X connect 18 0 17 0;
#X connect 20 0 19 0;
#X connect 22 0 21 0;
#X connect 24 0 23 0;
#X connect 26 0 25 0;
#X connect 28 0 27 0;
#X connect 30 0 29 0;
#X connect 32 0 31 0;
#X connect 34 0 33 0;
#X connect 36 0 35 0;
#X connect 38 0 37 0;
#X connect 40 0 39 0;
#X connect 41 0 44 0;
#X connect 41 0 64 0;
#X connect 42 0 41 0;
#X connect 42 0 63 0;
#X connect 43 0 42 0;
#X connect 43 1 83 0;
#X connect 44 0 45 0;
#X connect 44 0 66 0;
#X connect 45 0 46 0;
#X connect 45 0 65 0;
#X connect 46 0 47 0;
#X connect 46 0 67 0;
#X connect 47 0 48 0;
#X connect 47 0 68 0;
#X connect 48 0 49 0;
#X connect 48 0 69 0;
#X connect 49 0 50 0;
#X connect 49 0 73 0;
#X connect 50 0 52 0;
#X connect 50 0 70 0;
#X connect 51 0 53 0;
#X connect 51 0 72 0;
#X connect 52 0 51 0;
#X connect 52 0 71 0;
#X connect 53 0 54 0;
#X connect 53 0 74 0;
#X connect 54 0 55 0;
#X connect 54 0 75 0;
#X connect 55 0 56 0;
#X connect 55 0 76 0;
#X connect 56 0 57 0;
#X connect 56 0 77 0;
#X connect 57 0 58 0;
#X connect 57 0 79 0;
#X connect 58 0 59 0;
#X connect 58 0 78 0;
#X connect 59 0 60 0;
#X connect 59 0 80 0;
#X connect 60 0 61 0;
#X connect 60 0 81 0;
#X connect 61 0 82 0;
#X connect 63 0 0 0;
#X connect 64 0 3 0;
#X connect 65 0 7 0;
#X connect 66 0 5 0;
#X connect 67 0 9 0;
#X connect 68 0 11 0;
#X connect 69 0 13 0;
#X connect 70 0 17 0;
#X connect 71 0 19 0;
#X connect 72 0 21 0;
#X connect 73 0 15 0;
#X connect 74 0 23 0;
#X connect 75 0 25 0;
#X connect 76 0 27 0;
#X connect 77 0 29 0;
#X connect 78 0 33 0;
#X connect 79 0 31 0;
#X connect 80 0 35 0;
#X connect 81 0 37 0;
#X connect 82 0 39 0;
#X connect 83 0 42 1;
#X connect 83 0 41 1;
#X connect 83 0 44 1;
#X connect 83 0 45 1;
#X connect 83 0 46 1;
#X connect 83 0 47 1;
#X connect 83 0 48 1;
#X connect 83 0 49 1;
#X connect 83 0 50 1;
#X connect 83 0 52 1;
#X connect 83 0 51 1;
#X connect 83 0 53 1;
#X connect 83 0 54 1;
#X connect 83 0 55 1;
#X connect 83 0 56 1;
#X connect 83 0 57 1;
#X connect 83 0 58 1;
#X connect 83 0 59 1;
#X connect 83 0 60 1;
#X connect 83 0 61 1;
#X connect 84 0 0 0;
#X connect 84 0 3 0;
#X connect 84 0 5 0;
#X connect 84 0 7 0;
#X connect 84 0 9 0;
#X connect 84 0 11 0;
#X connect 84 0 13 0;
#X connect 84 0 15 0;
#X connect 84 0 17 0;
#X connect 84 0 19 0;
#X connect 84 0 21 0;
#X connect 84 0 23 0;
#X connect 84 0 25 0;
#X connect 84 0 27 0;
#X connect 84 0 29 0;
#X connect 84 0 31 0;
#X connect 84 0 33 0;
#X connect 84 0 35 0;
#X connect 84 0 37 0;
#X connect 84 0 39 0;
#X connect 87 0 1 0;
#X restore -422 -1687 pd n.del;
#X obj -546 -1728 declare -lib mrpeach;
#X obj -731 -1619 bng 15 250 50 0 s.p r.p .p 0 20 0 8 -262144 -1 -1
;
#X obj -714 -1619 bng 15 250 50 0 s.blk r.blk .. 0 20 0 8 -262144 -1
-1;
#X obj -670 -1619 bng 15 250 50 0 s.500 r.500 500 0 20 0 8 -262144
-1 -1;
#X obj -729 -1638 tgl 11 0 empty r.TAT linkt.TAT 17 7 0 10 -232576
-1 -1 0 1;
#X obj -694 -1705 vradio 11 1 0 2 s.TAT r.TAT TAT 0 28 0 8 -261234
-1 -1 1;
#X obj -697 -1619 bng 15 250 50 0 s.2k r.2k 2k 0 20 0 8 -262144 -1
-1;
#X obj -651 -1619 bng 15 250 50 0 s.100 r.100 100 0 20 0 8 -262144
-1 -1;
#N canvas 830 186 387 193 SCHEMA 0;
#X text -834 -831 .d .p .u .e .. .k .s .b .[ .];
#X msg -707 -981 /r;
#X msg -707 -964 \$1/a;
#X msg -707 -947 \$1/n;
#X msg -707 -930 \$1/m;
#X text -675 -982 rst;
#X msg -831 -982 .N;
#X msg -801 -982 .n;
#X msg -831 -948 N;
#X msg -801 -948 n;
#X msg -831 -965 S;
#X msg -801 -965 s;
#X text -775 -966 stm;
#X text -774 -949 netz;
#X text -675 -965 accel/2500;
#X text -675 -948 normSpd/1500;
#X text -673 -931 maxSpd/5000;
#X text -775 -983 null.a&p;
#X text -832 -895 SWZ(..) ! " # $ % & ' ( ) * + \, (.k) - . / /0 /1
/2 /3 /4 /5 /6 /7 /8 /9 : \; (.s) < = > ? @ ABCDEFGHIJKLMNOPQRSTUVWXYZ
[ B/(.b) ] ^ _ ` abcdefghijklmnopqrstuvwxyz .[ | .] ~ SWZ-WEI(.d) PARK(.p)
WEI(.u) .e???;
#X restore -422 -1613 pd SCHEMA;
#X obj -853 -1731 cnv 15 200 20 empty empty STARTX-BUFFER_dvnmk_2015
20 12 0 10 -159808 -66577 0;
#X floatatom -840 -1281 3 0 0 2 1A dec.1 -;
#X floatatom -818 -1281 3 0 0 2 2B dec.2 -;
#X floatatom -794 -1281 3 0 0 2 3C dec.3 -;
#X floatatom -768 -1281 3 0 0 2 4D dec.4 -;
#X floatatom -741 -1281 3 0 0 2 5E dec.5 -;
#X floatatom -714 -1281 3 0 0 2 6F dec.6 -;
#X floatatom -691 -1281 3 0 0 2 7G dec.7 -;
#X floatatom -667 -1281 3 0 0 2 8H dec.8 -;
#X floatatom -840 -1259 3 0 0 3 9I dec.9 -;
#X floatatom -818 -1259 3 0 0 3 10J dec.10 -;
#X floatatom -794 -1259 3 0 0 3 11K dec.11 -;
#X floatatom -768 -1259 3 0 0 3 12L dec.12 -;
#X floatatom -741 -1259 3 0 0 3 13M dec.13 -;
#X floatatom -714 -1259 3 0 0 3 14N dec.14 -;
#X floatatom -691 -1259 3 0 0 3 15O dec.15 -;
#X floatatom -667 -1259 3 0 0 3 16P dec.16 -;
#N canvas 804 36 672 247 dec2abs 0;
#X obj -640 -6 - 31;
#X obj -558 8 - 31;
#X obj -488 8 - 31;
#X obj -409 8 - 31;
#X obj -330 8 - 31;
#X obj -251 8 - 31;
#X obj -171 8 - 31;
#X obj -92 8 - 31;
#X obj -627 61 - 31;
#X obj -558 61 - 31;
#X obj -488 61 - 31;
#X obj -409 61 - 31;
#X obj -330 61 - 31;
#X obj -251 61 - 31;
#X obj -171 61 - 31;
#X obj -92 61 - 31;
#X text -620 -72 // aus ascii dec;
#X obj -637 -34 r dec.1;
#X obj -558 -9 r dec.2;
#X obj -487 -9 r dec.3;
#X obj -409 -9 r dec.4;
#X obj -330 -9 r dec.5;
#X obj -251 -9 r dec.6;
#X obj -171 -9 r dec.7;
#X obj -92 -9 r dec.8;
#X obj -627 44 r dec.9;
#X obj -558 44 r dec.10;
#X obj -488 44 r dec.11;
#X obj -409 44 r dec.12;
#X obj -330 44 r dec.13;
#X obj -251 44 r dec.14;
#X obj -171 44 r dec.15;
#X obj -92 44 r dec.16;
#X obj -627 78 s abs.9;
#X obj -558 78 s abs.10;
#X obj -488 78 s abs.11;
#X obj -409 78 s abs.12;
#X obj -330 78 s abs.13;
#X obj -251 78 s abs.14;
#X obj -171 78 s abs.15;
#X obj -92 78 s abs.16;
#X obj -627 25 s abs.1;
#X obj -558 25 s abs.2;
#X obj -488 25 s abs.3;
#X obj -409 25 s abs.4;
#X obj -330 25 s abs.5;
#X obj -251 25 s abs.6;
#X obj -171 25 s abs.7;
#X obj -92 25 s abs.8;
#X connect 0 0 41 0;
#X connect 1 0 42 0;
#X connect 2 0 43 0;
#X connect 3 0 44 0;
#X connect 4 0 45 0;
#X connect 5 0 46 0;
#X connect 6 0 47 0;
#X connect 7 0 48 0;
#X connect 8 0 33 0;
#X connect 9 0 34 0;
#X connect 10 0 35 0;
#X connect 11 0 36 0;
#X connect 12 0 37 0;
#X connect 13 0 38 0;
#X connect 14 0 39 0;
#X connect 15 0 40 0;
#X connect 17 0 0 0;
#X connect 18 0 1 0;
#X connect 19 0 2 0;
#X connect 20 0 3 0;
#X connect 21 0 4 0;
#X connect 22 0 5 0;
#X connect 23 0 6 0;
#X connect 24 0 7 0;
#X connect 25 0 8 0;
#X connect 26 0 9 0;
#X connect 27 0 10 0;
#X connect 28 0 11 0;
#X connect 29 0 12 0;
#X connect 30 0 13 0;
#X connect 31 0 14 0;
#X connect 32 0 15 0;
#X restore -708 -1319 pd dec2abs;
#X floatatom -630 -1283 3 0 0 2 1A abs.1 -;
#X floatatom -607 -1283 3 0 0 2 2B abs.2 -;
#X floatatom -585 -1283 3 0 0 2 3C abs.3 -;
#X floatatom -563 -1283 3 0 0 2 4D abs.4 -;
#X floatatom -541 -1283 3 0 0 2 5E abs.5 -;
#X floatatom -519 -1283 3 0 0 2 6F abs.6 -;
#X floatatom -497 -1283 3 0 0 2 7G abs.7 -;
#X floatatom -475 -1283 3 0 0 2 8H abs.8 -;
#X floatatom -630 -1261 3 0 0 3 9I abs.9 -;
#X floatatom -607 -1261 3 0 0 3 10J abs.10 -;
#X floatatom -585 -1261 3 0 0 3 11K abs.11 -;
#X floatatom -563 -1261 3 0 0 3 12L abs.12 -;
#X floatatom -519 -1261 3 0 0 3 14N abs.14 -;
#X floatatom -497 -1261 3 0 0 3 15O abs.15 -;
#X floatatom -475 -1261 3 0 0 3 16P abs.16 -;
#X floatatom -541 -1261 3 0 0 3 13M abs.13 -;
#X floatatom -484 -1507 3 0 0 0 - - -;
#X floatatom -461 -1507 3 0 0 0 - - -;
#X floatatom -438 -1507 3 0 0 0 - - -;
#X floatatom -415 -1507 3 0 0 0 - - -;
#X floatatom -391 -1506 5 0 0 0 - - -;
#X obj -484 -1524 unpack 0 0 0 0 0;
#X floatatom -582 -1566 4 0 0 3 - - -;
#X floatatom -533 -1547 4 0 0 3 - - -;
#X text -505 -1547 total bytes received:;
#X text -519 -1508 from:;
#X text -555 -1566 bytes received:;
#X obj -582 -1583 route received total from;
#X symbolatom -844 -1550 2 0 0 0 - sym.1 -;
#X symbolatom -828 -1550 2 0 0 0 - sym.2 -;
#X symbolatom -811 -1550 2 0 0 0 - sym.3 -;
#X symbolatom -795 -1550 2 0 0 0 - sym.4 -;
#X symbolatom -779 -1550 2 0 0 0 - sym.5 -;
#X symbolatom -763 -1550 2 0 0 0 - sym.6 -;
#X symbolatom -746 -1550 2 0 0 0 - sym.7 -;
#X symbolatom -730 -1550 2 0 0 0 - sym.8 -;
#X symbolatom -844 -1530 2 0 0 0 - sym.9 -;
#X symbolatom -828 -1530 2 0 0 0 - sym.10 -;
#X symbolatom -811 -1530 2 0 0 0 - sym.11 -;
#X symbolatom -795 -1530 2 0 0 0 - sym.12 -;
#X symbolatom -779 -1530 2 0 0 0 - sym.13 -;
#X symbolatom -763 -1530 2 0 0 0 - sym.14 -;
#X symbolatom -746 -1530 2 0 0 0 - sym.15 -;
#X symbolatom -730 -1530 2 0 0 0 - sym.16 -;
#X floatatom -807 -1485 5 0 0 0 - r.max.1 s.max.1;
#X text -810 -1505 //maxi;
#X floatatom -772 -1485 5 0 0 0 - r.max.2 s.max.2;
#X floatatom -737 -1485 5 0 0 0 - r.max.3 s.max.3;
#X floatatom -702 -1485 5 0 0 0 - r.max.4 s.max.4;
#X floatatom -667 -1485 5 0 0 0 - r.max.5 s.max.5;
#X floatatom -632 -1485 5 0 0 0 - r.max.6 s.max.6;
#X floatatom -597 -1485 5 0 0 0 - r.max.7 s.max.7;
#X floatatom -562 -1485 5 0 0 0 - r.max.8 s.max.8;
#X floatatom -807 -1465 5 0 0 0 - r.max.9 s.max.9;
#X floatatom -772 -1465 5 0 0 0 - r.max.10 s.max.10;
#X floatatom -737 -1465 5 0 0 0 - r.max.11 s.max.11;
#X floatatom -702 -1465 5 0 0 0 - r.max.12 s.max.12;
#X floatatom -667 -1465 5 0 0 0 - r.max.13 s.max.13;
#X floatatom -632 -1465 5 0 0 0 - r.max.14 s.max.14;
#X floatatom -597 -1465 5 0 0 0 - r.max.15 s.max.15;
#X floatatom -562 -1465 5 0 0 0 - r.max.16 s.max.16;
#X floatatom -807 -1428 5 0 0 0 - r.accel.1 s.accel.1;
#X floatatom -807 -1408 5 0 0 0 - r.accel.9 s.accel.9;
#X text -810 -1448 //aksel;
#N canvas 0 462 1016 559 null-check 0;
#X obj 78 -197 r ausCOM;
#X msg 77 -94 /nullf/1 1A;
#X msg 168 -94 /nullf/2 2B;
#X msg 258 -94 /nullf/3 3C;
#X msg 348 -94 /nullf/4 4D;
#X msg 437 -94 /nullf/5 5E;
#X msg 527 -94 /nullf/6 6F;
#X msg 616 -94 /nullf/7 7G;
#X msg 709 -94 /nullf/8 8H;
#X msg 76 -22 /nullf/9 9I;
#X msg 166 -22 /nullf/10 10J;
#X msg 267 -22 /nullf/11 11K;
#X msg 369 -22 /nullf/12 12L;
#X msg 471 -22 /nullf/13 13M;
#X msg 573 -22 /nullf/14 14N;
#X msg 676 -22 /nullf/15 15O;
#X msg 779 -22 /nullf/16 16P;
#X msg 77 -77 0;
#X msg 168 -77 0;
#X obj 78 -176 route symbol;
#X obj 813 -175 select 1 0;
#X obj 78 -147 select a1 b1 c1 d1 e1 f1 g1 h1 i1 j1 k1 l1 m1 n1 o1
p1;
#X obj 820 -77 s toOSC;
#X obj 77 -60 s r.null.1;
#X msg 258 -77 0;
#X msg 348 -77 0;
#X msg 527 -77 0;
#X msg 616 -77 0;
#X msg 709 -77 0;
#X msg 437 -77 0;
#X msg 76 -5 0;
#X msg 167 -5 0;
#X msg 267 -5 0;
#X msg 369 -5 0;
#X msg 573 -5 0;
#X msg 676 -5 0;
#X msg 472 -5 0;
#X obj 168 -60 s r.null.2;
#X obj 257 -60 s r.null.3;
#X obj 348 -60 s r.null.4;
#X obj 437 -60 s r.null.5;
#X obj 527 -60 s r.null.6;
#X obj 616 -60 s r.null.7;
#X obj 709 -60 s r.null.8;
#X obj 76 12 s r.null.9;
#X obj 167 12 s r.null.10;
#X obj 267 12 s r.null.11;
#X obj 369 12 s r.null.12;
#X obj 472 12 s r.null.13;
#X obj 573 12 s r.null.14;
#X obj 676 12 s r.null.15;
#X msg 779 -5 0;
#X obj 779 12 s r.null.16;
#X text 866 -140 //reset;
#X obj 929 -170 r s.null;
#X obj 193 77 s null.1;
#X obj 784 -130 counter;
#X obj 951 -94 outlet;
#X msg 878 -94 /NULL \$1;
#X obj 253 77 s null.2;
#X obj 313 77 s null.3;
#X obj 373 77 s null.4;
#X obj 433 77 s null.5;
#X obj 493 77 s null.6;
#X obj 553 77 s null.7;
#X obj 613 77 s null.8;
#X obj 203 97 s null.9;
#X obj 263 97 s null.10;
#X obj 330 97 s null.11;
#X obj 397 97 s null.12;
#X obj 464 97 s null.13;
#X obj 531 97 s null.14;
#X obj 598 97 s null.15;
#X obj 665 97 s null.16;
#X text 690 74 //fuer abs.stp.null.korrigie;
#X obj 14 159 r null.1;
#X obj 14 202 s sym.1;
#X text 763 244 // when null ok > symbol display;
#X obj 783 168 makefilename %c;
#X obj 789 203 print n;
#X obj 856 207 s sym.1;
#X floatatom 810 125 5 0 0 0 - - -;
#N canvas 144 222 199 181 symbol-null 0;
#X msg 53 67 216;
#X obj 52 42 inlet;
#X obj 54 95 makefilename %c;
#X obj 52 124 outlet;
#X connect 0 0 2 0;
#X connect 1 0 0 0;
#X connect 2 0 3 0;
#X restore 14 181 pd symbol-null;
#X msg 870 128 191;
#N canvas 144 222 199 181 symbol-null 0;
#X msg 53 67 216;
#X obj 52 42 inlet;
#X obj 54 95 makefilename %c;
#X obj 52 124 outlet;
#X connect 0 0 2 0;
#X connect 1 0 0 0;
#X connect 2 0 3 0;
#X restore 105 181 pd symbol-null;
#X obj 105 159 r null.2;
#X obj 105 202 s sym.2;
#N canvas 144 222 199 181 symbol-null 0;
#X msg 53 67 216;
#X obj 52 42 inlet;
#X obj 54 95 makefilename %c;
#X obj 52 124 outlet;
#X connect 0 0 2 0;
#X connect 1 0 0 0;
#X connect 2 0 3 0;
#X restore 197 181 pd symbol-null;
#N canvas 144 222 199 181 symbol-null 0;
#X msg 53 67 216;
#X obj 52 42 inlet;
#X obj 54 95 makefilename %c;
#X obj 52 124 outlet;
#X connect 0 0 2 0;
#X connect 1 0 0 0;
#X connect 2 0 3 0;
#X restore 288 181 pd symbol-null;
#N canvas 144 222 199 181 symbol-null 0;
#X msg 53 67 216;
#X obj 52 42 inlet;
#X obj 54 95 makefilename %c;
#X obj 52 124 outlet;
#X connect 0 0 2 0;
#X connect 1 0 0 0;
#X connect 2 0 3 0;
#X restore 381 181 pd symbol-null;
#N canvas 144 222 199 181 symbol-null 0;
#X msg 53 67 216;
#X obj 52 42 inlet;
#X obj 54 95 makefilename %c;
#X obj 52 124 outlet;
#X connect 0 0 2 0;
#X connect 1 0 0 0;
#X connect 2 0 3 0;
#X restore 472 181 pd symbol-null;
#N canvas 144 222 199 181 symbol-null 0;
#X msg 53 67 216;
#X obj 52 42 inlet;
#X obj 54 95 makefilename %c;
#X obj 52 124 outlet;
#X connect 0 0 2 0;
#X connect 1 0 0 0;
#X connect 2 0 3 0;
#X restore 564 181 pd symbol-null;
#N canvas 144 222 199 181 symbol-null 0;
#X msg 53 67 216;
#X obj 52 42 inlet;
#X obj 54 95 makefilename %c;
#X obj 52 124 outlet;
#X connect 0 0 2 0;
#X connect 1 0 0 0;
#X connect 2 0 3 0;
#X restore 655 181 pd symbol-null;
#N canvas 144 222 199 181 symbol-null 0;
#X msg 53 67 216;
#X obj 52 42 inlet;
#X obj 54 95 makefilename %c;
#X obj 52 124 outlet;
#X connect 0 0 2 0;
#X connect 1 0 0 0;
#X connect 2 0 3 0;
#X restore 14 251 pd symbol-null;
#N canvas 144 222 199 181 symbol-null 0;
#X msg 53 67 216;
#X obj 52 42 inlet;
#X obj 54 95 makefilename %c;
#X obj 52 124 outlet;
#X connect 0 0 2 0;
#X connect 1 0 0 0;
#X connect 2 0 3 0;
#X restore 105 251 pd symbol-null;
#N canvas 144 222 199 181 symbol-null 0;
#X msg 53 67 216;
#X obj 52 42 inlet;
#X obj 54 95 makefilename %c;
#X obj 52 124 outlet;
#X connect 0 0 2 0;
#X connect 1 0 0 0;
#X connect 2 0 3 0;
#X restore 197 251 pd symbol-null;
#N canvas 144 222 199 181 symbol-null 0;
#X msg 53 67 216;
#X obj 52 42 inlet;
#X obj 54 95 makefilename %c;
#X obj 52 124 outlet;
#X connect 0 0 2 0;
#X connect 1 0 0 0;
#X connect 2 0 3 0;
#X restore 288 251 pd symbol-null;
#N canvas 144 222 199 181 symbol-null 0;
#X msg 53 67 216;
#X obj 52 42 inlet;
#X obj 54 95 makefilename %c;
#X obj 52 124 outlet;
#X connect 0 0 2 0;
#X connect 1 0 0 0;
#X connect 2 0 3 0;
#X restore 381 251 pd symbol-null;
#N canvas 144 222 199 181 symbol-null 0;
#X msg 53 67 216;
#X obj 52 42 inlet;
#X obj 54 95 makefilename %c;
#X obj 52 124 outlet;
#X connect 0 0 2 0;
#X connect 1 0 0 0;
#X connect 2 0 3 0;
#X restore 472 251 pd symbol-null;
#N canvas 144 222 199 181 symbol-null 0;
#X msg 53 67 216;
#X obj 52 42 inlet;
#X obj 54 95 makefilename %c;
#X obj 52 124 outlet;
#X connect 0 0 2 0;
#X connect 1 0 0 0;
#X connect 2 0 3 0;
#X restore 564 251 pd symbol-null;
#N canvas 144 222 199 181 symbol-null 0;
#X msg 53 67 216;
#X obj 52 42 inlet;
#X obj 54 95 makefilename %c;
#X obj 52 124 outlet;
#X connect 0 0 2 0;
#X connect 1 0 0 0;
#X connect 2 0 3 0;
#X restore 655 251 pd symbol-null;
#X obj 197 159 r null.3;
#X obj 197 202 s sym.3;
#X obj 288 159 r null.4;
#X obj 288 202 s sym.4;
#X obj 381 159 r null.5;
#X obj 381 202 s sym.5;
#X obj 472 159 r null.6;
#X obj 472 202 s sym.6;
#X obj 564 159 r null.7;
#X obj 564 202 s sym.7;
#X obj 655 159 r null.8;
#X obj 655 202 s sym.8;
#X obj 14 229 r null.9;
#X obj 14 272 s sym.9;
#X obj 105 272 s sym.10;
#X obj 105 229 r null.10;
#X obj 197 229 r null.11;
#X obj 197 272 s sym.11;
#X obj 288 229 r null.12;
#X obj 288 272 s sym.12;
#X obj 381 229 r null.13;
#X obj 381 272 s sym.13;
#X obj 472 229 r null.14;
#X obj 472 272 s sym.14;
#X obj 564 229 r null.15;
#X obj 564 272 s sym.15;
#X obj 655 229 r null.16;
#X obj 655 272 s sym.16;
#X msg 759 125 216;
#X connect 0 0 19 0;
#X connect 1 0 22 0;
#X connect 2 0 22 0;
#X connect 3 0 22 0;
#X connect 4 0 22 0;
#X connect 5 0 22 0;
#X connect 6 0 22 0;
#X connect 7 0 22 0;
#X connect 8 0 22 0;
#X connect 9 0 22 0;
#X connect 10 0 22 0;
#X connect 11 0 22 0;
#X connect 12 0 22 0;
#X connect 13 0 22 0;
#X connect 14 0 22 0;
#X connect 15 0 22 0;
#X connect 16 0 22 0;
#X connect 17 0 23 0;
#X connect 18 0 37 0;
#X connect 19 0 21 0;
#X connect 20 0 56 3;
#X connect 21 0 1 0;
#X connect 21 0 17 0;
#X connect 21 0 55 0;
#X connect 21 0 56 0;
#X connect 21 1 2 0;
#X connect 21 1 18 0;
#X connect 21 1 59 0;
#X connect 21 1 56 0;
#X connect 21 2 3 0;
#X connect 21 2 24 0;
#X connect 21 2 60 0;
#X connect 21 2 56 0;
#X connect 21 3 4 0;
#X connect 21 3 25 0;
#X connect 21 3 61 0;
#X connect 21 3 56 0;
#X connect 21 4 5 0;
#X connect 21 4 29 0;
#X connect 21 4 62 0;
#X connect 21 4 56 0;
#X connect 21 5 6 0;
#X connect 21 5 26 0;
#X connect 21 5 63 0;
#X connect 21 5 56 0;
#X connect 21 6 7 0;
#X connect 21 6 27 0;
#X connect 21 6 64 0;
#X connect 21 6 56 0;
#X connect 21 7 8 0;
#X connect 21 7 28 0;
#X connect 21 7 65 0;
#X connect 21 7 56 0;
#X connect 21 8 9 0;
#X connect 21 8 30 0;
#X connect 21 8 66 0;
#X connect 21 8 56 0;
#X connect 21 9 10 0;
#X connect 21 9 31 0;
#X connect 21 9 67 0;
#X connect 21 9 56 0;
#X connect 21 10 11 0;
#X connect 21 10 32 0;
#X connect 21 10 68 0;
#X connect 21 10 56 0;
#X connect 21 11 12 0;
#X connect 21 11 33 0;
#X connect 21 11 69 0;
#X connect 21 11 56 0;
#X connect 21 12 13 0;
#X connect 21 12 36 0;
#X connect 21 12 70 0;
#X connect 21 12 56 0;
#X connect 21 13 14 0;
#X connect 21 13 34 0;
#X connect 21 13 71 0;
#X connect 21 13 56 0;
#X connect 21 14 15 0;
#X connect 21 14 35 0;
#X connect 21 14 72 0;
#X connect 21 14 56 0;
#X connect 21 15 16 0;
#X connect 21 15 51 0;
#X connect 21 15 73 0;
#X connect 21 15 56 0;
#X connect 24 0 38 0;
#X connect 25 0 39 0;
#X connect 26 0 41 0;
#X connect 27 0 42 0;
#X connect 28 0 43 0;
#X connect 29 0 40 0;
#X connect 30 0 44 0;
#X connect 31 0 45 0;
#X connect 32 0 46 0;
#X connect 33 0 47 0;
#X connect 34 0 49 0;
#X connect 35 0 50 0;
#X connect 36 0 48 0;
#X connect 51 0 52 0;
#X connect 54 0 20 0;
#X connect 56 0 57 0;
#X connect 56 0 58 0;
#X connect 58 0 22 0;
#X connect 75 0 82 0;
#X connect 78 0 79 0;
#X connect 78 0 80 0;
#X connect 81 0 78 0;
#X connect 82 0 76 0;
#X connect 83 0 78 0;
#X connect 84 0 86 0;
#X connect 85 0 84 0;
#X connect 87 0 102 0;
#X connect 88 0 104 0;
#X connect 89 0 106 0;
#X connect 90 0 108 0;
#X connect 91 0 110 0;
#X connect 92 0 112 0;
#X connect 93 0 114 0;
#X connect 94 0 115 0;
#X connect 95 0 118 0;
#X connect 96 0 120 0;
#X connect 97 0 122 0;
#X connect 98 0 124 0;
#X connect 99 0 126 0;
#X connect 100 0 128 0;
#X connect 101 0 87 0;
#X connect 103 0 88 0;
#X connect 105 0 89 0;
#X connect 107 0 90 0;
#X connect 109 0 91 0;
#X connect 111 0 92 0;
#X connect 113 0 93 0;
#X connect 116 0 94 0;
#X connect 117 0 95 0;
#X connect 119 0 96 0;
#X connect 121 0 97 0;
#X connect 123 0 98 0;
#X connect 125 0 99 0;
#X connect 127 0 100 0;
#X connect 129 0 78 0;
#X restore -823 -1682 pd null-check;
#N canvas 751 52 454 299 go-check 0;
#X obj -5788 -7611 r ausCOM;
#X obj -5788 -7590 route symbol;
#X obj -5788 -7561 select A B C D E F G H I J K L M N O P;
#X obj -5791 -7470 s r.go.1;
#X obj -5940 -7504 spigot;
#X obj -5885 -7527 tgl 15 0 empty empty empty 17 7 0 10 -262144 -1
-1 0 1;
#X obj -5941 -7463 print was:;
#X msg -5887 -7623 A;
#X obj -5931 -7649 bng 15 250 50 0 empty empty empty 17 7 0 10 -262144
-1 -1;
#X msg -5938 -7544 1;
#X msg -5885 -7586 0;
#X connect 0 0 1 0;
#X connect 1 0 2 0;
#X connect 2 0 3 0;
#X connect 4 0 6 0;
#X connect 5 0 4 1;
#X connect 7 0 10 0;
#X connect 8 0 7 0;
#X connect 8 0 9 0;
#X connect 9 0 4 0;
#X connect 10 0 5 0;
#X restore -459 -1432 pd go-check;
#X floatatom -817 -1368 5 0 0 0 - r.go.1 s.go.1;
#X floatatom -817 -1348 5 0 0 0 - r.go.9 s.go.9;
#X obj -483 -1421 bng 15 250 50 0 empty empty empty 17 7 0 10 -262144
-1 -1;
#X obj -481 -1458 r r.go.1;
#X floatatom -845 -1445 5 0 0 0 - spd.accel -;
#X floatatom -844 -1506 5 0 0 0 - spd.max -;
#N canvas 601 139 1286 575 stm.delay 0;
#X obj 13 456 outlet;
#X obj 113 55 t b b;
#X text 20 83 //kontrol delay gap;
#X obj 113 33 select 1 0;
#X msg 92 146 1;
#X obj 66 456 outlet;
#X msg 135 156 1;
#X obj 116 456 outlet;
#X msg 175 176 1;
#X obj 166 456 outlet;
#X msg 215 186 1;
#X obj 212 456 outlet;
#X msg 251 206 1;
#X obj 266 456 outlet;
#X msg 285 216 1;
#X obj 315 456 outlet;
#X msg 324 236 1;
#X obj 367 456 outlet;
#X msg 356 246 1;
#X obj 421 456 outlet;
#X msg 390 266 1;
#X obj 474 456 outlet;
#X msg 423 276 1;
#X obj 523 456 outlet;
#X msg 462 296 1;
#X obj 580 456 outlet;
#X msg 499 306 1;
#X obj 636 456 outlet;
#X msg 535 326 1;
#X obj 686 456 outlet;
#X msg 575 336 1;
#X obj 737 456 outlet;
#X msg 608 353 1;
#X obj 786 456 outlet;
#X msg 645 368 1;
#X obj 463 83 t b b;
#X text 688 97 //kontrol delay gap;
#X msg 451 152 0;
#X msg 491 155 0;
#X msg 583 181 0;
#X msg 537 167 0;
#X msg 610 196 0;
#X msg 652 208 0;
#X msg 687 224 0;
#X msg 763 256 0;
#X msg 801 271 0;
#X msg 833 287 0;
#X msg 725 238 0;
#X msg 872 300 0;
#X msg 906 314 0;
#X msg 942 325 0;
#X msg 979 342 0;
#X msg 1016 359 0;
#X msg 300 85 stop;
#X obj 113 8 r s.stm;
#X obj 97 122 del 500;
#X obj 135 137 del 500;
#X obj 172 152 del 500;
#X obj 211 167 del 500;
#X obj 249 182 del 500;
#X obj 286 197 del 500;
#X obj 322 212 del 500;
#X obj 359 227 del 500;
#X obj 395 242 del 500;
#X obj 432 257 del 500;
#X obj 468 272 del 500;
#X obj 504 287 del 500;
#X obj 540 302 del 500;
#X obj 573 316 del 500;
#X obj 613 332 del 500;
#X obj 641 347 del 500;
#X obj 463 113 del 500;
#X obj 501 128 del 500;
#X obj 538 143 del 500;
#X obj 577 158 del 500;
#X obj 615 173 del 500;
#X obj 652 188 del 500;
#X obj 688 203 del 500;
#X obj 726 218 del 500;
#X obj 761 233 del 500;
#X obj 798 248 del 500;
#X obj 834 263 del 500;
#X obj 870 278 del 500;
#X obj 906 293 del 500;
#X obj 942 308 del 500;
#X obj 979 325 del 500;
#X obj 1016 342 del 500;
#X msg 661 96 100;
#X obj 400 12 loadbang;
#X msg 168 82 250;
#X connect 1 0 55 0;
#X connect 1 1 89 0;
#X connect 3 0 1 0;
#X connect 3 1 53 0;
#X connect 3 1 35 0;
#X connect 4 0 0 0;
#X connect 6 0 5 0;
#X connect 8 0 7 0;
#X connect 10 0 9 0;
#X connect 12 0 11 0;
#X connect 14 0 13 0;
#X connect 16 0 15 0;
#X connect 18 0 17 0;
#X connect 20 0 19 0;
#X connect 22 0 21 0;
#X connect 24 0 23 0;
#X connect 26 0 25 0;
#X connect 28 0 27 0;
#X connect 30 0 29 0;
#X connect 32 0 31 0;
#X connect 34 0 33 0;
#X connect 35 0 71 0;
#X connect 35 1 87 0;
#X connect 37 0 0 0;
#X connect 38 0 5 0;
#X connect 39 0 9 0;
#X connect 40 0 7 0;
#X connect 41 0 11 0;
#X connect 42 0 13 0;
#X connect 43 0 15 0;
#X connect 44 0 19 0;
#X connect 45 0 21 0;
#X connect 46 0 23 0;
#X connect 47 0 17 0;
#X connect 48 0 25 0;
#X connect 49 0 27 0;
#X connect 50 0 29 0;
#X connect 51 0 31 0;
#X connect 52 0 33 0;
#X connect 53 0 55 0;
#X connect 53 0 56 0;
#X connect 53 0 57 0;
#X connect 53 0 58 0;
#X connect 53 0 59 0;
#X connect 53 0 60 0;
#X connect 53 0 61 0;
#X connect 53 0 62 0;
#X connect 53 0 63 0;
#X connect 53 0 64 0;
#X connect 53 0 65 0;
#X connect 53 0 66 0;
#X connect 53 0 67 0;
#X connect 53 0 68 0;
#X connect 53 0 69 0;
#X connect 53 0 70 0;
#X connect 54 0 3 0;
#X connect 55 0 4 0;
#X connect 55 0 56 0;
#X connect 56 0 6 0;
#X connect 56 0 57 0;
#X connect 57 0 8 0;
#X connect 57 0 58 0;
#X connect 58 0 10 0;
#X connect 58 0 59 0;
#X connect 59 0 12 0;
#X connect 59 0 60 0;
#X connect 60 0 14 0;
#X connect 60 0 61 0;
#X connect 61 0 16 0;
#X connect 61 0 62 0;
#X connect 62 0 18 0;
#X connect 62 0 63 0;
#X connect 63 0 20 0;
#X connect 63 0 64 0;
#X connect 64 0 22 0;
#X connect 64 0 65 0;
#X connect 65 0 24 0;
#X connect 65 0 66 0;
#X connect 66 0 26 0;
#X connect 66 0 67 0;
#X connect 67 0 28 0;
#X connect 67 0 68 0;
#X connect 68 0 30 0;
#X connect 68 0 69 0;
#X connect 69 0 32 0;
#X connect 69 0 70 0;
#X connect 70 0 34 0;
#X connect 71 0 37 0;
#X connect 71 0 72 0;
#X connect 72 0 38 0;
#X connect 72 0 73 0;
#X connect 73 0 40 0;
#X connect 73 0 74 0;
#X connect 74 0 39 0;
#X connect 74 0 75 0;
#X connect 75 0 41 0;
#X connect 75 0 76 0;
#X connect 76 0 42 0;
#X connect 76 0 77 0;
#X connect 77 0 43 0;
#X connect 77 0 78 0;
#X connect 78 0 47 0;
#X connect 78 0 79 0;
#X connect 79 0 44 0;
#X connect 79 0 80 0;
#X connect 80 0 45 0;
#X connect 80 0 81 0;
#X connect 81 0 46 0;
#X connect 81 0 82 0;
#X connect 82 0 48 0;
#X connect 82 0 83 0;
#X connect 83 0 49 0;
#X connect 83 0 84 0;
#X connect 84 0 50 0;
#X connect 84 0 85 0;
#X connect 85 0 51 0;
#X connect 85 0 86 0;
#X connect 86 0 52 0;
#X connect 87 0 71 1;
#X connect 87 0 72 1;
#X connect 87 0 73 1;
#X connect 87 0 74 1;
#X connect 87 0 75 1;
#X connect 87 0 76 1;
#X connect 87 0 77 1;
#X connect 87 0 78 1;
#X connect 87 0 79 1;
#X connect 87 0 80 1;
#X connect 87 0 81 1;
#X connect 87 0 82 1;
#X connect 87 0 83 1;
#X connect 87 0 84 1;
#X connect 87 0 85 1;
#X connect 87 0 86 1;
#X connect 88 0 87 0;
#X connect 88 0 89 0;
#X connect 89 0 55 1;
#X connect 89 0 56 1;
#X connect 89 0 57 1;
#X connect 89 0 58 1;
#X connect 89 0 59 1;
#X connect 89 0 60 1;
#X connect 89 0 61 1;
#X connect 89 0 62 1;
#X connect 89 0 63 1;
#X connect 89 0 64 1;
#X connect 89 0 65 1;
#X connect 89 0 66 1;
#X connect 89 0 67 1;
#X connect 89 0 68 1;
#X connect 89 0 69 1;
#X connect 89 0 70 1;
#X restore -422 -1722 pd stm.delay;
#X floatatom -770 -1428 5 0 0 0 - r.accel.2 s.accel.2;
#X floatatom -770 -1408 5 0 0 0 - r.accel.10 s.accel.10;
#X floatatom -733 -1428 5 0 0 0 - r.accel.3 s.accel.3;
#X floatatom -733 -1408 5 0 0 0 - r.accel.12 s.accel.12;
#X floatatom -696 -1428 5 0 0 0 - r.accel.4 s.accel.4;
#X floatatom -696 -1408 5 0 0 0 - r.accel.13 s.accel.13;
#X floatatom -660 -1428 5 0 0 0 - r.accel.5 s.accel.5;
#X floatatom -660 -1408 5 0 0 0 - r.accel.14 s.accel.14;
#X floatatom -623 -1428 5 0 0 0 - r.accel.6 s.accel.6;
#X floatatom -623 -1408 5 0 0 0 - r.accel.9 s.accel.9;
#X floatatom -586 -1428 5 0 0 0 - r.accel.7 s.accel.7;
#X floatatom -586 -1408 5 0 0 0 - r.accel.15 s.accel.15;
#X floatatom -549 -1428 5 0 0 0 - r.accel.8 s.accel.8;
#X floatatom -549 -1408 5 0 0 0 - r.accel.16 s.accel.16;
#X floatatom -780 -1368 5 0 0 0 - r.go.2 s.go.2;
#X floatatom -780 -1348 5 0 0 0 - r.go.10 s.go.10;
#X floatatom -742 -1368 5 0 0 0 - r.go.3 s.go.3;
#X floatatom -742 -1348 5 0 0 0 - r.go.11 s.go.11;
#X floatatom -706 -1368 5 0 0 0 - r.go.4 s.go.4;
#X floatatom -706 -1348 5 0 0 0 - r.go.12 s.go.12;
#X floatatom -667 -1368 5 0 0 0 - r.go.5 s.go.5;
#X floatatom -667 -1348 5 0 0 0 - r.go.13 s.go.13;
#X floatatom -631 -1368 5 0 0 0 - r.go.6 s.go.6;
#X floatatom -631 -1348 5 0 0 0 - r.go.14 s.go.14;
#X floatatom -593 -1368 5 0 0 0 - r.go.7 s.go.7;
#X floatatom -593 -1348 5 0 0 0 - r.go.15 s.go.15;
#X floatatom -557 -1368 5 0 0 0 - r.go.8 s.go.8;
#X floatatom -557 -1348 5 0 0 0 - r.go.16 s.go.16;
#X obj -842 -1385 tgl 15 0 s.go.1 r.go.1 empty 17 7 0 10 -262144 -1
-1 0 1;
#N canvas 488 76 464 340 decimal2symbol 0;
#X obj 11 13 r dec.1;
#X obj 11 35 makefilename %c;
#X obj 11 57 s sym.1;
#X obj 111 35 makefilename %c;
#X obj 211 35 makefilename %c;
#X obj 311 35 makefilename %c;
#X obj 11 105 makefilename %c;
#X obj 111 105 makefilename %c;
#X obj 211 105 makefilename %c;
#X obj 311 105 makefilename %c;
#X obj 11 175 makefilename %c;
#X obj 111 175 makefilename %c;
#X obj 211 175 makefilename %c;
#X obj 311 175 makefilename %c;
#X obj 11 245 makefilename %c;
#X obj 111 245 makefilename %c;
#X obj 211 245 makefilename %c;
#X obj 311 245 makefilename %c;
#X obj 111 13 r dec.2;
#X obj 111 57 s sym.2;
#X obj 211 13 r dec.3;
#X obj 211 57 s sym.3;
#X obj 311 13 r dec.4;
#X obj 311 57 s sym.4;
#X obj 11 83 r dec.5;
#X obj 11 127 s sym.5;
#X obj 111 83 r dec.6;
#X obj 111 127 s sym.6;
#X obj 211 83 r dec.7;
#X obj 211 127 s sym.7;
#X obj 311 83 r dec.8;
#X obj 311 127 s sym.8;
#X obj 11 153 r dec.9;
#X obj 11 197 s sym.9;
#X obj 111 153 r dec.10;
#X obj 111 197 s sym.10;
#X obj 211 153 r dec.11;
#X obj 211 197 s sym.11;
#X obj 311 153 r dec.12;
#X obj 311 197 s sym.12;
#X obj 11 223 r dec.13;
#X obj 11 267 s sym.13;
#X obj 111 223 r dec.14;
#X obj 111 267 s sym.14;
#X obj 211 223 r dec.15;
#X obj 211 267 s sym.15;
#X obj 311 223 r dec.16;
#X obj 311 267 s sym.16;
#X text 39 298 // dec.x ist ascii code -> () => symbol;
#X connect 0 0 1 0;
#X connect 1 0 2 0;
#X connect 3 0 19 0;
#X connect 4 0 21 0;
#X connect 5 0 23 0;
#X connect 6 0 25 0;
#X connect 7 0 27 0;
#X connect 8 0 29 0;
#X connect 9 0 31 0;
#X connect 10 0 33 0;
#X connect 11 0 35 0;
#X connect 12 0 37 0;
#X connect 13 0 39 0;
#X connect 14 0 41 0;
#X connect 15 0 43 0;
#X connect 16 0 45 0;
#X connect 17 0 47 0;
#X connect 18 0 3 0;
#X connect 20 0 4 0;
#X connect 22 0 5 0;
#X connect 24 0 6 0;
#X connect 26 0 7 0;
#X connect 28 0 8 0;
#X connect 30 0 9 0;
#X connect 32 0 10 0;
#X connect 34 0 11 0;
#X connect 36 0 12 0;
#X connect 38 0 13 0;
#X connect 40 0 14 0;
#X connect 42 0 15 0;
#X connect 44 0 16 0;
#X connect 46 0 17 0;
#X restore -844 -1572 pd decimal2symbol;
#N canvas 0 0 512 720 kontrol 0;
#X msg -161 47 print \$1A;
#X msg -160 154 print \$1a;
#X obj -157 71 r 1A;
#X obj -92 171 s toCOM;
#X msg -92 154 print 4A;
#X obj -160 107 metro 100;
#X msg -160 127 8;
#X obj -200 3 r s.stm.1;
#X obj -172 90 r s.null.1;
#X obj 65 178 s toCOM;
#X obj -5 120 metro 100;
#X msg -5 137 8;
#X obj 229 169 s toCOM;
#X obj 158 108 metro 100;
#X msg 158 126 8;
#X obj 405 163 s toCOM;
#X obj 325 105 metro 100;
#X msg 325 122 8;
#X obj -110 424 s toCOM;
#X obj -181 365 metro 100;
#X msg -181 383 8;
#X obj 54 404 s toCOM;
#X obj -17 340 metro 100;
#X msg -17 357 8;
#X obj 216 411 s toCOM;
#X obj 147 347 metro 100;
#X msg 147 365 8;
#X obj 406 398 s toCOM;
#X obj 339 326 metro 100;
#X msg 340 345 8;
#X obj -109 659 s toCOM;
#X obj -178 576 metro 100;
#X msg -175 598 8;
#X obj 113 654 s toCOM;
#X obj 43 587 metro 100;
#X msg 44 616 8;
#X obj 295 659 s toCOM;
#X obj 228 585 metro 100;
#X msg 221 610 8;
#X obj 464 645 s toCOM;
#X obj 392 579 metro 100;
#X msg 393 598 8;
#X obj -159 931 s toCOM;
#X obj -229 866 metro 100;
#X msg -228 886 8;
#X obj 39 928 s toCOM;
#X obj -33 866 metro 100;
#X msg -32 885 8;
#X obj 223 923 s toCOM;
#X obj 157 857 metro 100;
#X msg 158 877 8;
#X obj 415 919 s toCOM;
#X obj 349 861 metro 100;
#X msg 345 881 8;
#X obj -6 103 r s.null.2;
#X obj 157 89 r s.null.3;
#X obj 324 88 r s.null.4;
#X obj -182 348 r s.null.5;
#X obj -28 323 r s.null.6;
#X obj 136 330 r s.null.7;
#X obj 318 309 r s.null.8;
#X obj -195 558 r s.null.9;
#X obj 35 570 r s.null.10;
#X obj 218 561 r s.null.11;
#X obj 395 557 r s.null.12;
#X obj -229 845 r s.null.13;
#X obj -33 845 r s.null.14;
#X obj 157 836 r s.null.15;
#X obj 349 840 r s.null.16;
#X obj -22 6 r s.stm.2;
#X obj 225 65 r s.stm.3;
#X obj 402 56 r s.stm.4;
#X obj -116 321 r s.stm.5;
#X obj 48 300 r s.stm.6;
#X obj 210 307 r s.stm.7;
#X obj 404 297 r s.stm.8;
#X obj -106 551 r s.stm.9;
#X obj 105 549 r s.stm.10;
#X obj 292 555 r s.stm.11;
#X obj 463 529 r s.stm.12;
#X obj -152 830 r s.stm.13;
#X obj 49 824 r s.stm.14;
#X obj 232 813 r s.stm.15;
#X obj 423 818 r s.stm.16;
#X msg 62 158 print 4B;
#X msg 403 141 print 4D;
#X msg -112 403 print 4E;
#X msg 55 383 print 4F;
#X msg 217 390 print 4G;
#X msg 411 378 print 4H;
#X msg -117 643 print 4I;
#X msg 110 636 print 4J;
#X msg 292 640 print 4K;
#X msg 463 617 print 4L;
#X msg -156 912 print 4M;
#X msg 42 906 print 4N;
#X msg 217 904 print 4O;
#X msg 415 901 print 4P;
#X obj -4 79 r 2B;
#X obj 159 65 r 3C;
#X obj 326 63 r 4D;
#X obj -180 324 r 5E;
#X obj -17 298 r 6F;
#X obj 145 309 r 7G;
#X obj 337 287 r 8H;
#X obj -180 537 r 9I;
#X obj 32 541 r 10J;
#X obj 228 530 r 11K;
#X obj 395 524 r 12L;
#X obj -229 816 r 13M;
#X obj -32 811 r 14N;
#X obj 158 807 r 15O;
#X obj 349 810 r 16P;
#X msg -4 162 print \$1b;
#X msg 159 150 print \$1c;
#X msg 326 147 print \$1d;
#X msg -180 407 print \$1e;
#X msg -16 386 print \$1f;
#X msg 148 393 print \$1g;
#X msg 342 381 print \$1h;
#X msg -179 625 print \$1i;
#X msg 38 636 print \$1j;
#X msg 220 640 print \$1k;
#X msg 390 626 print \$1l;
#X msg -230 910 print \$1m;
#X msg -30 909 print \$1n;
#X msg 159 899 print \$1o;
#X msg 345 899 print \$1p;
#X msg 76 83 print \$1B;
#X msg 226 82 print \$1C;
#X msg 403 73 print \$1D;
#X msg -115 338 print \$1E;
#X msg 49 317 print \$1F;
#X msg 211 324 print \$1G;
#X msg 405 314 print \$1H;
#X msg -105 572 print \$1I;
#X msg 106 570 print \$1J;
#X msg 293 576 print \$1K;
#X msg 464 550 print \$1L;
#X msg -157 887 print \$1M;
#X msg 50 845 print \$1N;
#X msg 233 834 print \$1O;
#X msg 424 839 print \$1P;
#X msg 226 149 print 4C;
#X obj -172 177 select 1;
#X text -159 216 //null_check > vue;
#X obj -6 187 select 1;
#X obj 160 170 select 1;
#X obj 327 173 select 1;
#X obj -187 427 select 1;
#X obj -28 405 select 1;
#X obj 138 422 select 1;
#X obj 321 395 select 1;
#X obj -202 637 select 1;
#X obj 36 661 select 1;
#X obj 223 664 select 1;
#X obj 390 653 select 1;
#X obj -225 926 select 1;
#X obj -23 933 select 1;
#X obj 162 927 select 1;
#X obj 337 919 select 1;
#X msg -94 36 print \$1!;
#X obj -94 19 r s.accel.1;
#X obj 56 12 r s.accel.2;
#X msg 56 29 print \$1@;
#X obj 225 48 r s.max.3;
#X obj 229 4 r s.accel.3;
#X msg 229 21 print \$1#;
#X obj 406 39 r s.max.4;
#X obj 407 -1 r s.accel.4;
#X msg 407 16 print \$1$;
#X obj -106 304 r s.max.5;
#X obj -109 261 r s.accel.5;
#X msg -109 277 print \$1%;
#X obj 52 283 r s.max.6;
#X obj 52 248 r s.accel.6;
#X msg 52 265 print \$1^;
#X obj 200 290 r s.max.7;
#X obj 205 255 r s.accel.7;
#X msg 205 272 print \$1&;
#X obj 403 280 r s.max.8;
#X obj 403 241 r s.accel.8;
#X msg 403 258 print \$1*;
#X obj -104 531 r s.max.9;
#X obj -106 493 r s.accel.9;
#X msg -106 510 print \$1(;
#X obj 105 530 r s.max.10;
#X obj 102 494 r s.accel.10;
#X msg 102 511 print \$1);
#X obj 297 536 r s.max.11;
#X obj 295 497 r s.accel.11;
#X msg 295 514 print \$1-;
#X obj 466 507 r s.max.12;
#X obj 464 467 r s.accel.12;
#X msg 464 484 print \$1_;
#X obj 50 811 r s.max.14;
#X obj 43 773 r s.accel.14;
#X msg 43 790 print \$1];
#X obj -154 812 r s.max.13;
#X obj -155 770 r s.accel.13;
#X msg -154 791 print \$1[;
#X obj 233 791 r s.max.15;
#X obj 234 747 r s.accel.15;
#X msg 234 764 print \$1|;
#X obj 423 795 r s.max.16;
#X obj 421 751 r s.accel.16;
#X msg 423 772 print \$1:;
#X obj -92 115 r s.go.1;
#X msg -92 132 print 2A;
#X obj 196 -40 s toCOM;
#X msg 33 -57 print \$1=;
#X msg -70 -57 print \$1+;
#X text 124 -34 rst;
#X text 32 -35 normSpd \; 1500;
#X text -72 -34 maxSpd \; 5000;
#X obj 33 -81 r spd.norm;
#X obj -173 -81 r spd.accel;
#X obj 127 -81 r spd.rst;
#X obj -70 -81 r spd.max;
#X text -171 -36 accel \; 2500;
#X text 203 -81 //rst not work \, wegen serial over?;
#X obj -172 214 s sym.1;
#N canvas 144 222 199 181 symbol-null-p 0;
#X obj 52 42 inlet;
#X obj 54 95 makefilename %c;
#X obj 52 124 outlet;
#X msg 53 67 191;
#X connect 0 0 3 0;
#X connect 1 0 2 0;
#X connect 3 0 1 0;
#X restore -172 197 pd symbol-null-p;
#N canvas 144 222 199 181 symbol-null-p 0;
#X obj 52 42 inlet;
#X obj 54 95 makefilename %c;
#X obj 52 124 outlet;
#X msg 53 67 191;
#X connect 0 0 3 0;
#X connect 1 0 2 0;
#X connect 3 0 1 0;
#X restore -6 204 pd symbol-null-p;
#N canvas 144 222 199 181 symbol-null-p 0;
#X obj 52 42 inlet;
#X obj 54 95 makefilename %c;
#X obj 52 124 outlet;
#X msg 53 67 191;
#X connect 0 0 3 0;
#X connect 1 0 2 0;
#X connect 3 0 1 0;
#X restore 159 187 pd symbol-null-p;
#N canvas 144 222 199 181 symbol-null-p 0;
#X obj 52 42 inlet;
#X obj 54 95 makefilename %c;
#X obj 52 124 outlet;
#X msg 53 67 191;
#X connect 0 0 3 0;
#X connect 1 0 2 0;
#X connect 3 0 1 0;
#X restore 327 190 pd symbol-null-p;
#N canvas 144 222 199 181 symbol-null-p 0;
#X obj 52 42 inlet;
#X obj 54 95 makefilename %c;
#X obj 52 124 outlet;
#X msg 53 67 191;
#X connect 0 0 3 0;
#X connect 1 0 2 0;
#X connect 3 0 1 0;
#X restore -180 444 pd symbol-null-p;
#N canvas 144 222 199 181 symbol-null-p 0;
#X obj 52 42 inlet;
#X obj 54 95 makefilename %c;
#X obj 52 124 outlet;
#X msg 53 67 191;
#X connect 0 0 3 0;
#X connect 1 0 2 0;
#X connect 3 0 1 0;
#X restore -36 422 pd symbol-null-p;
#N canvas 144 222 199 181 symbol-null-p 0;
#X obj 52 42 inlet;
#X obj 54 95 makefilename %c;
#X obj 52 124 outlet;
#X msg 53 67 191;
#X connect 0 0 3 0;
#X connect 1 0 2 0;
#X connect 3 0 1 0;
#X restore 141 439 pd symbol-null-p;
#N canvas 144 222 199 181 symbol-null-p 0;
#X obj 52 42 inlet;
#X obj 54 95 makefilename %c;
#X obj 52 124 outlet;
#X msg 53 67 191;
#X connect 0 0 3 0;
#X connect 1 0 2 0;
#X connect 3 0 1 0;
#X restore 311 421 pd symbol-null-p;
#N canvas 144 222 199 181 symbol-null-p 0;
#X obj 52 42 inlet;
#X obj 54 95 makefilename %c;
#X obj 52 124 outlet;
#X msg 53 67 191;
#X connect 0 0 3 0;
#X connect 1 0 2 0;
#X connect 3 0 1 0;
#X restore 42 684 pd symbol-null-p;
#N canvas 144 222 199 181 symbol-null-p 0;
#X obj 52 42 inlet;
#X obj 54 95 makefilename %c;
#X obj 52 124 outlet;
#X msg 53 67 191;
#X connect 0 0 3 0;
#X connect 1 0 2 0;
#X connect 3 0 1 0;
#X restore 232 695 pd symbol-null-p;
#N canvas 144 222 199 181 symbol-null-p 0;
#X obj 52 42 inlet;
#X obj 54 95 makefilename %c;
#X obj 52 124 outlet;
#X msg 53 67 191;
#X connect 0 0 3 0;
#X connect 1 0 2 0;
#X connect 3 0 1 0;
#X restore 390 667 pd symbol-null-p;
#N canvas 144 222 199 181 symbol-null-p 0;
#X obj 52 42 inlet;
#X obj 54 95 makefilename %c;
#X obj 52 124 outlet;
#X msg 53 67 191;
#X connect 0 0 3 0;
#X connect 1 0 2 0;
#X connect 3 0 1 0;
#X restore -224 948 pd symbol-null-p;
#N canvas 144 222 199 181 symbol-null-p 0;
#X obj 52 42 inlet;
#X obj 54 95 makefilename %c;
#X obj 52 124 outlet;
#X msg 53 67 191;
#X connect 0 0 3 0;
#X connect 1 0 2 0;
#X connect 3 0 1 0;
#X restore -23 953 pd symbol-null-p;
#N canvas 144 222 199 181 symbol-null-p 0;
#X obj 52 42 inlet;
#X obj 54 95 makefilename %c;
#X obj 52 124 outlet;
#X msg 53 67 191;
#X connect 0 0 3 0;
#X connect 1 0 2 0;
#X connect 3 0 1 0;
#X restore 161 949 pd symbol-null-p;
#N canvas 144 222 199 181 symbol-null-p 0;
#X obj 52 42 inlet;
#X obj 54 95 makefilename %c;
#X obj 52 124 outlet;
#X msg 53 67 191;
#X connect 0 0 3 0;
#X connect 1 0 2 0;
#X connect 3 0 1 0;
#X restore 347 938 pd symbol-null-p;
#N canvas 144 222 199 181 symbol-null-p 0;
#X obj 52 42 inlet;
#X obj 54 95 makefilename %c;
#X obj 52 124 outlet;
#X msg 53 67 191;
#X connect 0 0 3 0;
#X connect 1 0 2 0;
#X connect 3 0 1 0;
#X restore -203 665 pd symbol-null-p;
#X obj -6 221 s sym.2;
#X obj 159 204 s sym.3;
#X obj 327 207 s sym.4;
#X obj -180 461 s sym.5;
#X obj -36 439 s sym.6;
#X obj 141 456 s sym.7;
#X obj 311 438 s sym.8;
#X obj -203 682 s sym.9;
#X obj 42 701 s sym.10;
#X obj 232 712 s sym.11;
#X obj 390 684 s sym.12;
#X obj -221 969 s sym.13;
#X obj -23 970 s sym.14;
#X obj 161 966 s sym.15;
#X obj 347 955 s sym.16;
#X obj 61 114 r s.go.2;
#X msg 61 135 print 2B;
#X obj 228 105 r s.go.3;
#X msg 228 126 print 2C;
#X obj 404 98 r s.go.4;
#X msg 404 119 print 2D;
#X obj -115 361 r s.go.5;
#X msg -115 382 print 2E;
#X obj 46 337 r s.go.6;
#X msg 46 358 print 2F;
#X obj 214 344 r s.go.7;
#X msg 214 365 print 2G;
#X obj 408 336 r s.go.8;
#X msg 408 357 print 2H;
#X obj -111 598 r s.go.9;
#X msg -111 619 print 2I;
#X obj 110 592 r s.go.10;
#X msg 110 613 print 2J;
#X obj 292 599 r s.go.11;
#X msg 292 620 print 2K;
#X obj 466 576 r s.go.12;
#X msg 466 597 print 2L;
#X obj -155 848 r s.go.13;
#X msg -155 869 print 2M;
#X obj 42 864 r s.go.14;
#X msg 42 885 print 2N;
#X obj 232 860 r s.go.15;
#X msg 232 881 print 2O;
#X obj 425 858 r s.go.16;
#X msg 425 879 print 2P;
#X obj -188 25 r s.max.1;
#X obj -11 37 r s.max.2;
#X msg -173 -57 print \$1/;
#X connect 0 0 3 0;
#X connect 1 0 3 0;
#X connect 2 0 1 0;
#X connect 4 0 3 0;
#X connect 5 0 6 0;
#X connect 5 0 4 0;
#X connect 6 0 1 0;
#X connect 7 0 0 0;
#X connect 8 0 5 0;
#X connect 8 0 144 0;
#X connect 10 0 11 0;
#X connect 10 0 84 0;
#X connect 11 0 113 0;
#X connect 13 0 14 0;
#X connect 13 0 143 0;
#X connect 14 0 114 0;
#X connect 16 0 17 0;
#X connect 16 0 85 0;
#X connect 17 0 115 0;
#X connect 19 0 20 0;
#X connect 19 0 86 0;
#X connect 20 0 116 0;
#X connect 22 0 23 0;
#X connect 22 0 87 0;
#X connect 23 0 117 0;
#X connect 25 0 26 0;
#X connect 25 0 88 0;
#X connect 26 0 118 0;
#X connect 28 0 29 0;
#X connect 28 0 89 0;
#X connect 29 0 119 0;
#X connect 31 0 32 0;
#X connect 31 0 90 0;
#X connect 32 0 120 0;
#X connect 34 0 35 0;
#X connect 34 0 91 0;
#X connect 35 0 121 0;
#X connect 37 0 38 0;
#X connect 37 0 92 0;
#X connect 38 0 122 0;
#X connect 40 0 41 0;
#X connect 40 0 93 0;
#X connect 41 0 123 0;
#X connect 43 0 44 0;
#X connect 43 0 94 0;
#X connect 44 0 124 0;
#X connect 46 0 47 0;
#X connect 46 0 95 0;
#X connect 47 0 125 0;
#X connect 49 0 50 0;
#X connect 49 0 96 0;
#X connect 50 0 126 0;
#X connect 52 0 53 0;
#X connect 52 0 97 0;
#X connect 53 0 127 0;
#X connect 54 0 10 0;
#X connect 54 0 146 0;
#X connect 55 0 13 0;
#X connect 55 0 147 0;
#X connect 56 0 16 0;
#X connect 56 0 148 0;
#X connect 57 0 19 0;
#X connect 57 0 149 0;
#X connect 58 0 22 0;
#X connect 58 0 150 0;
#X connect 59 0 25 0;
#X connect 59 0 151 0;
#X connect 60 0 28 0;
#X connect 60 0 152 0;
#X connect 61 0 31 0;
#X connect 61 0 153 0;
#X connect 62 0 34 0;
#X connect 62 0 154 0;
#X connect 63 0 37 0;
#X connect 63 0 155 0;
#X connect 64 0 40 0;
#X connect 64 0 156 0;
#X connect 65 0 43 0;
#X connect 65 0 157 0;
#X connect 66 0 46 0;
#X connect 66 0 158 0;
#X connect 67 0 49 0;
#X connect 67 0 159 0;
#X connect 68 0 52 0;
#X connect 68 0 160 0;
#X connect 69 0 128 0;
#X connect 70 0 129 0;
#X connect 71 0 130 0;
#X connect 72 0 131 0;
#X connect 73 0 132 0;
#X connect 74 0 133 0;
#X connect 75 0 134 0;
#X connect 76 0 135 0;
#X connect 77 0 136 0;
#X connect 78 0 137 0;
#X connect 79 0 138 0;
#X connect 80 0 139 0;
#X connect 81 0 140 0;
#X connect 82 0 141 0;
#X connect 83 0 142 0;
#X connect 84 0 9 0;
#X connect 85 0 15 0;
#X connect 86 0 18 0;
#X connect 87 0 21 0;
#X connect 88 0 24 0;
#X connect 89 0 27 0;
#X connect 90 0 30 0;
#X connect 91 0 33 0;
#X connect 92 0 36 0;
#X connect 93 0 39 0;
#X connect 94 0 42 0;
#X connect 95 0 45 0;
#X connect 96 0 48 0;
#X connect 97 0 51 0;
#X connect 98 0 113 0;
#X connect 99 0 114 0;
#X connect 100 0 115 0;
#X connect 101 0 116 0;
#X connect 102 0 117 0;
#X connect 103 0 118 0;
#X connect 104 0 119 0;
#X connect 105 0 120 0;
#X connect 106 0 121 0;
#X connect 107 0 122 0;
#X connect 108 0 123 0;
#X connect 109 0 124 0;
#X connect 110 0 125 0;
#X connect 111 0 126 0;
#X connect 112 0 127 0;
#X connect 113 0 9 0;
#X connect 114 0 12 0;
#X connect 115 0 15 0;
#X connect 116 0 18 0;
#X connect 117 0 21 0;
#X connect 118 0 24 0;
#X connect 119 0 27 0;
#X connect 120 0 30 0;
#X connect 121 0 33 0;
#X connect 122 0 36 0;
#X connect 123 0 39 0;
#X connect 124 0 42 0;
#X connect 125 0 45 0;
#X connect 126 0 48 0;
#X connect 127 0 51 0;
#X connect 128 0 9 0;
#X connect 129 0 12 0;
#X connect 130 0 15 0;
#X connect 131 0 18 0;
#X connect 132 0 21 0;
#X connect 133 0 24 0;
#X connect 134 0 27 0;
#X connect 135 0 30 0;
#X connect 136 0 33 0;
#X connect 137 0 36 0;
#X connect 138 0 39 0;
#X connect 139 0 42 0;
#X connect 140 0 45 0;
#X connect 141 0 48 0;
#X connect 142 0 51 0;
#X connect 143 0 12 0;
#X connect 144 0 222 0;
#X connect 146 0 223 0;
#X connect 147 0 224 0;
#X connect 148 0 225 0;
#X connect 149 0 226 0;
#X connect 150 0 227 0;
#X connect 151 0 228 0;
#X connect 152 0 229 0;
#X connect 153 0 237 0;
#X connect 154 0 230 0;
#X connect 155 0 231 0;
#X connect 156 0 232 0;
#X connect 157 0 233 0;
#X connect 158 0 234 0;
#X connect 159 0 235 0;
#X connect 160 0 236 0;
#X connect 161 0 3 0;
#X connect 162 0 161 0;
#X connect 163 0 164 0;
#X connect 164 0 9 0;
#X connect 165 0 129 0;
#X connect 166 0 167 0;
#X connect 167 0 12 0;
#X connect 168 0 130 0;
#X connect 169 0 170 0;
#X connect 170 0 15 0;
#X connect 171 0 131 0;
#X connect 172 0 173 0;
#X connect 173 0 18 0;
#X connect 174 0 132 0;
#X connect 175 0 176 0;
#X connect 176 0 21 0;
#X connect 177 0 133 0;
#X connect 178 0 179 0;
#X connect 179 0 24 0;
#X connect 180 0 134 0;
#X connect 181 0 182 0;
#X connect 182 0 27 0;
#X connect 183 0 135 0;
#X connect 184 0 185 0;
#X connect 185 0 30 0;
#X connect 186 0 136 0;
#X connect 187 0 188 0;
#X connect 188 0 33 0;
#X connect 189 0 137 0;
#X connect 190 0 191 0;
#X connect 191 0 36 0;
#X connect 192 0 138 0;
#X connect 193 0 194 0;
#X connect 194 0 39 0;
#X connect 195 0 140 0;
#X connect 196 0 197 0;
#X connect 197 0 45 0;
#X connect 198 0 139 0;
#X connect 199 0 200 0;
#X connect 200 0 42 0;
#X connect 201 0 141 0;
#X connect 202 0 203 0;
#X connect 203 0 48 0;
#X connect 204 0 142 0;
#X connect 205 0 206 0;
#X connect 206 0 51 0;
#X connect 207 0 208 0;
#X connect 208 0 3 0;
#X connect 210 0 209 0;
#X connect 211 0 209 0;
#X connect 215 0 210 0;
#X connect 216 0 285 0;
#X connect 218 0 211 0;
#X connect 222 0 221 0;
#X connect 223 0 238 0;
#X connect 224 0 239 0;
#X connect 225 0 240 0;
#X connect 226 0 241 0;
#X connect 227 0 242 0;
#X connect 228 0 243 0;
#X connect 229 0 244 0;
#X connect 230 0 246 0;
#X connect 231 0 247 0;
#X connect 232 0 248 0;
#X connect 233 0 249 0;
#X connect 234 0 250 0;
#X connect 235 0 251 0;
#X connect 236 0 252 0;
#X connect 237 0 245 0;
#X connect 253 0 254 0;
#X connect 254 0 9 0;
#X connect 255 0 256 0;
#X connect 256 0 12 0;
#X connect 257 0 258 0;
#X connect 258 0 15 0;
#X connect 259 0 260 0;
#X connect 260 0 18 0;
#X connect 261 0 262 0;
#X connect 262 0 21 0;
#X connect 263 0 264 0;
#X connect 264 0 24 0;
#X connect 265 0 266 0;
#X connect 266 0 27 0;
#X connect 267 0 268 0;
#X connect 268 0 30 0;
#X connect 269 0 270 0;
#X connect 270 0 33 0;
#X connect 271 0 272 0;
#X connect 272 0 36 0;
#X connect 273 0 274 0;
#X connect 274 0 39 0;
#X connect 275 0 276 0;
#X connect 276 0 42 0;
#X connect 277 0 278 0;
#X connect 278 0 45 0;
#X connect 279 0 280 0;
#X connect 280 0 48 0;
#X connect 281 0 282 0;
#X connect 282 0 51 0;
#X connect 283 0 0 0;
#X connect 284 0 128 0;
#X connect 285 0 209 0;
#X restore -833 -1660 pd kontrol;
#N canvas 28 35 512 425 konnekt 0;
#X obj 272 10 s ausCOM;
#X msg 223 -58 close;
#X obj 223 -92 select 1 0;
#X obj 263 108 print;
#X obj 269 -75 delay 500;
#X obj 223 -41 comport 1 115200;
#X obj 129 -150 r s.srl;
#X obj 327 -75 s r.null;
#X text 205 -154 // serial teil;
#X obj 276 -58 r toCOM;
#X obj 62 -75 + 2;
#X msg 62 -58 print \$1Z;
#X obj 131 -99 r s.netz;
#X obj 62 -92 r s.ms;
#X obj 131 50 s toOSC;
#X msg 131 -59 /init/netz \$1;
#X msg 131 -42 /init/ms \$1;
#X msg 131 -76 /init/fbk \$1;
#X msg 131 9 /init/srl \$1;
#X text 217 30 //TODO spaetter weg;
#X msg 131 26 /ARD \$1;
#X obj 62 -25 r s.stm;
#X msg 131 -25 /init/stm \$1;
#X obj 62 -8 r s.null;
#X msg 131 -8 /init/null \$1;
#X obj -315 -246 unpackOSC;
#X obj -291 -151 s r.fbk;
#X obj -267 -119 s r.srl;
#X obj -170 -140 s r.null;
#X obj -243 -151 s r.ms;
#X obj -219 -119 s r.netz;
#X obj -194 -75 s r.stm;
#N canvas 523 194 576 332 /null 0;
#X obj 14 36 inlet;
#X obj 9 66 routeOSC /1 /2 /3 /4 /5 /6 /7 /8 /9 /10 /11 /12 /13 /14
/15 /16 /0;
#X obj 9 107 s r.null.1;
#X obj 390 214 s r.null;
#X obj 33 130 s r.null.2;
#X obj 59 153 s r.null.3;
#X obj 83 176 s r.null.4;
#X obj 104 109 s r.null.5;
#X obj 128 132 s r.null.6;
#X obj 154 155 s r.null.7;
#X obj 178 178 s r.null.8;
#X obj 197 109 s r.null.9;
#X obj 221 132 s r.null.10;
#X obj 247 155 s r.null.11;
#X obj 271 178 s r.null.12;
#X obj 292 111 s r.null.13;
#X obj 316 134 s r.null.14;
#X obj 342 157 s r.null.15;
#X obj 366 180 s r.null.16;
#X connect 0 0 1 0;
#X connect 1 0 2 0;
#X connect 1 1 4 0;
#X connect 1 2 5 0;
#X connect 1 3 6 0;
#X connect 1 4 7 0;
#X connect 1 5 8 0;
#X connect 1 6 9 0;
#X connect 1 7 10 0;
#X connect 1 8 11 0;
#X connect 1 9 12 0;
#X connect 1 10 13 0;
#X connect 1 11 14 0;
#X connect 1 12 15 0;
#X connect 1 13 16 0;
#X connect 1 14 17 0;
#X connect 1 15 18 0;
#X connect 1 16 3 0;
#X restore -145 -140 pd /null;
#X text -161 -263 //OSC_receive konnektion;
#X obj 223 -24 ascii2pd CR;
#X obj 223 -7 route list symbol;
#X obj -146 -113 select 1;
#X obj -146 -96 s r.p;
#X obj -122 -73 select 1;
#X obj -122 -56 s r.blk;
#X obj -315 -263 udpreceive 9000;
#X obj -315 -24 unpack f f f f f f f f f f f f f f f f f f f f;
#X obj -315 -3 s dec.1;
#X obj -301 14 s dec.2;
#X obj -287 31 s dec.3;
#X obj -272 48 s dec.4;
#X obj -258 65 s dec.5;
#X obj -244 82 s dec.6;
#X obj -229 99 s dec.7;
#X obj -215 116 s dec.8;
#X obj -201 -3 s dec.9;
#X obj -186 14 s dec.10;
#X obj -173 31 s dec.11;
#X obj -157 48 s dec.12;
#X obj -143 65 s dec.13;
#X obj -130 82 s dec.14;
#X obj -114 99 s dec.15;
#X obj -100 116 s dec.16;
#X obj 17 -246 outlet;
#X obj -26 -73 select 1;
#X obj -97 -155 s spd.accel;
#X obj -49 -128 s spd.norm;
#X text 179 50 // TODO feedback teil;
#X obj -26 -50 s spd.rst;
#X obj -73 -100 s spd.max;
#X text 233 -112 // 1 fur rpi \, 2fur mac;
#X obj -315 -214 routeOSC /alle /each;
#N canvas 654 109 808 453 routeOSC-zu-each 0;
#X obj 205 -180 inlet;
#X obj 247 -181 routeOSC /1 /2 /3 /4 /5 /6 /7 /8 /9 /10 /11 /12 /13
/14 /15 /16;
#X obj -1 -98 s dec.1;
#X obj 80 -95 s r.null.1;
#X obj 39 -72 s r.stm.1;
#X obj 203 -72 s r.accel.1;
#X obj 244 -94 s r.norm.1;
#X obj 285 -72 s r.rst.1;
#X text 315 -93 //norm y rst not implemented;
#X obj 121 -72 s r.go.1;
#X text 745 -93 //norm y rst not implemented;
#X obj 20 -20 s dec.2;
#X obj 60 6 s r.stm.2;
#X obj 101 -17 s r.null.2;
#X obj 142 6 s r.go.2;
#X obj 224 6 s r.accel.2;
#X obj 265 -16 s r.norm.2;
#X obj 306 6 s r.rst.2;
#X obj 43 56 s dec.3;
#X obj 83 82 s r.stm.3;
#X obj 124 59 s r.null.3;
#X obj 165 82 s r.go.3;
#X obj 206 60 s r.max.3;
#X obj 247 82 s r.accel.3;
#X obj 288 60 s r.norm.3;
#X obj 329 82 s r.rst.3;
#X obj 64 134 s dec.4;
#X obj 145 137 s r.null.4;
#X obj 227 138 s r.max.4;
#X obj 309 138 s r.norm.4;
#X obj 350 160 s r.rst.4;
#X obj 268 160 s r.accel.4;
#X obj 186 160 s r.go.4;
#X obj 104 160 s r.stm.4;
#X obj 91 210 s dec.5;
#X obj 172 213 s r.null.5;
#X obj 254 214 s r.max.5;
#X obj 336 214 s r.norm.5;
#X obj 377 236 s r.rst.5;
#X obj 295 236 s r.accel.5;
#X obj 213 236 s r.go.5;
#X obj 131 236 s r.stm.5;
#X obj 112 288 s dec.6;
#X obj 193 291 s r.null.6;
#X obj 275 292 s r.max.6;
#X obj 357 292 s r.norm.6;
#X obj 152 314 s r.stm.6;
#X obj 234 314 s r.go.6;
#X obj 316 314 s r.accel.6;
#X obj 398 314 s r.rst.6;
#X obj 136 367 s dec.7;
#X obj 176 393 s r.stm.7;
#X obj 217 370 s r.null.7;
#X obj 258 393 s r.go.7;
#X obj 299 371 s r.max.7;
#X obj 340 393 s r.accel.7;
#X obj 381 371 s r.norm.7;
#X obj 422 393 s r.rst.7;
#X obj 157 445 s dec.8;
#X obj 197 471 s r.stm.8;
#X obj 238 448 s r.null.8;
#X obj 279 471 s r.go.8;
#X obj 320 449 s r.max.8;
#X obj 361 471 s r.accel.8;
#X obj 402 449 s r.norm.8;
#X obj 443 471 s r.rst.8;
#X obj 429 -98 s dec.9;
#X obj 510 -95 s r.null.9;
#X obj 592 -94 s r.max.9;
#X obj 674 -94 s r.norm.9;
#X obj 469 -72 s r.stm.9;
#X obj 551 -72 s r.go.9;
#X obj 633 -72 s r.accel.9;
#X obj 715 -72 s r.rst.9;
#X obj 450 -20 s dec.10;
#X obj 531 -17 s r.null.10;
#X obj 613 -16 s r.max.10;
#X obj 695 -16 s r.norm.10;
#X obj 490 6 s r.stm.10;
#X obj 572 6 s r.go.10;
#X obj 654 6 s r.accel.10;
#X obj 736 6 s r.rst.10;
#X obj 473 56 s dec.11;
#X obj 554 59 s r.null.11;
#X obj 636 60 s r.max.11;
#X obj 718 60 s r.norm.11;
#X obj 513 82 s r.stm.11;
#X obj 595 82 s r.go.11;
#X obj 677 82 s r.accel.11;
#X obj 759 82 s r.rst.11;
#X obj 494 134 s dec.12;
#X obj 575 137 s r.null.12;
#X obj 657 138 s r.max.12;
#X obj 739 138 s r.norm.12;
#X obj 534 160 s r.stm.12;
#X obj 616 160 s r.go.12;
#X obj 698 160 s r.accel.12;
#X obj 780 160 s r.rst.12;
#X obj 521 210 s dec.13;
#X obj 602 213 s r.null.13;
#X obj 684 214 s r.max.13;
#X obj 766 214 s r.norm.13;
#X obj 561 236 s r.stm.13;
#X obj 643 236 s r.go.13;
#X obj 725 236 s r.accel.13;
#X obj 807 236 s r.rst.13;
#X obj 542 288 s dec.14;
#X obj 623 291 s r.null.14;
#X obj 705 292 s r.max.14;
#X obj 787 292 s r.norm.14;
#X obj 582 314 s r.stm.14;
#X obj 664 314 s r.go.14;
#X obj 746 314 s r.accel.14;
#X obj 828 314 s r.rst.14;
#X obj 566 367 s dec.15;
#X obj 647 370 s r.null.15;
#X obj 729 371 s r.max.15;
#X obj 811 371 s r.norm.15;
#X obj 606 393 s r.stm.15;
#X obj 688 393 s r.go.15;
#X obj 770 393 s r.accel.15;
#X obj 852 393 s r.rst.15;
#X obj 587 445 s dec.16;
#X obj 668 448 s r.null.16;
#X obj 750 449 s r.max.16;
#X obj 832 449 s r.norm.16;
#X obj 627 471 s r.stm.16;
#X obj 709 471 s r.go.16;
#X obj 791 471 s r.accel.16;
#X obj 873 471 s r.rst.16;
#X obj -1 -119 routeOSC /char /stm /null /go /max /accel /norm /rst
;
#X obj 20 -41 routeOSC /char /stm /null /go /max /accel /norm /rst
;
#X obj 43 35 routeOSC /char /stm /null /go /max /accel /norm /rst;
#X obj 64 113 routeOSC /char /stm /null /go /max /accel /norm /rst
;
#X obj 91 189 routeOSC /char /stm /null /go /max /accel /norm /rst
;
#X obj 112 267 routeOSC /char /stm /null /go /max /accel /norm /rst
;
#X obj 136 346 routeOSC /char /stm /null /go /max /accel /norm /rst
;
#X obj 157 424 routeOSC /char /stm /null /go /max /accel /norm /rst
;
#X obj 429 -119 routeOSC /char /stm /null /go /max /accel /norm /rst
;
#X obj 450 -41 routeOSC /char /stm /null /go /max /accel /norm /rst
;
#X obj 473 35 routeOSC /char /stm /null /go /max /accel /norm /rst
;
#X obj 494 113 routeOSC /char /stm /null /go /max /accel /norm /rst
;
#X obj 521 189 routeOSC /char /stm /null /go /max /accel /norm /rst
;
#X obj 542 267 routeOSC /char /stm /null /go /max /accel /norm /rst
;
#X obj 566 346 routeOSC /char /stm /null /go /max /accel /norm /rst
;
#X obj 587 424 routeOSC /char /stm /null /go /max /accel /norm /rst
;
#X obj 389 -59 bng 15 250 50 0 empty empty empty 17 7 0 10 -262144
-1 -1;
#X obj 398 -10 bng 15 250 50 0 empty empty empty 17 7 0 10 -262144
-1 -1;
#X obj 162 -94 s r.max.1;
#X obj 183 -16 s r.max.2;
#X obj 41 -150 bng 15 250 50 0 empty empty empty 17 7 0 10 -262144
-1 -1;
#X connect 0 0 1 0;
#X connect 1 0 130 0;
#X connect 1 1 131 0;
#X connect 1 2 132 0;
#X connect 1 3 133 0;
#X connect 1 4 134 0;
#X connect 1 5 135 0;
#X connect 1 6 136 0;
#X connect 1 7 137 0;
#X connect 1 8 138 0;
#X connect 1 9 139 0;
#X connect 1 10 140 0;
#X connect 1 11 141 0;
#X connect 1 12 142 0;
#X connect 1 13 143 0;
#X connect 1 14 144 0;
#X connect 1 15 145 0;
#X connect 130 0 2 0;
#X connect 130 1 4 0;
#X connect 130 1 150 0;
#X connect 130 2 3 0;
#X connect 130 3 9 0;
#X connect 130 4 146 0;
#X connect 130 4 148 0;
#X connect 130 5 5 0;
#X connect 130 6 6 0;
#X connect 130 7 7 0;
#X connect 131 0 11 0;
#X connect 131 1 12 0;
#X connect 131 2 13 0;
#X connect 131 3 14 0;
#X connect 131 4 147 0;
#X connect 131 4 149 0;
#X connect 131 5 15 0;
#X connect 131 6 16 0;
#X connect 131 7 17 0;
#X connect 132 0 18 0;
#X connect 132 1 19 0;
#X connect 132 2 20 0;
#X connect 132 3 21 0;
#X connect 132 4 22 0;
#X connect 132 5 23 0;
#X connect 132 6 24 0;
#X connect 132 7 25 0;
#X connect 133 0 26 0;
#X connect 133 1 33 0;
#X connect 133 2 27 0;
#X connect 133 3 32 0;
#X connect 133 4 28 0;
#X connect 133 5 31 0;
#X connect 133 6 29 0;
#X connect 133 7 30 0;
#X connect 134 0 34 0;
#X connect 134 1 41 0;
#X connect 134 2 35 0;
#X connect 134 3 40 0;
#X connect 134 4 36 0;
#X connect 134 5 39 0;
#X connect 134 6 37 0;
#X connect 134 7 38 0;
#X connect 135 0 42 0;
#X connect 135 1 46 0;
#X connect 135 2 43 0;
#X connect 135 3 47 0;
#X connect 135 4 44 0;
#X connect 135 5 48 0;
#X connect 135 6 45 0;
#X connect 135 7 49 0;
#X connect 136 0 50 0;
#X connect 136 1 51 0;
#X connect 136 2 52 0;
#X connect 136 3 53 0;
#X connect 136 4 54 0;
#X connect 136 5 55 0;
#X connect 136 6 56 0;
#X connect 136 7 57 0;
#X connect 137 0 58 0;
#X connect 137 1 59 0;
#X connect 137 2 60 0;
#X connect 137 3 61 0;
#X connect 137 4 62 0;
#X connect 137 5 63 0;
#X connect 137 6 64 0;
#X connect 137 7 65 0;
#X connect 138 0 66 0;
#X connect 138 1 70 0;
#X connect 138 2 67 0;
#X connect 138 3 71 0;
#X connect 138 4 68 0;
#X connect 138 5 72 0;
#X connect 138 6 69 0;
#X connect 138 7 73 0;
#X connect 139 0 74 0;
#X connect 139 1 78 0;
#X connect 139 2 75 0;
#X connect 139 3 79 0;
#X connect 139 4 76 0;
#X connect 139 5 80 0;
#X connect 139 6 77 0;
#X connect 139 7 81 0;
#X connect 140 0 82 0;
#X connect 140 1 86 0;
#X connect 140 2 83 0;
#X connect 140 3 87 0;
#X connect 140 4 84 0;
#X connect 140 5 88 0;
#X connect 140 6 85 0;
#X connect 140 7 89 0;
#X connect 141 0 90 0;
#X connect 141 1 94 0;
#X connect 141 2 91 0;
#X connect 141 3 95 0;
#X connect 141 4 92 0;
#X connect 141 5 96 0;
#X connect 141 6 93 0;
#X connect 141 7 97 0;
#X connect 142 0 98 0;
#X connect 142 1 102 0;
#X connect 142 2 99 0;
#X connect 142 3 103 0;
#X connect 142 4 100 0;
#X connect 142 5 104 0;
#X connect 142 6 101 0;
#X connect 142 7 105 0;
#X connect 143 0 106 0;
#X connect 143 1 110 0;
#X connect 143 2 107 0;
#X connect 143 3 111 0;
#X connect 143 4 108 0;
#X connect 143 5 112 0;
#X connect 143 6 109 0;
#X connect 143 7 113 0;
#X connect 144 0 114 0;
#X connect 144 1 118 0;
#X connect 144 2 115 0;
#X connect 144 3 119 0;
#X connect 144 4 116 0;
#X connect 144 5 120 0;
#X connect 144 6 117 0;
#X connect 144 7 121 0;
#X connect 145 0 122 0;
#X connect 145 1 126 0;
#X connect 145 2 123 0;
#X connect 145 3 127 0;
#X connect 145 4 124 0;
#X connect 145 5 128 0;
#X connect 145 6 125 0;
#X connect 145 7 129 0;
#X restore -81 -217 pd routeOSC-zu-each;
#X text -83 1 //oneshot;
#X obj -21 115 s toCOM;
#X msg -21 92 print 2A2B2C2D2E2F2G2H2J2I2K2L2M2N2O2P;
#X msg 222 -129 open 1;
#X obj -315 -190 routeOSC /satz /FBK /SRL /MS /NETZ /STM /NULL /PARKEN
/BLK /AKSEL /MAXI /NORM /RST /GO;
#X obj 64 -269 inlet;
#X msg 64 -245 ./dropbox_uploader.sh upload startx-buffer.pd STARTX/startx-buffer/startx-buffer.pd
;
#X obj 64 -212 shell;
#X obj 64 -195 print SHELL:;
#N canvas 284 390 794 343 /stm 0;
#X obj 33 25 inlet;
#X obj 37 79 routeOSC /1 /2 /3 /4 /5 /6 /7 /8 /9 /10 /11 /12 /13 /14
/15 /16 /0;
#X text 61 59 aus /stm;
#X obj 37 133 s r.stm.1;
#X obj 62 157 s r.stm. 2;
#X obj 93 182 s r.stm.3;
#X obj 116 131 s r.stm.4;
#X obj 141 155 s r.stm.5;
#X obj 172 180 s r.stm.6;
#X obj 192 131 s r.stm.7;
#X obj 217 155 s r.stm.8;
#X obj 248 180 s r.stm.9;
#X obj 271 129 s r.stm.10;
#X obj 296 153 s r.stm.11;
#X obj 327 178 s r.stm.12;
#X obj 345 129 s r.stm.13;
#X obj 370 153 s r.stm.14;
#X obj 401 178 s r.stm.15;
#X obj 424 127 s r.stm.16;
#X obj 456 152 s r.stm;
#X connect 0 0 1 0;
#X connect 1 0 3 0;
#X connect 1 1 4 0;
#X connect 1 2 5 0;
#X connect 1 3 6 0;
#X connect 1 4 7 0;
#X connect 1 5 8 0;
#X connect 1 6 9 0;
#X connect 1 7 10 0;
#X connect 1 8 11 0;
#X connect 1 9 12 0;
#X connect 1 10 13 0;
#X connect 1 11 14 0;
#X connect 1 12 15 0;
#X connect 1 13 16 0;
#X connect 1 14 17 0;
#X connect 1 15 18 0;
#X connect 1 16 19 0;
#X restore -194 -94 pd /stm;
#X obj -181 -229 print OSC:;
#X connect 1 0 5 0;
#X connect 2 0 71 0;
#X connect 2 1 4 0;
#X connect 2 1 7 0;
#X connect 4 0 1 0;
#X connect 5 0 34 0;
#X connect 6 0 2 0;
#X connect 6 0 18 0;
#X connect 9 0 5 0;
#X connect 10 0 11 0;
#X connect 11 0 5 0;
#X connect 12 0 11 0;
#X connect 12 0 15 0;
#X connect 13 0 10 0;
#X connect 13 0 16 0;
#X connect 15 0 14 0;
#X connect 16 0 14 0;
#X connect 17 0 14 0;
#X connect 18 0 14 0;
#X connect 20 0 14 0;
#X connect 21 0 22 0;
#X connect 22 0 14 0;
#X connect 23 0 24 0;
#X connect 24 0 14 0;
#X connect 25 0 66 0;
#X connect 25 0 78 0;
#X connect 34 0 35 0;
#X connect 35 0 3 0;
#X connect 35 0 20 0;
#X connect 35 1 0 0;
#X connect 36 0 37 0;
#X connect 38 0 39 0;
#X connect 40 0 25 0;
#X connect 40 1 58 0;
#X connect 41 0 42 0;
#X connect 41 1 43 0;
#X connect 41 2 44 0;
#X connect 41 3 45 0;
#X connect 41 4 46 0;
#X connect 41 5 47 0;
#X connect 41 6 48 0;
#X connect 41 7 49 0;
#X connect 41 8 50 0;
#X connect 41 9 51 0;
#X connect 41 10 52 0;
#X connect 41 11 53 0;
#X connect 41 12 54 0;
#X connect 41 13 55 0;
#X connect 41 14 56 0;
#X connect 41 15 57 0;
#X connect 59 0 63 0;
#X connect 66 0 72 0;
#X connect 66 1 67 0;
#X connect 70 0 69 0;
#X connect 71 0 5 0;
#X connect 72 0 41 0;
#X connect 72 1 26 0;
#X connect 72 2 27 0;
#X connect 72 3 29 0;
#X connect 72 4 30 0;
#X connect 72 5 31 0;
#X connect 72 5 77 0;
#X connect 72 6 28 0;
#X connect 72 7 36 0;
#X connect 72 8 38 0;
#X connect 72 9 60 0;
#X connect 72 10 64 0;
#X connect 72 11 61 0;
#X connect 72 12 59 0;
#X connect 72 13 70 0;
#X connect 73 0 74 0;
#X connect 74 0 75 0;
#X connect 75 0 76 0;
#X restore -816 -1600 pd konnekt;
#X obj -840 -1615 bng 15 250 50 0 empty empty empty 17 7 0 10 -262144
-1 -1;
#X text -820 -1619 //upsync;
#X text -842 -1316 //dec \; ascii decimal;
#X text -821 -1387 //noch to go?;
#X text -630 -1315 //ABS \; absolute pos;
#X obj -462 -1397 r toCOM;
#X msg -700 -1566 127;
#X obj -466 -1367 print toCOM:;
#X connect 4 0 5 0;
#X connect 5 0 2 0;
#X connect 5 0 3 0;
#X connect 5 0 49 0;
#X connect 43 0 14 0;
#X connect 43 1 13 0;
#X connect 43 2 12 0;
#X connect 43 3 11 0;
#X connect 43 4 10 0;
#X connect 43 5 9 0;
#X connect 43 6 8 0;
#X connect 43 7 7 0;
#X connect 43 8 22 0;
#X connect 43 9 21 0;
#X connect 43 10 20 0;
#X connect 43 11 19 0;
#X connect 43 12 18 0;
#X connect 43 13 17 0;
#X connect 43 14 16 0;
#X connect 43 15 15 0;
#X connect 92 0 87 0;
#X connect 92 1 88 0;
#X connect 92 2 89 0;
#X connect 92 3 90 0;
#X connect 92 4 91 0;
#X connect 98 0 93 0;
#X connect 98 1 94 0;
#X connect 98 2 92 0;
#X connect 135 0 41 0;
#X connect 140 0 139 0;
#X connect 143 0 23 0;
#X connect 143 1 24 0;
#X connect 143 2 25 0;
#X connect 143 3 26 0;
#X connect 143 4 27 0;
#X connect 143 5 28 0;
#X connect 143 6 29 0;
#X connect 143 7 30 0;
#X connect 143 8 31 0;
#X connect 143 9 32 0;
#X connect 143 10 33 0;
#X connect 143 11 34 0;
#X connect 143 12 35 0;
#X connect 143 13 36 0;
#X connect 143 14 37 0;
#X connect 143 15 38 0;
#X connect 175 0 98 0;
#X connect 176 0 175 0;
#X connect 181 0 183 0;
