#N canvas 283 108 526 572 10;
#X declare -lib mrpeach;
#X obj -732 -1710 cnv 15 95 85 empty empty empty 20 12 0 14 -262130
-66577 0;
#X obj -693 -1705 vradio 11 1 0 2 s.netz r.netz netz 0 28 0 8 -4032
-1 -1 0;
#X obj -729 -1705 vradio 11 1 0 2 s.srl r.srl srl 0 28 0 8 -191407
-1 -1 0;
#X obj -711 -1705 vradio 11 1 0 2 s.ms r.ms ms 0 28 0 8 -191407 -1
-1 1;
#X obj -601 -1728 loadbang;
#X msg -628 -1728 1;
#X obj -628 -1710 cnv 15 205 105 empty empty empty 20 12 0 14 -262130
-66577 0;
#X obj -526 -1670 vradio 11 1 0 2 s.null.8 r.null.8 8 0 28 0 8 -232576
-1 -1 0;
#X obj -537 -1670 vradio 11 1 0 2 s.null.7 r.null.7 7 0 28 0 8 -232576
-1 -1 0;
#X obj -548 -1670 vradio 11 1 0 2 s.null.6 r.null.6 6 0 28 0 8 -232576
-1 -1 0;
#X obj -559 -1670 vradio 11 1 0 2 s.null.5 r.null.5 5 0 28 0 8 -232576
-1 -1 0;
#X obj -570 -1670 vradio 11 1 0 2 s.null.4 r.null.4 4 0 28 0 8 -232576
-1 -1 0;
#X obj -581 -1670 vradio 11 1 0 2 s.null.3 r.null.3 3 0 28 0 8 -232576
-1 -1 0;
#X obj -592 -1670 vradio 11 1 0 2 s.null.2 r.null.2 2 0 28 0 8 -232576
-1 -1 0;
#X obj -603 -1670 vradio 11 1 0 2 s.null.1 r.null.1 1 0 28 0 8 -232576
-1 -1 0;
#X obj -438 -1670 vradio 11 1 0 2 s.null.16 r.null.16 16 0 28 0 8 -261682
-1 -1 0;
#X obj -449 -1670 vradio 11 1 0 2 s.null.15 r.null.15 15 0 28 0 8 -261682
-1 -1 0;
#X obj -460 -1670 vradio 11 1 0 2 s.null.14 r.null.14 14 0 28 0 8 -261682
-1 -1 0;
#X obj -471 -1670 vradio 11 1 0 2 s.null.13 r.null.13 13 0 28 0 8 -261682
-1 -1 0;
#X obj -482 -1670 vradio 11 1 0 2 s.null.12 r.null.12 12 0 28 0 8 -261682
-1 -1 0;
#X obj -493 -1670 vradio 11 1 0 2 s.null.11 r.null.11 11 0 28 0 8 -261682
-1 -1 0;
#X obj -504 -1670 vradio 11 1 0 2 s.null.10 r.null.10 10 0 28 0 8 -261682
-1 -1 0;
#X obj -515 -1670 vradio 11 1 0 2 s.null.9 r.null.9 9 0 28 0 8 -261682
-1 -1 0;
#X obj -603 -1705 vradio 11 1 0 2 s.stm.1 r.stm.1 1 0 28 0 8 -232576
-1 -1 0;
#X obj -591 -1705 vradio 11 1 0 2 s.stm.2 r.stm.2 2 0 28 0 8 -232576
-1 -1 0;
#X obj -581 -1705 vradio 11 1 0 2 s.stm.3 r.stm3 3 0 28 0 8 -232576
-1 -1 0;
#X obj -570 -1705 vradio 11 1 0 2 s.stm.4 r.stm.4 4 0 28 0 8 -232576
-1 -1 0;
#X obj -559 -1705 vradio 11 1 0 2 s.stm.5 r.stm.5 5 0 28 0 8 -232576
-1 -1 0;
#X obj -548 -1705 vradio 11 1 0 2 s.stm.6 r.stm.6 6 0 28 0 8 -232576
-1 -1 0;
#X obj -537 -1705 vradio 11 1 0 2 s.stm.7 r.stm.7 7 0 28 0 8 -232576
-1 -1 0;
#X obj -526 -1705 vradio 11 1 0 2 s.stm.8 r.stm.8 8 0 28 0 8 -232576
-1 -1 0;
#X obj -515 -1705 vradio 11 1 0 2 s.stm.9 r.stm.9 9 0 28 0 8 -261682
-1 -1 0;
#X obj -504 -1705 vradio 11 1 0 2 s.stm.10 r.stm.10 10 0 28 0 8 -261682
-1 -1 0;
#X obj -493 -1705 vradio 11 1 0 2 s.stm.11 r.stm.11 11 0 28 0 8 -261682
-1 -1 0;
#X obj -482 -1705 vradio 11 1 0 2 s.stm.12 r.stm.12 12 0 28 0 8 -261682
-1 -1 0;
#X obj -471 -1705 vradio 11 1 0 2 s.stm.13 r.stm.13 13 0 28 0 8 -261682
-1 -1 0;
#X obj -460 -1705 vradio 11 1 0 2 s.stm.14 r.stm.14 14 0 28 0 8 -261682
-1 -1 0;
#X obj -449 -1705 vradio 11 1 0 2 s.stm.15 r.stm.15 15 0 28 0 8 -261682
-1 -1 0;
#X obj -438 -1705 vradio 11 1 0 2 s.stm.16 r.stm.16 16 0 28 0 8 -261682
-1 -1 0;
#X obj -625 -1670 vradio 11 1 0 2 s.null r.null null 0 28 0 8 -4032
-1 -1 0;
#X obj -625 -1705 vradio 11 1 0 2 s.stm r.stm stm 0 28 0 8 -4032 -1
-1 0;
#X floatatom -679 -1666 5 0 0 0 - - s.nullindi;
#N canvas 171 96 672 518 n.del 0;
#X obj -59 185 outlet;
#X obj -92 151 select 1 0;
#X msg -59 168 1;
#X obj -10 185 outlet;
#X msg -10 168 1;
#X obj 39 185 outlet;
#X msg 39 168 1;
#X obj 88 185 outlet;
#X msg 88 168 1;
#X obj 138 185 outlet;
#X msg 138 168 1;
#X obj 186 185 outlet;
#X msg 186 168 1;
#X obj 235 185 outlet;
#X msg 235 168 1;
#X obj 284 185 outlet;
#X msg 284 168 1;
#X obj 334 185 outlet;
#X msg 334 168 1;
#X obj 385 185 outlet;
#X msg 385 168 1;
#X obj 434 185 outlet;
#X msg 434 168 1;
#X obj 482 185 outlet;
#X msg 482 168 1;
#X obj 532 185 outlet;
#X msg 532 168 1;
#X obj 584 185 outlet;
#X msg 584 168 1;
#X obj 635 185 outlet;
#X msg 635 168 1;
#X obj 686 185 outlet;
#X msg 687 168 1;
#X obj 738 185 outlet;
#X msg 738 168 1;
#X obj 789 185 outlet;
#X msg 789 168 1;
#X obj 840 185 outlet;
#X msg 840 168 1;
#X obj 889 185 outlet;
#X msg 889 168 1;
#X obj -25 -198 delay 500;
#X obj -59 -215 delay 500;
#X obj -59 -236 t b b;
#X obj 5 -181 delay 500;
#X obj 40 -164 delay 500;
#X obj 74 -147 delay 500;
#X obj 108 -130 delay 500;
#X obj 145 -113 delay 500;
#X obj 182 -96 delay 500;
#X obj 216 -79 delay 500;
#X obj 284 -45 delay 500;
#X obj 253 -62 delay 500;
#X obj 322 -28 delay 500;
#X obj 356 -11 delay 500;
#X obj 390 6 delay 500;
#X obj 427 23 delay 500;
#X obj 461 40 delay 500;
#X obj 496 57 delay 500;
#X obj 533 74 delay 500;
#X obj 570 91 delay 500;
#X obj 613 108 delay 500;
#X text 98 -234 //kontrol delay gap;
#X msg -59 -200 0;
#X msg -25 -181 0;
#X msg 40 -147 0;
#X msg 5 -164 0;
#X msg 74 -130 0;
#X msg 108 -113 0;
#X msg 145 -96 0;
#X msg 216 -62 0;
#X msg 253 -45 0;
#X msg 284 -30 0;
#X msg 182 -81 0;
#X msg 322 -13 0;
#X msg 356 4 0;
#X msg 390 21 0;
#X msg 427 38 0;
#X msg 497 78 0;
#X msg 461 55 0;
#X msg 533 89 0;
#X msg 570 108 0;
#X msg 613 125 0;
#X msg 66 -232 100;
#X msg -92 168 0;
#X text -64 -256 delay aus;
#X text -93 204 //einfach oneshot aus;
#X obj -90 109 r s.null;
#X connect 1 0 2 0;
#X connect 1 0 4 0;
#X connect 1 0 6 0;
#X connect 1 0 8 0;
#X connect 1 0 10 0;
#X connect 1 0 12 0;
#X connect 1 0 14 0;
#X connect 1 0 16 0;
#X connect 1 0 18 0;
#X connect 1 0 20 0;
#X connect 1 0 22 0;
#X connect 1 0 24 0;
#X connect 1 0 26 0;
#X connect 1 0 28 0;
#X connect 1 0 30 0;
#X connect 1 0 32 0;
#X connect 1 0 34 0;
#X connect 1 0 36 0;
#X connect 1 0 38 0;
#X connect 1 0 40 0;
#X connect 1 1 84 0;
#X connect 2 0 0 0;
#X connect 4 0 3 0;
#X connect 6 0 5 0;
#X connect 8 0 7 0;
#X connect 10 0 9 0;
#X connect 12 0 11 0;
#X connect 14 0 13 0;
#X connect 16 0 15 0;
#X connect 18 0 17 0;
#X connect 20 0 19 0;
#X connect 22 0 21 0;
#X connect 24 0 23 0;
#X connect 26 0 25 0;
#X connect 28 0 27 0;
#X connect 30 0 29 0;
#X connect 32 0 31 0;
#X connect 34 0 33 0;
#X connect 36 0 35 0;
#X connect 38 0 37 0;
#X connect 40 0 39 0;
#X connect 41 0 44 0;
#X connect 41 0 64 0;
#X connect 42 0 41 0;
#X connect 42 0 63 0;
#X connect 43 0 42 0;
#X connect 43 1 83 0;
#X connect 44 0 45 0;
#X connect 44 0 66 0;
#X connect 45 0 46 0;
#X connect 45 0 65 0;
#X connect 46 0 47 0;
#X connect 46 0 67 0;
#X connect 47 0 48 0;
#X connect 47 0 68 0;
#X connect 48 0 49 0;
#X connect 48 0 69 0;
#X connect 49 0 50 0;
#X connect 49 0 73 0;
#X connect 50 0 52 0;
#X connect 50 0 70 0;
#X connect 51 0 53 0;
#X connect 51 0 72 0;
#X connect 52 0 51 0;
#X connect 52 0 71 0;
#X connect 53 0 54 0;
#X connect 53 0 74 0;
#X connect 54 0 55 0;
#X connect 54 0 75 0;
#X connect 55 0 56 0;
#X connect 55 0 76 0;
#X connect 56 0 57 0;
#X connect 56 0 77 0;
#X connect 57 0 58 0;
#X connect 57 0 79 0;
#X connect 58 0 59 0;
#X connect 58 0 78 0;
#X connect 59 0 60 0;
#X connect 59 0 80 0;
#X connect 60 0 61 0;
#X connect 60 0 81 0;
#X connect 61 0 82 0;
#X connect 63 0 0 0;
#X connect 64 0 3 0;
#X connect 65 0 7 0;
#X connect 66 0 5 0;
#X connect 67 0 9 0;
#X connect 68 0 11 0;
#X connect 69 0 13 0;
#X connect 70 0 17 0;
#X connect 71 0 19 0;
#X connect 72 0 21 0;
#X connect 73 0 15 0;
#X connect 74 0 23 0;
#X connect 75 0 25 0;
#X connect 76 0 27 0;
#X connect 77 0 29 0;
#X connect 78 0 33 0;
#X connect 79 0 31 0;
#X connect 80 0 35 0;
#X connect 81 0 37 0;
#X connect 82 0 39 0;
#X connect 83 0 42 1;
#X connect 83 0 41 1;
#X connect 83 0 44 1;
#X connect 83 0 45 1;
#X connect 83 0 46 1;
#X connect 83 0 47 1;
#X connect 83 0 48 1;
#X connect 83 0 49 1;
#X connect 83 0 50 1;
#X connect 83 0 52 1;
#X connect 83 0 51 1;
#X connect 83 0 53 1;
#X connect 83 0 54 1;
#X connect 83 0 55 1;
#X connect 83 0 56 1;
#X connect 83 0 57 1;
#X connect 83 0 58 1;
#X connect 83 0 59 1;
#X connect 83 0 60 1;
#X connect 83 0 61 1;
#X connect 84 0 0 0;
#X connect 84 0 3 0;
#X connect 84 0 5 0;
#X connect 84 0 7 0;
#X connect 84 0 9 0;
#X connect 84 0 11 0;
#X connect 84 0 13 0;
#X connect 84 0 15 0;
#X connect 84 0 17 0;
#X connect 84 0 19 0;
#X connect 84 0 21 0;
#X connect 84 0 23 0;
#X connect 84 0 25 0;
#X connect 84 0 27 0;
#X connect 84 0 29 0;
#X connect 84 0 31 0;
#X connect 84 0 33 0;
#X connect 84 0 35 0;
#X connect 84 0 37 0;
#X connect 84 0 39 0;
#X connect 87 0 1 0;
#X restore -422 -1687 pd n.del;
#X obj -546 -1728 declare -lib mrpeach;
#X obj -730 -1641 bng 15 250 50 0 s.alle.park r.alle.park parke_alle
0 20 0 8 -262144 -1 -1;
#N canvas 830 186 387 193 SCHEMA 0;
#X text -834 -831 .d .p .u .e .. .k .s .b .[ .];
#X msg -707 -981 /r;
#X msg -707 -964 \$1/a;
#X msg -707 -947 \$1/n;
#X msg -707 -930 \$1/m;
#X text -675 -982 rst;
#X msg -831 -982 .N;
#X msg -801 -982 .n;
#X msg -831 -948 N;
#X msg -801 -948 n;
#X msg -831 -965 S;
#X msg -801 -965 s;
#X text -775 -966 stm;
#X text -774 -949 netz;
#X text -675 -965 accel/2500;
#X text -675 -948 normSpd/1500;
#X text -673 -931 maxSpd/5000;
#X text -775 -983 null.a&p;
#X text -832 -895 SWZ(..) ! " # $ % & ' ( ) * + \, (.k) - . / /0 /1
/2 /3 /4 /5 /6 /7 /8 /9 : \; (.s) < = > ? @ ABCDEFGHIJKLMNOPQRSTUVWXYZ
[ B/(.b) ] ^ _ ` abcdefghijklmnopqrstuvwxyz .[ | .] ~ SWZ-WEI(.d) PARK(.p)
WEI(.u) .e???;
#X restore -422 -1613 pd SCHEMA;
#X obj -853 -1731 cnv 15 200 20 empty empty STARTX-BUFFER_dvnmk_2015
20 12 0 10 -159808 -66577 0;
#X floatatom -484 -1507 3 0 0 0 - - -;
#X floatatom -461 -1507 3 0 0 0 - - -;
#X floatatom -438 -1507 3 0 0 0 - - -;
#X floatatom -415 -1507 3 0 0 0 - - -;
#X floatatom -391 -1506 5 0 0 0 - - -;
#X obj -484 -1524 unpack 0 0 0 0 0;
#X floatatom -582 -1566 4 0 0 3 - - -;
#X floatatom -533 -1547 4 0 0 3 - - -;
#X text -505 -1547 total bytes received:;
#X text -519 -1508 from:;
#X text -555 -1566 bytes received:;
#X obj -582 -1583 route received total from;
#X symbolatom -844 -1550 2 0 0 0 - sym.1 -;
#X symbolatom -828 -1550 2 0 0 0 - sym.2 -;
#X symbolatom -811 -1550 2 0 0 0 - sym.3 -;
#X symbolatom -795 -1550 2 0 0 0 - sym.4 -;
#X symbolatom -779 -1550 2 0 0 0 - sym.5 -;
#X symbolatom -763 -1550 2 0 0 0 - sym.6 -;
#X symbolatom -746 -1550 2 0 0 0 - sym.7 -;
#X symbolatom -730 -1550 2 0 0 0 - sym.8 -;
#X symbolatom -844 -1530 2 0 0 0 - sym.9 -;
#X symbolatom -828 -1530 2 0 0 0 - sym.10 -;
#X symbolatom -811 -1530 2 0 0 0 - sym.11 -;
#X symbolatom -795 -1530 2 0 0 0 - sym.12 -;
#X symbolatom -779 -1530 2 0 0 0 - sym.13 -;
#X symbolatom -763 -1530 2 0 0 0 - sym.14 -;
#X symbolatom -746 -1530 2 0 0 0 - sym.15 -;
#X symbolatom -730 -1530 2 0 0 0 - sym.16 -;
#X floatatom -807 -1485 5 0 0 0 - v.max.1 -;
#X text -810 -1505 //maxi;
#X floatatom -772 -1485 5 0 0 0 - v.max.2 -;
#X floatatom -737 -1485 5 0 0 0 - v.max.3 -;
#X floatatom -702 -1485 5 0 0 0 - v.max.4 -;
#X floatatom -667 -1485 5 0 0 0 - v.max.5 -;
#X floatatom -632 -1485 5 0 0 0 - v.max.6 -;
#X floatatom -597 -1485 5 0 0 0 - v.max.7 -;
#X floatatom -562 -1485 5 0 0 0 - v.max.8 -;
#X floatatom -807 -1465 5 0 0 0 - v.max.9 -;
#X floatatom -772 -1465 5 0 0 0 - v.max.10 -;
#X floatatom -737 -1465 5 0 0 0 - v.max.11 -;
#X floatatom -702 -1465 5 0 0 0 - v.max.12 -;
#X floatatom -667 -1465 5 0 0 0 - v.max.13 -;
#X floatatom -632 -1465 5 0 0 0 - v.max.14 -;
#X floatatom -597 -1465 5 0 0 0 - v.max.15 -;
#X floatatom -562 -1465 5 0 0 0 - v.max.16 -;
#X text -810 -1448 //aksel;
#N canvas 0 39 1016 559 null-check 0;
#X obj 78 -197 r ausCOM;
#X msg 77 -94 /nullf/1 1A;
#X msg 168 -94 /nullf/2 2B;
#X msg 258 -94 /nullf/3 3C;
#X msg 348 -94 /nullf/4 4D;
#X msg 437 -94 /nullf/5 5E;
#X msg 527 -94 /nullf/6 6F;
#X msg 616 -94 /nullf/7 7G;
#X msg 709 -94 /nullf/8 8H;
#X msg 76 -22 /nullf/9 9I;
#X msg 166 -22 /nullf/10 10J;
#X msg 267 -22 /nullf/11 11K;
#X msg 369 -22 /nullf/12 12L;
#X msg 471 -22 /nullf/13 13M;
#X msg 573 -22 /nullf/14 14N;
#X msg 676 -22 /nullf/15 15O;
#X msg 779 -22 /nullf/16 16P;
#X msg 77 -77 0;
#X msg 168 -77 0;
#X obj 78 -176 route symbol;
#X obj 813 -175 select 1 0;
#X obj 78 -147 select a1 b1 c1 d1 e1 f1 g1 h1 i1 j1 k1 l1 m1 n1 o1
p1;
#X obj 820 -77 s toOSC;
#X obj 77 -60 s r.null.1;
#X msg 258 -77 0;
#X msg 348 -77 0;
#X msg 527 -77 0;
#X msg 616 -77 0;
#X msg 709 -77 0;
#X msg 437 -77 0;
#X msg 76 -5 0;
#X msg 167 -5 0;
#X msg 267 -5 0;
#X msg 369 -5 0;
#X msg 573 -5 0;
#X msg 676 -5 0;
#X msg 472 -5 0;
#X obj 168 -60 s r.null.2;
#X obj 257 -60 s r.null.3;
#X obj 348 -60 s r.null.4;
#X obj 437 -60 s r.null.5;
#X obj 527 -60 s r.null.6;
#X obj 616 -60 s r.null.7;
#X obj 709 -60 s r.null.8;
#X obj 76 12 s r.null.9;
#X obj 167 12 s r.null.10;
#X obj 267 12 s r.null.11;
#X obj 369 12 s r.null.12;
#X obj 472 12 s r.null.13;
#X obj 573 12 s r.null.14;
#X obj 676 12 s r.null.15;
#X msg 779 -5 0;
#X obj 779 12 s r.null.16;
#X text 866 -140 //reset;
#X obj 929 -170 r s.null;
#X obj 193 77 s null.1;
#X obj 784 -130 counter;
#X obj 951 -94 outlet;
#X msg 878 -94 /NULL \$1;
#X obj 253 77 s null.2;
#X obj 313 77 s null.3;
#X obj 373 77 s null.4;
#X obj 433 77 s null.5;
#X obj 493 77 s null.6;
#X obj 553 77 s null.7;
#X obj 613 77 s null.8;
#X obj 203 97 s null.9;
#X obj 263 97 s null.10;
#X obj 330 97 s null.11;
#X obj 397 97 s null.12;
#X obj 464 97 s null.13;
#X obj 531 97 s null.14;
#X obj 598 97 s null.15;
#X obj 665 97 s null.16;
#X text 690 74 //fuer abs.stp.null.korrigie;
#X obj 14 159 r null.1;
#X obj 14 202 s sym.1;
#X text 763 244 // when null ok > symbol display;
#N canvas 144 222 199 181 symbol-null 0;
#X msg 53 67 216;
#X obj 52 42 inlet;
#X obj 54 95 makefilename %c;
#X obj 52 124 outlet;
#X connect 0 0 2 0;
#X connect 1 0 0 0;
#X connect 2 0 3 0;
#X restore 14 181 pd symbol-null;
#N canvas 144 222 199 181 symbol-null 0;
#X msg 53 67 216;
#X obj 52 42 inlet;
#X obj 54 95 makefilename %c;
#X obj 52 124 outlet;
#X connect 0 0 2 0;
#X connect 1 0 0 0;
#X connect 2 0 3 0;
#X restore 105 181 pd symbol-null;
#X obj 105 159 r null.2;
#X obj 105 202 s sym.2;
#N canvas 144 222 199 181 symbol-null 0;
#X msg 53 67 216;
#X obj 52 42 inlet;
#X obj 54 95 makefilename %c;
#X obj 52 124 outlet;
#X connect 0 0 2 0;
#X connect 1 0 0 0;
#X connect 2 0 3 0;
#X restore 197 181 pd symbol-null;
#N canvas 144 222 199 181 symbol-null 0;
#X msg 53 67 216;
#X obj 52 42 inlet;
#X obj 54 95 makefilename %c;
#X obj 52 124 outlet;
#X connect 0 0 2 0;
#X connect 1 0 0 0;
#X connect 2 0 3 0;
#X restore 288 181 pd symbol-null;
#N canvas 144 222 199 181 symbol-null 0;
#X msg 53 67 216;
#X obj 52 42 inlet;
#X obj 54 95 makefilename %c;
#X obj 52 124 outlet;
#X connect 0 0 2 0;
#X connect 1 0 0 0;
#X connect 2 0 3 0;
#X restore 381 181 pd symbol-null;
#N canvas 144 222 199 181 symbol-null 0;
#X msg 53 67 216;
#X obj 52 42 inlet;
#X obj 54 95 makefilename %c;
#X obj 52 124 outlet;
#X connect 0 0 2 0;
#X connect 1 0 0 0;
#X connect 2 0 3 0;
#X restore 472 181 pd symbol-null;
#N canvas 144 222 199 181 symbol-null 0;
#X msg 53 67 216;
#X obj 52 42 inlet;
#X obj 54 95 makefilename %c;
#X obj 52 124 outlet;
#X connect 0 0 2 0;
#X connect 1 0 0 0;
#X connect 2 0 3 0;
#X restore 564 181 pd symbol-null;
#N canvas 469 66 199 181 symbol-null 0;
#X msg 53 67 216;
#X obj 52 42 inlet;
#X obj 54 95 makefilename %c;
#X obj 52 124 outlet;
#X connect 0 0 2 0;
#X connect 1 0 0 0;
#X connect 2 0 3 0;
#X restore 655 181 pd symbol-null;
#N canvas 144 222 199 181 symbol-null 0;
#X msg 53 67 216;
#X obj 52 42 inlet;
#X obj 54 95 makefilename %c;
#X obj 52 124 outlet;
#X connect 0 0 2 0;
#X connect 1 0 0 0;
#X connect 2 0 3 0;
#X restore 14 251 pd symbol-null;
#N canvas 144 222 199 181 symbol-null 0;
#X msg 53 67 216;
#X obj 52 42 inlet;
#X obj 54 95 makefilename %c;
#X obj 52 124 outlet;
#X connect 0 0 2 0;
#X connect 1 0 0 0;
#X connect 2 0 3 0;
#X restore 105 251 pd symbol-null;
#N canvas 144 222 199 181 symbol-null 0;
#X msg 53 67 216;
#X obj 52 42 inlet;
#X obj 54 95 makefilename %c;
#X obj 52 124 outlet;
#X connect 0 0 2 0;
#X connect 1 0 0 0;
#X connect 2 0 3 0;
#X restore 197 251 pd symbol-null;
#N canvas 144 222 199 181 symbol-null 0;
#X msg 53 67 216;
#X obj 52 42 inlet;
#X obj 54 95 makefilename %c;
#X obj 52 124 outlet;
#X connect 0 0 2 0;
#X connect 1 0 0 0;
#X connect 2 0 3 0;
#X restore 288 251 pd symbol-null;
#N canvas 144 222 199 181 symbol-null 0;
#X msg 53 67 216;
#X obj 52 42 inlet;
#X obj 54 95 makefilename %c;
#X obj 52 124 outlet;
#X connect 0 0 2 0;
#X connect 1 0 0 0;
#X connect 2 0 3 0;
#X restore 381 251 pd symbol-null;
#N canvas 144 222 199 181 symbol-null 0;
#X msg 53 67 216;
#X obj 52 42 inlet;
#X obj 54 95 makefilename %c;
#X obj 52 124 outlet;
#X connect 0 0 2 0;
#X connect 1 0 0 0;
#X connect 2 0 3 0;
#X restore 472 251 pd symbol-null;
#N canvas 144 222 199 181 symbol-null 0;
#X msg 53 67 216;
#X obj 52 42 inlet;
#X obj 54 95 makefilename %c;
#X obj 52 124 outlet;
#X connect 0 0 2 0;
#X connect 1 0 0 0;
#X connect 2 0 3 0;
#X restore 564 251 pd symbol-null;
#N canvas 144 222 199 181 symbol-null 0;
#X msg 53 67 216;
#X obj 52 42 inlet;
#X obj 54 95 makefilename %c;
#X obj 52 124 outlet;
#X connect 0 0 2 0;
#X connect 1 0 0 0;
#X connect 2 0 3 0;
#X restore 655 251 pd symbol-null;
#X obj 197 159 r null.3;
#X obj 197 202 s sym.3;
#X obj 288 159 r null.4;
#X obj 288 202 s sym.4;
#X obj 381 159 r null.5;
#X obj 381 202 s sym.5;
#X obj 472 159 r null.6;
#X obj 472 202 s sym.6;
#X obj 564 159 r null.7;
#X obj 564 202 s sym.7;
#X obj 655 159 r null.8;
#X obj 655 202 s sym.8;
#X obj 14 229 r null.9;
#X obj 14 272 s sym.9;
#X obj 105 272 s sym.10;
#X obj 105 229 r null.10;
#X obj 197 229 r null.11;
#X obj 197 272 s sym.11;
#X obj 288 229 r null.12;
#X obj 288 272 s sym.12;
#X obj 381 229 r null.13;
#X obj 381 272 s sym.13;
#X obj 472 229 r null.14;
#X obj 472 272 s sym.14;
#X obj 564 229 r null.15;
#X obj 564 272 s sym.15;
#X obj 655 229 r null.16;
#X obj 655 272 s sym.16;
#X connect 0 0 19 0;
#X connect 1 0 22 0;
#X connect 2 0 22 0;
#X connect 3 0 22 0;
#X connect 4 0 22 0;
#X connect 5 0 22 0;
#X connect 6 0 22 0;
#X connect 7 0 22 0;
#X connect 8 0 22 0;
#X connect 9 0 22 0;
#X connect 10 0 22 0;
#X connect 11 0 22 0;
#X connect 12 0 22 0;
#X connect 13 0 22 0;
#X connect 14 0 22 0;
#X connect 15 0 22 0;
#X connect 16 0 22 0;
#X connect 17 0 23 0;
#X connect 18 0 37 0;
#X connect 19 0 21 0;
#X connect 20 0 56 3;
#X connect 21 0 1 0;
#X connect 21 0 17 0;
#X connect 21 0 55 0;
#X connect 21 0 56 0;
#X connect 21 1 2 0;
#X connect 21 1 18 0;
#X connect 21 1 59 0;
#X connect 21 1 56 0;
#X connect 21 2 3 0;
#X connect 21 2 24 0;
#X connect 21 2 60 0;
#X connect 21 2 56 0;
#X connect 21 3 4 0;
#X connect 21 3 25 0;
#X connect 21 3 61 0;
#X connect 21 3 56 0;
#X connect 21 4 5 0;
#X connect 21 4 29 0;
#X connect 21 4 62 0;
#X connect 21 4 56 0;
#X connect 21 5 6 0;
#X connect 21 5 26 0;
#X connect 21 5 63 0;
#X connect 21 5 56 0;
#X connect 21 6 7 0;
#X connect 21 6 27 0;
#X connect 21 6 64 0;
#X connect 21 6 56 0;
#X connect 21 7 8 0;
#X connect 21 7 28 0;
#X connect 21 7 65 0;
#X connect 21 7 56 0;
#X connect 21 8 9 0;
#X connect 21 8 30 0;
#X connect 21 8 66 0;
#X connect 21 8 56 0;
#X connect 21 9 10 0;
#X connect 21 9 31 0;
#X connect 21 9 67 0;
#X connect 21 9 56 0;
#X connect 21 10 11 0;
#X connect 21 10 32 0;
#X connect 21 10 68 0;
#X connect 21 10 56 0;
#X connect 21 11 12 0;
#X connect 21 11 33 0;
#X connect 21 11 69 0;
#X connect 21 11 56 0;
#X connect 21 12 13 0;
#X connect 21 12 36 0;
#X connect 21 12 70 0;
#X connect 21 12 56 0;
#X connect 21 13 14 0;
#X connect 21 13 34 0;
#X connect 21 13 71 0;
#X connect 21 13 56 0;
#X connect 21 14 15 0;
#X connect 21 14 35 0;
#X connect 21 14 72 0;
#X connect 21 14 56 0;
#X connect 21 15 16 0;
#X connect 21 15 51 0;
#X connect 21 15 73 0;
#X connect 21 15 56 0;
#X connect 24 0 38 0;
#X connect 25 0 39 0;
#X connect 26 0 41 0;
#X connect 27 0 42 0;
#X connect 28 0 43 0;
#X connect 29 0 40 0;
#X connect 30 0 44 0;
#X connect 31 0 45 0;
#X connect 32 0 46 0;
#X connect 33 0 47 0;
#X connect 34 0 49 0;
#X connect 35 0 50 0;
#X connect 36 0 48 0;
#X connect 51 0 52 0;
#X connect 54 0 20 0;
#X connect 56 0 57 0;
#X connect 56 0 58 0;
#X connect 58 0 22 0;
#X connect 75 0 78 0;
#X connect 78 0 76 0;
#X connect 79 0 81 0;
#X connect 80 0 79 0;
#X connect 82 0 97 0;
#X connect 83 0 99 0;
#X connect 84 0 101 0;
#X connect 85 0 103 0;
#X connect 86 0 105 0;
#X connect 87 0 107 0;
#X connect 88 0 109 0;
#X connect 89 0 110 0;
#X connect 90 0 113 0;
#X connect 91 0 115 0;
#X connect 92 0 117 0;
#X connect 93 0 119 0;
#X connect 94 0 121 0;
#X connect 95 0 123 0;
#X connect 96 0 82 0;
#X connect 98 0 83 0;
#X connect 100 0 84 0;
#X connect 102 0 85 0;
#X connect 104 0 86 0;
#X connect 106 0 87 0;
#X connect 108 0 88 0;
#X connect 111 0 89 0;
#X connect 112 0 90 0;
#X connect 114 0 91 0;
#X connect 116 0 92 0;
#X connect 118 0 93 0;
#X connect 120 0 94 0;
#X connect 122 0 95 0;
#X restore -823 -1682 pd null-check;
#X floatatom -845 -1445 5 0 0 0 - accel.alle -;
#X floatatom -844 -1506 5 0 0 0 - max.alle -;
#N canvas 601 139 1286 575 stm.delay 0;
#X obj 13 456 outlet;
#X obj 113 55 t b b;
#X text 20 83 //kontrol delay gap;
#X obj 113 33 select 1 0;
#X msg 92 146 1;
#X obj 66 456 outlet;
#X msg 135 156 1;
#X obj 116 456 outlet;
#X msg 175 176 1;
#X obj 166 456 outlet;
#X msg 215 186 1;
#X obj 212 456 outlet;
#X msg 251 206 1;
#X obj 266 456 outlet;
#X msg 285 216 1;
#X obj 315 456 outlet;
#X msg 324 236 1;
#X obj 367 456 outlet;
#X msg 356 246 1;
#X obj 421 456 outlet;
#X msg 390 266 1;
#X obj 474 456 outlet;
#X msg 423 276 1;
#X obj 523 456 outlet;
#X msg 462 296 1;
#X obj 580 456 outlet;
#X msg 499 306 1;
#X obj 636 456 outlet;
#X msg 535 326 1;
#X obj 686 456 outlet;
#X msg 575 336 1;
#X obj 737 456 outlet;
#X msg 608 353 1;
#X obj 786 456 outlet;
#X msg 645 368 1;
#X obj 463 83 t b b;
#X text 688 97 //kontrol delay gap;
#X msg 451 152 0;
#X msg 491 155 0;
#X msg 583 181 0;
#X msg 537 167 0;
#X msg 610 196 0;
#X msg 652 208 0;
#X msg 687 224 0;
#X msg 763 256 0;
#X msg 801 271 0;
#X msg 833 287 0;
#X msg 725 238 0;
#X msg 872 300 0;
#X msg 906 314 0;
#X msg 942 325 0;
#X msg 979 342 0;
#X msg 1016 359 0;
#X msg 300 85 stop;
#X obj 113 8 r s.stm;
#X obj 97 122 del 500;
#X obj 135 137 del 500;
#X obj 172 152 del 500;
#X obj 211 167 del 500;
#X obj 249 182 del 500;
#X obj 286 197 del 500;
#X obj 322 212 del 500;
#X obj 359 227 del 500;
#X obj 395 242 del 500;
#X obj 432 257 del 500;
#X obj 468 272 del 500;
#X obj 504 287 del 500;
#X obj 540 302 del 500;
#X obj 573 316 del 500;
#X obj 613 332 del 500;
#X obj 641 347 del 500;
#X obj 463 113 del 500;
#X obj 501 128 del 500;
#X obj 538 143 del 500;
#X obj 577 158 del 500;
#X obj 615 173 del 500;
#X obj 652 188 del 500;
#X obj 688 203 del 500;
#X obj 726 218 del 500;
#X obj 761 233 del 500;
#X obj 798 248 del 500;
#X obj 834 263 del 500;
#X obj 870 278 del 500;
#X obj 906 293 del 500;
#X obj 942 308 del 500;
#X obj 979 325 del 500;
#X obj 1016 342 del 500;
#X msg 661 96 100;
#X obj 400 12 loadbang;
#X msg 168 82 250;
#X connect 1 0 55 0;
#X connect 1 1 89 0;
#X connect 3 0 1 0;
#X connect 3 1 53 0;
#X connect 3 1 35 0;
#X connect 4 0 0 0;
#X connect 6 0 5 0;
#X connect 8 0 7 0;
#X connect 10 0 9 0;
#X connect 12 0 11 0;
#X connect 14 0 13 0;
#X connect 16 0 15 0;
#X connect 18 0 17 0;
#X connect 20 0 19 0;
#X connect 22 0 21 0;
#X connect 24 0 23 0;
#X connect 26 0 25 0;
#X connect 28 0 27 0;
#X connect 30 0 29 0;
#X connect 32 0 31 0;
#X connect 34 0 33 0;
#X connect 35 0 71 0;
#X connect 35 1 87 0;
#X connect 37 0 0 0;
#X connect 38 0 5 0;
#X connect 39 0 9 0;
#X connect 40 0 7 0;
#X connect 41 0 11 0;
#X connect 42 0 13 0;
#X connect 43 0 15 0;
#X connect 44 0 19 0;
#X connect 45 0 21 0;
#X connect 46 0 23 0;
#X connect 47 0 17 0;
#X connect 48 0 25 0;
#X connect 49 0 27 0;
#X connect 50 0 29 0;
#X connect 51 0 31 0;
#X connect 52 0 33 0;
#X connect 53 0 55 0;
#X connect 53 0 56 0;
#X connect 53 0 57 0;
#X connect 53 0 58 0;
#X connect 53 0 59 0;
#X connect 53 0 60 0;
#X connect 53 0 61 0;
#X connect 53 0 62 0;
#X connect 53 0 63 0;
#X connect 53 0 64 0;
#X connect 53 0 65 0;
#X connect 53 0 66 0;
#X connect 53 0 67 0;
#X connect 53 0 68 0;
#X connect 53 0 69 0;
#X connect 53 0 70 0;
#X connect 54 0 3 0;
#X connect 55 0 4 0;
#X connect 55 0 56 0;
#X connect 56 0 6 0;
#X connect 56 0 57 0;
#X connect 57 0 8 0;
#X connect 57 0 58 0;
#X connect 58 0 10 0;
#X connect 58 0 59 0;
#X connect 59 0 12 0;
#X connect 59 0 60 0;
#X connect 60 0 14 0;
#X connect 60 0 61 0;
#X connect 61 0 16 0;
#X connect 61 0 62 0;
#X connect 62 0 18 0;
#X connect 62 0 63 0;
#X connect 63 0 20 0;
#X connect 63 0 64 0;
#X connect 64 0 22 0;
#X connect 64 0 65 0;
#X connect 65 0 24 0;
#X connect 65 0 66 0;
#X connect 66 0 26 0;
#X connect 66 0 67 0;
#X connect 67 0 28 0;
#X connect 67 0 68 0;
#X connect 68 0 30 0;
#X connect 68 0 69 0;
#X connect 69 0 32 0;
#X connect 69 0 70 0;
#X connect 70 0 34 0;
#X connect 71 0 37 0;
#X connect 71 0 72 0;
#X connect 72 0 38 0;
#X connect 72 0 73 0;
#X connect 73 0 40 0;
#X connect 73 0 74 0;
#X connect 74 0 39 0;
#X connect 74 0 75 0;
#X connect 75 0 41 0;
#X connect 75 0 76 0;
#X connect 76 0 42 0;
#X connect 76 0 77 0;
#X connect 77 0 43 0;
#X connect 77 0 78 0;
#X connect 78 0 47 0;
#X connect 78 0 79 0;
#X connect 79 0 44 0;
#X connect 79 0 80 0;
#X connect 80 0 45 0;
#X connect 80 0 81 0;
#X connect 81 0 46 0;
#X connect 81 0 82 0;
#X connect 82 0 48 0;
#X connect 82 0 83 0;
#X connect 83 0 49 0;
#X connect 83 0 84 0;
#X connect 84 0 50 0;
#X connect 84 0 85 0;
#X connect 85 0 51 0;
#X connect 85 0 86 0;
#X connect 86 0 52 0;
#X connect 87 0 71 1;
#X connect 87 0 72 1;
#X connect 87 0 73 1;
#X connect 87 0 74 1;
#X connect 87 0 75 1;
#X connect 87 0 76 1;
#X connect 87 0 77 1;
#X connect 87 0 78 1;
#X connect 87 0 79 1;
#X connect 87 0 80 1;
#X connect 87 0 81 1;
#X connect 87 0 82 1;
#X connect 87 0 83 1;
#X connect 87 0 84 1;
#X connect 87 0 85 1;
#X connect 87 0 86 1;
#X connect 88 0 87 0;
#X connect 88 0 89 0;
#X connect 89 0 55 1;
#X connect 89 0 56 1;
#X connect 89 0 57 1;
#X connect 89 0 58 1;
#X connect 89 0 59 1;
#X connect 89 0 60 1;
#X connect 89 0 61 1;
#X connect 89 0 62 1;
#X connect 89 0 63 1;
#X connect 89 0 64 1;
#X connect 89 0 65 1;
#X connect 89 0 66 1;
#X connect 89 0 67 1;
#X connect 89 0 68 1;
#X connect 89 0 69 1;
#X connect 89 0 70 1;
#X restore -422 -1722 pd stm.delay;
#N canvas 840 370 427 328 decimal2symbol 0;
#X obj 11 13 r dec.1;
#X obj 11 53 s sym.1;
#X text 71 291 // dec.x ist ascii code -> () => symbol;
#N canvas 264 449 463 210 dec2sym-tbl 0;
#X obj 24 21 inlet;
#X obj 25 46 select 128;
#X obj 25 132 outlet;
#X msg 25 71 167;
#X obj 25 104 makefilename %c;
#X text 128 33 // 128 park;
#X connect 0 0 1 0;
#X connect 1 0 3 0;
#X connect 1 1 4 0;
#X connect 3 0 4 0;
#X connect 4 0 2 0;
#X restore 11 33 pd dec2sym-tbl;
#N canvas 264 449 463 210 dec2sym-tbl 0;
#X obj 24 21 inlet;
#X obj 25 46 select 128;
#X obj 25 132 outlet;
#X msg 25 71 167;
#X obj 25 104 makefilename %c;
#X text 128 33 // 128 park;
#X connect 0 0 1 0;
#X connect 1 0 3 0;
#X connect 1 1 4 0;
#X connect 3 0 4 0;
#X connect 4 0 2 0;
#X restore 111 33 pd dec2sym-tbl;
#N canvas 264 449 463 210 dec2sym-tbl 0;
#X obj 24 21 inlet;
#X obj 25 46 select 128;
#X obj 25 132 outlet;
#X msg 25 71 167;
#X obj 25 104 makefilename %c;
#X text 128 33 // 128 park;
#X connect 0 0 1 0;
#X connect 1 0 3 0;
#X connect 1 1 4 0;
#X connect 3 0 4 0;
#X connect 4 0 2 0;
#X restore 211 33 pd dec2sym-tbl;
#N canvas 264 449 463 210 dec2sym-tbl 0;
#X obj 24 21 inlet;
#X obj 25 46 select 128;
#X obj 25 132 outlet;
#X msg 25 71 167;
#X obj 25 104 makefilename %c;
#X text 128 33 // 128 park;
#X connect 0 0 1 0;
#X connect 1 0 3 0;
#X connect 1 1 4 0;
#X connect 3 0 4 0;
#X connect 4 0 2 0;
#X restore 311 33 pd dec2sym-tbl;
#N canvas 264 449 463 210 dec2sym-tbl 0;
#X obj 24 21 inlet;
#X obj 25 46 select 128;
#X obj 25 132 outlet;
#X msg 25 71 167;
#X obj 25 104 makefilename %c;
#X text 128 33 // 128 park;
#X connect 0 0 1 0;
#X connect 1 0 3 0;
#X connect 1 1 4 0;
#X connect 3 0 4 0;
#X connect 4 0 2 0;
#X restore 111 103 pd dec2sym-tbl;
#N canvas 264 449 463 210 dec2sym-tbl 0;
#X obj 24 21 inlet;
#X obj 25 46 select 128;
#X obj 25 132 outlet;
#X msg 25 71 167;
#X obj 25 104 makefilename %c;
#X text 128 33 // 128 park;
#X connect 0 0 1 0;
#X connect 1 0 3 0;
#X connect 1 1 4 0;
#X connect 3 0 4 0;
#X connect 4 0 2 0;
#X restore 211 103 pd dec2sym-tbl;
#N canvas 264 449 463 210 dec2sym-tbl 0;
#X obj 24 21 inlet;
#X obj 25 46 select 128;
#X obj 25 132 outlet;
#X msg 25 71 167;
#X obj 25 104 makefilename %c;
#X text 128 33 // 128 park;
#X connect 0 0 1 0;
#X connect 1 0 3 0;
#X connect 1 1 4 0;
#X connect 3 0 4 0;
#X connect 4 0 2 0;
#X restore 311 103 pd dec2sym-tbl;
#N canvas 264 449 463 210 dec2sym-tbl 0;
#X obj 24 21 inlet;
#X obj 25 46 select 128;
#X obj 25 132 outlet;
#X msg 25 71 167;
#X obj 25 104 makefilename %c;
#X text 128 33 // 128 park;
#X connect 0 0 1 0;
#X connect 1 0 3 0;
#X connect 1 1 4 0;
#X connect 3 0 4 0;
#X connect 4 0 2 0;
#X restore 11 173 pd dec2sym-tbl;
#N canvas 264 449 463 210 dec2sym-tbl 0;
#X obj 24 21 inlet;
#X obj 25 46 select 128;
#X obj 25 132 outlet;
#X msg 25 71 167;
#X obj 25 104 makefilename %c;
#X text 128 33 // 128 park;
#X connect 0 0 1 0;
#X connect 1 0 3 0;
#X connect 1 1 4 0;
#X connect 3 0 4 0;
#X connect 4 0 2 0;
#X restore 111 173 pd dec2sym-tbl;
#N canvas 264 449 463 210 dec2sym-tbl 0;
#X obj 24 21 inlet;
#X obj 25 46 select 128;
#X obj 25 132 outlet;
#X msg 25 71 167;
#X obj 25 104 makefilename %c;
#X text 128 33 // 128 park;
#X connect 0 0 1 0;
#X connect 1 0 3 0;
#X connect 1 1 4 0;
#X connect 3 0 4 0;
#X connect 4 0 2 0;
#X restore 211 173 pd dec2sym-tbl;
#N canvas 264 449 463 210 dec2sym-tbl 0;
#X obj 24 21 inlet;
#X obj 25 46 select 128;
#X obj 25 132 outlet;
#X msg 25 71 167;
#X obj 25 104 makefilename %c;
#X text 128 33 // 128 park;
#X connect 0 0 1 0;
#X connect 1 0 3 0;
#X connect 1 1 4 0;
#X connect 3 0 4 0;
#X connect 4 0 2 0;
#X restore 311 173 pd dec2sym-tbl;
#N canvas 264 449 463 210 dec2sym-tbl 0;
#X obj 24 21 inlet;
#X obj 25 46 select 128;
#X obj 25 132 outlet;
#X msg 25 71 167;
#X obj 25 104 makefilename %c;
#X text 128 33 // 128 park;
#X connect 0 0 1 0;
#X connect 1 0 3 0;
#X connect 1 1 4 0;
#X connect 3 0 4 0;
#X connect 4 0 2 0;
#X restore 11 243 pd dec2sym-tbl;
#N canvas 264 449 463 210 dec2sym-tbl 0;
#X obj 24 21 inlet;
#X obj 25 46 select 128;
#X obj 25 132 outlet;
#X msg 25 71 167;
#X obj 25 104 makefilename %c;
#X text 128 33 // 128 park;
#X connect 0 0 1 0;
#X connect 1 0 3 0;
#X connect 1 1 4 0;
#X connect 3 0 4 0;
#X connect 4 0 2 0;
#X restore 111 243 pd dec2sym-tbl;
#N canvas 264 449 463 210 dec2sym-tbl 0;
#X obj 24 21 inlet;
#X obj 25 46 select 128;
#X obj 25 132 outlet;
#X msg 25 71 167;
#X obj 25 104 makefilename %c;
#X text 128 33 // 128 park;
#X connect 0 0 1 0;
#X connect 1 0 3 0;
#X connect 1 1 4 0;
#X connect 3 0 4 0;
#X connect 4 0 2 0;
#X restore 211 243 pd dec2sym-tbl;
#N canvas 264 449 463 210 dec2sym-tbl 0;
#X obj 24 21 inlet;
#X obj 25 46 select 128;
#X obj 25 132 outlet;
#X msg 25 71 167;
#X obj 25 104 makefilename %c;
#X text 128 33 // 128 park;
#X connect 0 0 1 0;
#X connect 1 0 3 0;
#X connect 1 1 4 0;
#X connect 3 0 4 0;
#X connect 4 0 2 0;
#X restore 311 243 pd dec2sym-tbl;
#N canvas 264 449 463 210 dec2sym-tbl 0;
#X obj 24 21 inlet;
#X obj 25 46 select 128;
#X obj 25 132 outlet;
#X msg 25 71 167;
#X obj 25 104 makefilename %c;
#X text 128 33 // 128 park;
#X connect 0 0 1 0;
#X connect 1 0 3 0;
#X connect 1 1 4 0;
#X connect 3 0 4 0;
#X connect 4 0 2 0;
#X restore 11 103 pd dec2sym-tbl;
#X obj 111 13 r dec.2;
#X obj 111 53 s sym.2;
#X obj 211 13 r dec.3;
#X obj 211 53 s sym.3;
#X obj 311 13 r dec.4;
#X obj 111 83 r dec.6;
#X obj 111 123 s sym.6;
#X obj 211 83 r dec.7;
#X obj 211 123 s sym.7;
#X obj 311 83 r dec.8;
#X obj 311 123 s sym.8;
#X obj 11 153 r dec.9;
#X obj 11 193 s sym.9;
#X obj 111 153 r dec.10;
#X obj 111 193 s sym.10;
#X obj 211 153 r dec.11;
#X obj 211 193 s sym.11;
#X obj 311 153 r dec.12;
#X obj 311 193 s sym.12;
#X obj 11 223 r dec.13;
#X obj 11 263 s sym.13;
#X obj 111 223 r dec.14;
#X obj 111 263 s sym.14;
#X obj 211 223 r dec.15;
#X obj 211 263 s sym.15;
#X obj 311 223 r dec.16;
#X obj 311 263 s sym.16;
#X obj 11 83 r dec.5;
#X obj 11 123 s sym.5;
#X obj 311 53 s sym.4;
#X connect 0 0 3 0;
#X connect 3 0 1 0;
#X connect 4 0 20 0;
#X connect 5 0 22 0;
#X connect 6 0 48 0;
#X connect 7 0 25 0;
#X connect 8 0 27 0;
#X connect 9 0 29 0;
#X connect 10 0 31 0;
#X connect 11 0 33 0;
#X connect 12 0 35 0;
#X connect 13 0 37 0;
#X connect 14 0 39 0;
#X connect 15 0 41 0;
#X connect 16 0 43 0;
#X connect 17 0 45 0;
#X connect 18 0 47 0;
#X connect 19 0 4 0;
#X connect 21 0 5 0;
#X connect 23 0 6 0;
#X connect 24 0 7 0;
#X connect 26 0 8 0;
#X connect 28 0 9 0;
#X connect 30 0 10 0;
#X connect 32 0 11 0;
#X connect 34 0 12 0;
#X connect 36 0 13 0;
#X connect 38 0 14 0;
#X connect 40 0 15 0;
#X connect 42 0 16 0;
#X connect 44 0 17 0;
#X connect 46 0 18 0;
#X restore -844 -1572 pd decimal2symbol;
#N canvas 723 399 732 734 kontrol 0;
#X msg -86 102 print \$1A;
#X msg -160 154 print \$1a;
#X obj -157 71 r 1A;
#X obj -92 171 s toCOM;
#X msg -92 154 print 4A;
#X obj -160 107 metro 100;
#X msg -160 127 8;
#X obj -86 65 r s.stm.1;
#X obj -172 90 r s.null.1;
#X obj 65 178 s toCOM;
#X obj -5 120 metro 100;
#X msg -5 137 8;
#X obj 229 169 s toCOM;
#X obj 158 108 metro 100;
#X msg 163 131 8;
#X obj 405 163 s toCOM;
#X obj 325 105 metro 100;
#X msg 325 122 8;
#X obj -110 388 s toCOM;
#X obj -181 329 metro 100;
#X msg -181 347 8;
#X obj 57 383 s toCOM;
#X obj -14 324 metro 100;
#X msg -14 341 8;
#X obj 217 387 s toCOM;
#X obj 148 326 metro 100;
#X msg 148 344 8;
#X obj 399 375 s toCOM;
#X obj 332 318 metro 100;
#X msg 333 337 8;
#X obj -109 606 s toCOM;
#X obj -178 523 metro 100;
#X msg -175 545 8;
#X obj 60 595 s toCOM;
#X obj -10 528 metro 100;
#X msg -9 557 8;
#X obj 211 594 s toCOM;
#X obj 139 527 metro 100;
#X msg 141 553 8;
#X obj 376 600 s toCOM;
#X obj 304 534 metro 100;
#X msg 305 553 8;
#X obj -132 822 s toCOM;
#X obj -202 757 metro 100;
#X msg -201 777 8;
#X obj 36 819 s toCOM;
#X obj -36 757 metro 100;
#X msg -35 776 8;
#X obj 200 814 s toCOM;
#X obj 134 748 metro 100;
#X msg 135 768 8;
#X obj 363 823 s toCOM;
#X obj 297 765 metro 100;
#X msg 293 785 8;
#X obj -6 103 r s.null.2;
#X obj 157 89 r s.null.3;
#X obj 324 88 r s.null.4;
#X obj -182 312 r s.null.5;
#X obj -25 307 r s.null.6;
#X obj 137 309 r s.null.7;
#X obj 311 301 r s.null.8;
#X obj -195 505 r s.null.9;
#X obj -18 511 r s.null.10;
#X obj 136 503 r s.null.11;
#X obj 307 512 r s.null.12;
#X obj -202 736 r s.null.13;
#X obj -36 736 r s.null.14;
#X obj 134 727 r s.null.15;
#X obj 297 744 r s.null.16;
#X obj 61 67 r s.stm.2;
#X obj 235 84 r s.stm.3;
#X obj 403 80 r s.stm.4;
#X obj -111 307 r s.stm.5;
#X obj 52 305 r s.stm.6;
#X obj 216 306 r s.stm.7;
#X obj 397 294 r s.stm.8;
#X obj -112 520 r s.stm.9;
#X obj 55 511 r s.stm.10;
#X obj 209 510 r s.stm.11;
#X obj 380 509 r s.stm.12;
#X obj -127 745 r s.stm.13;
#X obj 43 731 r s.stm.14;
#X obj 209 732 r s.stm.15;
#X obj 371 739 r s.stm.16;
#X msg 62 158 print 4B;
#X msg 403 141 print 4D;
#X msg -111 369 print 4E;
#X msg 58 362 print 4F;
#X msg 218 366 print 4G;
#X msg 404 355 print 4H;
#X msg -117 590 print 4I;
#X msg 57 577 print 4J;
#X msg 208 575 print 4K;
#X msg 376 576 print 4L;
#X msg -129 803 print 4M;
#X msg 39 797 print 4N;
#X msg 194 795 print 4O;
#X msg 363 805 print 4P;
#X obj -4 79 r 2B;
#X obj 159 65 r 3C;
#X obj 326 63 r 4D;
#X obj -180 262 r 5E;
#X obj -19 255 r 6F;
#X obj 146 252 r 7G;
#X obj 330 264 r 8H;
#X obj -181 470 r 9I;
#X obj -19 466 r 10J;
#X obj 144 465 r 11K;
#X obj 307 479 r 12L;
#X obj -198 693 r 13M;
#X obj -36 682 r 14N;
#X obj 144 678 r 15O;
#X obj 299 689 r 16P;
#X msg -4 162 print \$1b;
#X msg 159 150 print \$1c;
#X msg 326 147 print \$1d;
#X msg -180 371 print \$1e;
#X msg -13 365 print \$1f;
#X msg 149 369 print \$1g;
#X msg 335 358 print \$1h;
#X msg -179 572 print \$1i;
#X msg -15 577 print \$1j;
#X msg 136 575 print \$1k;
#X msg 302 581 print \$1l;
#X msg -203 801 print \$1m;
#X msg -33 800 print \$1n;
#X msg 136 790 print \$1o;
#X msg 293 803 print \$1p;
#X msg 65 107 print \$1B;
#X msg 236 101 print \$1C;
#X msg 404 97 print \$1D;
#X msg -110 324 print \$1E;
#X msg 53 322 print \$1F;
#X msg 217 323 print \$1G;
#X msg 398 311 print \$1H;
#X msg -111 541 print \$1I;
#X msg 56 532 print \$1J;
#X msg 210 531 print \$1K;
#X msg 381 530 print \$1L;
#X msg -130 784 print \$1M;
#X msg 44 752 print \$1N;
#X msg 210 753 print \$1O;
#X msg 372 760 print \$1P;
#X msg 226 149 print 4C;
#X obj -172 177 select 1;
#X obj -6 187 select 1;
#X obj 160 170 select 1;
#X obj 327 173 select 1;
#X obj -187 391 select 1;
#X obj -25 384 select 1;
#X obj 143 392 select 1;
#X obj 314 372 select 1;
#X obj -202 584 select 1;
#X obj -17 602 select 1;
#X obj 139 599 select 1;
#X obj 306 608 select 1;
#X obj -198 817 select 1;
#X obj -26 824 select 1;
#X obj 139 818 select 1;
#X obj 285 823 select 1;
#X msg -88 45 print \$1!;
#X obj -88 28 r s.accel.1;
#X obj 61 31 r s.accel.2;
#X msg 61 48 print \$1@;
#X obj 227 29 r s.accel.3;
#X msg 227 46 print \$1#;
#X obj 408 23 r s.accel.4;
#X msg 408 40 print \$1$;
#X obj -112 255 r s.accel.5;
#X msg -112 271 print \$1%;
#X obj 53 250 r s.accel.6;
#X msg 53 267 print \$1^;
#X obj 214 252 r s.accel.7;
#X msg 214 269 print \$1&;
#X obj 396 238 r s.accel.8;
#X msg 396 255 print \$1*;
#X obj -112 462 r s.accel.9;
#X msg -112 479 print \$1(;
#X obj 52 456 r s.accel.10;
#X msg 52 473 print \$1);
#X obj 212 452 r s.accel.11;
#X msg 212 469 print \$1-;
#X obj 381 447 r s.accel.12;
#X msg 381 464 print \$1_;
#X obj 37 680 r s.accel.14;
#X msg 37 697 print \$1];
#X obj -130 685 r s.accel.13;
#X msg -129 706 print \$1[;
#X obj 211 673 r s.accel.15;
#X msg 211 690 print \$1|;
#X obj 369 672 r s.accel.16;
#X msg 371 693 print \$1:;
#X msg -92 132 print 2A;
#X obj 196 -70 s toCOM;
#X msg 33 -87 print \$1=;
#X msg -70 -87 print \$1+;
#X text 124 -64 rst;
#X text 32 -65 normSpd \; 1500;
#X text -72 -64 maxSpd \; 5000;
#X obj 127 -111 r spd.rst;
#X text -171 -66 accel \; 2500;
#X text 203 -111 //rst not work \, wegen serial over?;
#X obj -172 214 s sym.1;
#N canvas 144 222 199 181 symbol-null-p 0;
#X obj 52 42 inlet;
#X obj 54 95 makefilename %c;
#X obj 52 124 outlet;
#X msg 53 67 191;
#X connect 0 0 3 0;
#X connect 1 0 2 0;
#X connect 3 0 1 0;
#X restore -172 197 pd symbol-null-p;
#N canvas 144 222 199 181 symbol-null-p 0;
#X obj 52 42 inlet;
#X obj 54 95 makefilename %c;
#X obj 52 124 outlet;
#X msg 53 67 191;
#X connect 0 0 3 0;
#X connect 1 0 2 0;
#X connect 3 0 1 0;
#X restore -6 204 pd symbol-null-p;
#N canvas 144 222 199 181 symbol-null-p 0;
#X obj 52 42 inlet;
#X obj 54 95 makefilename %c;
#X obj 52 124 outlet;
#X msg 53 67 191;
#X connect 0 0 3 0;
#X connect 1 0 2 0;
#X connect 3 0 1 0;
#X restore 159 187 pd symbol-null-p;
#N canvas 144 222 199 181 symbol-null-p 0;
#X obj 52 42 inlet;
#X obj 54 95 makefilename %c;
#X obj 52 124 outlet;
#X msg 53 67 191;
#X connect 0 0 3 0;
#X connect 1 0 2 0;
#X connect 3 0 1 0;
#X restore 327 190 pd symbol-null-p;
#N canvas 144 222 199 181 symbol-null-p 0;
#X obj 52 42 inlet;
#X obj 54 95 makefilename %c;
#X obj 52 124 outlet;
#X msg 53 67 191;
#X connect 0 0 3 0;
#X connect 1 0 2 0;
#X connect 3 0 1 0;
#X restore -180 408 pd symbol-null-p;
#N canvas 144 222 199 181 symbol-null-p 0;
#X obj 52 42 inlet;
#X obj 54 95 makefilename %c;
#X obj 52 124 outlet;
#X msg 53 67 191;
#X connect 0 0 3 0;
#X connect 1 0 2 0;
#X connect 3 0 1 0;
#X restore -22 401 pd symbol-null-p;
#N canvas 144 222 199 181 symbol-null-p 0;
#X obj 52 42 inlet;
#X obj 54 95 makefilename %c;
#X obj 52 124 outlet;
#X msg 53 67 191;
#X connect 0 0 3 0;
#X connect 1 0 2 0;
#X connect 3 0 1 0;
#X restore 146 409 pd symbol-null-p;
#N canvas 144 222 199 181 symbol-null-p 0;
#X obj 52 42 inlet;
#X obj 54 95 makefilename %c;
#X obj 52 124 outlet;
#X msg 53 67 191;
#X connect 0 0 3 0;
#X connect 1 0 2 0;
#X connect 3 0 1 0;
#X restore 315 395 pd symbol-null-p;
#N canvas 144 222 199 181 symbol-null-p 0;
#X obj 52 42 inlet;
#X obj 54 95 makefilename %c;
#X obj 52 124 outlet;
#X msg 53 67 191;
#X connect 0 0 3 0;
#X connect 1 0 2 0;
#X connect 3 0 1 0;
#X restore -11 625 pd symbol-null-p;
#N canvas 144 222 199 181 symbol-null-p 0;
#X obj 52 42 inlet;
#X obj 54 95 makefilename %c;
#X obj 52 124 outlet;
#X msg 53 67 191;
#X connect 0 0 3 0;
#X connect 1 0 2 0;
#X connect 3 0 1 0;
#X restore 139 620 pd symbol-null-p;
#N canvas 144 222 199 181 symbol-null-p 0;
#X obj 52 42 inlet;
#X obj 54 95 makefilename %c;
#X obj 52 124 outlet;
#X msg 53 67 191;
#X connect 0 0 3 0;
#X connect 1 0 2 0;
#X connect 3 0 1 0;
#X restore 306 622 pd symbol-null-p;
#N canvas 144 222 199 181 symbol-null-p 0;
#X obj 52 42 inlet;
#X obj 54 95 makefilename %c;
#X obj 52 124 outlet;
#X msg 53 67 191;
#X connect 0 0 3 0;
#X connect 1 0 2 0;
#X connect 3 0 1 0;
#X restore -197 839 pd symbol-null-p;
#N canvas 144 222 199 181 symbol-null-p 0;
#X obj 52 42 inlet;
#X obj 54 95 makefilename %c;
#X obj 52 124 outlet;
#X msg 53 67 191;
#X connect 0 0 3 0;
#X connect 1 0 2 0;
#X connect 3 0 1 0;
#X restore -26 844 pd symbol-null-p;
#N canvas 144 222 199 181 symbol-null-p 0;
#X obj 52 42 inlet;
#X obj 54 95 makefilename %c;
#X obj 52 124 outlet;
#X msg 53 67 191;
#X connect 0 0 3 0;
#X connect 1 0 2 0;
#X connect 3 0 1 0;
#X restore 138 840 pd symbol-null-p;
#N canvas 144 222 199 181 symbol-null-p 0;
#X obj 52 42 inlet;
#X obj 54 95 makefilename %c;
#X obj 52 124 outlet;
#X msg 53 67 191;
#X connect 0 0 3 0;
#X connect 1 0 2 0;
#X connect 3 0 1 0;
#X restore 295 842 pd symbol-null-p;
#N canvas 144 222 199 181 symbol-null-p 0;
#X obj 52 42 inlet;
#X obj 54 95 makefilename %c;
#X obj 52 124 outlet;
#X msg 53 67 191;
#X connect 0 0 3 0;
#X connect 1 0 2 0;
#X connect 3 0 1 0;
#X restore -203 612 pd symbol-null-p;
#X obj -6 221 s sym.2;
#X obj 159 204 s sym.3;
#X obj 327 207 s sym.4;
#X obj -180 425 s sym.5;
#X obj -22 418 s sym.6;
#X obj 146 426 s sym.7;
#X obj 315 412 s sym.8;
#X obj -203 629 s sym.9;
#X obj -11 642 s sym.10;
#X obj 139 637 s sym.11;
#X obj 306 639 s sym.12;
#X obj -194 860 s sym.13;
#X obj -26 861 s sym.14;
#X obj 138 857 s sym.15;
#X obj 295 859 s sym.16;
#X msg 61 135 print 2B;
#X msg 228 126 print 2C;
#X msg 404 119 print 2D;
#X msg -113 347 print 2E;
#X msg 52 341 print 2F;
#X msg 217 345 print 2G;
#X msg 401 334 print 2H;
#X msg -111 566 print 2I;
#X msg 57 554 print 2J;
#X msg 208 555 print 2K;
#X msg 379 556 print 2L;
#X msg -128 766 print 2M;
#X msg 39 776 print 2N;
#X msg 209 772 print 2O;
#X msg 373 783 print 2P;
#X msg -173 -87 print \$1/;
#X text -190 232 //null_check > sym display;
#X obj -173 -111 r accel.alle;
#X obj -70 -111 r max.alle;
#X obj 33 -111 r norm.alle;
#N canvas 396 176 364 241 v.max.each 0;
#X obj 21 40 s v.max.1;
#X obj 21 23 r max.1;
#X obj -25 23 inlet;
#X obj 91 23 r max.2;
#X obj 91 40 s v.max.2;
#X obj 161 23 r max.3;
#X obj 161 40 s v.max.3;
#X obj 231 23 r max.4;
#X obj 231 40 s v.max.4;
#X obj 21 73 r max.5;
#X obj 21 90 s v.max.5;
#X obj 91 73 r max.6;
#X obj 91 90 s v.max.6;
#X obj 161 73 r max.7;
#X obj 161 90 s v.max.7;
#X obj 231 73 r max.8;
#X obj 231 90 s v.max.8;
#X obj 21 123 r max.9;
#X obj 21 140 s v.max.9;
#X obj 91 123 r max.10;
#X obj 91 140 s v.max.10;
#X obj 161 123 r max.11;
#X obj 161 140 s v.max.11;
#X obj 231 123 r max.12;
#X obj 231 140 s v.max.12;
#X obj 21 173 r max.13;
#X obj 21 190 s v.max.13;
#X obj 91 173 r max.14;
#X obj 91 190 s v.max.14;
#X obj 161 173 r max.15;
#X obj 161 190 s v.max.15;
#X obj 231 173 r max.16;
#X obj 231 190 s v.max.16;
#X connect 1 0 0 0;
#X connect 2 0 0 0;
#X connect 2 0 4 0;
#X connect 2 0 6 0;
#X connect 2 0 8 0;
#X connect 2 0 10 0;
#X connect 2 0 12 0;
#X connect 2 0 14 0;
#X connect 2 0 16 0;
#X connect 2 0 18 0;
#X connect 2 0 20 0;
#X connect 2 0 22 0;
#X connect 2 0 24 0;
#X connect 2 0 26 0;
#X connect 2 0 28 0;
#X connect 2 0 30 0;
#X connect 2 0 32 0;
#X connect 3 0 4 0;
#X connect 5 0 6 0;
#X connect 7 0 8 0;
#X connect 9 0 10 0;
#X connect 11 0 12 0;
#X connect 13 0 14 0;
#X connect 15 0 16 0;
#X connect 17 0 18 0;
#X connect 19 0 20 0;
#X connect 21 0 22 0;
#X connect 23 0 24 0;
#X connect 25 0 26 0;
#X connect 27 0 28 0;
#X connect 29 0 30 0;
#X connect 31 0 32 0;
#X restore -71 -27 pd v.max.each;
#X obj -86 83 r max.1;
#X obj 63 87 r max.2;
#X obj 235 67 r max.3;
#X obj 407 63 r max.4;
#X obj 396 277 r max.8;
#X obj 214 289 r max.7;
#X obj 51 288 r max.6;
#X obj -110 291 r max.5;
#X obj -110 500 r max.9;
#X obj 55 492 r max.10;
#X obj 214 491 r max.11;
#X obj 383 487 r max.12;
#X obj -129 727 r max.13;
#X obj 44 718 r max.14;
#X obj 210 710 r max.15;
#X obj 371 716 r max.16;
#N canvas 307 156 391 258 v.accel.each 0;
#X obj 31 33 r accel.1;
#X obj 31 50 s v.accel.1;
#X obj -15 33 inlet;
#X obj 111 33 r accel.2;
#X obj 111 50 s v.accel.2;
#X obj 191 33 r accel.3;
#X obj 191 50 s v.accel.3;
#X obj 271 33 r accel.4;
#X obj 271 50 s v.accel.4;
#X obj 31 83 r accel.5;
#X obj 31 100 s v.accel.5;
#X obj 111 83 r accel.6;
#X obj 111 100 s v.accel.6;
#X obj 191 83 r accel.7;
#X obj 191 100 s v.accel.7;
#X obj 271 83 r accel.8;
#X obj 271 100 s v.accel.8;
#X obj 31 133 r accel.9;
#X obj 31 150 s v.accel.9;
#X obj 111 133 r accel.10;
#X obj 111 150 s v.accel.10;
#X obj 191 133 r accel.11;
#X obj 191 150 s v.accel.11;
#X obj 271 133 r accel.12;
#X obj 271 150 s v.accel.12;
#X obj 31 183 r accel.13;
#X obj 31 200 s v.accel.13;
#X obj 111 183 r accel.14;
#X obj 111 200 s v.accel.14;
#X obj 191 183 r accel.15;
#X obj 191 200 s v.accel.15;
#X obj 271 183 r accel.16;
#X obj 271 200 s v.accel.16;
#X connect 0 0 1 0;
#X connect 2 0 1 0;
#X connect 2 0 4 0;
#X connect 2 0 6 0;
#X connect 2 0 8 0;
#X connect 2 0 10 0;
#X connect 2 0 12 0;
#X connect 2 0 14 0;
#X connect 2 0 16 0;
#X connect 2 0 18 0;
#X connect 2 0 20 0;
#X connect 2 0 22 0;
#X connect 2 0 24 0;
#X connect 2 0 26 0;
#X connect 2 0 28 0;
#X connect 2 0 30 0;
#X connect 2 0 32 0;
#X connect 3 0 4 0;
#X connect 5 0 6 0;
#X connect 7 0 8 0;
#X connect 9 0 10 0;
#X connect 11 0 12 0;
#X connect 13 0 14 0;
#X connect 15 0 16 0;
#X connect 17 0 18 0;
#X connect 19 0 20 0;
#X connect 21 0 22 0;
#X connect 23 0 24 0;
#X connect 25 0 26 0;
#X connect 27 0 28 0;
#X connect 29 0 30 0;
#X connect 31 0 32 0;
#X restore -180 -26 pd v.accel.each;
#X connect 0 0 3 0;
#X connect 1 0 3 0;
#X connect 2 0 1 0;
#X connect 4 0 3 0;
#X connect 5 0 6 0;
#X connect 5 0 4 0;
#X connect 6 0 1 0;
#X connect 7 0 0 0;
#X connect 8 0 5 0;
#X connect 8 0 144 0;
#X connect 10 0 11 0;
#X connect 10 0 84 0;
#X connect 11 0 113 0;
#X connect 13 0 14 0;
#X connect 13 0 143 0;
#X connect 14 0 114 0;
#X connect 16 0 17 0;
#X connect 16 0 85 0;
#X connect 17 0 115 0;
#X connect 19 0 20 0;
#X connect 19 0 86 0;
#X connect 20 0 116 0;
#X connect 22 0 23 0;
#X connect 22 0 87 0;
#X connect 23 0 117 0;
#X connect 25 0 26 0;
#X connect 25 0 88 0;
#X connect 26 0 118 0;
#X connect 28 0 29 0;
#X connect 28 0 89 0;
#X connect 29 0 119 0;
#X connect 31 0 32 0;
#X connect 31 0 90 0;
#X connect 32 0 120 0;
#X connect 34 0 35 0;
#X connect 34 0 91 0;
#X connect 35 0 121 0;
#X connect 37 0 38 0;
#X connect 37 0 92 0;
#X connect 38 0 122 0;
#X connect 40 0 41 0;
#X connect 40 0 93 0;
#X connect 41 0 123 0;
#X connect 43 0 44 0;
#X connect 43 0 94 0;
#X connect 44 0 124 0;
#X connect 46 0 47 0;
#X connect 46 0 95 0;
#X connect 47 0 125 0;
#X connect 49 0 50 0;
#X connect 49 0 96 0;
#X connect 50 0 126 0;
#X connect 52 0 53 0;
#X connect 52 0 97 0;
#X connect 53 0 127 0;
#X connect 54 0 10 0;
#X connect 54 0 145 0;
#X connect 55 0 13 0;
#X connect 55 0 146 0;
#X connect 56 0 16 0;
#X connect 56 0 147 0;
#X connect 57 0 19 0;
#X connect 57 0 148 0;
#X connect 58 0 22 0;
#X connect 58 0 149 0;
#X connect 59 0 25 0;
#X connect 59 0 150 0;
#X connect 60 0 28 0;
#X connect 60 0 151 0;
#X connect 61 0 31 0;
#X connect 61 0 152 0;
#X connect 62 0 34 0;
#X connect 62 0 153 0;
#X connect 63 0 37 0;
#X connect 63 0 154 0;
#X connect 64 0 40 0;
#X connect 64 0 155 0;
#X connect 65 0 43 0;
#X connect 65 0 156 0;
#X connect 66 0 46 0;
#X connect 66 0 157 0;
#X connect 67 0 49 0;
#X connect 67 0 158 0;
#X connect 68 0 52 0;
#X connect 68 0 159 0;
#X connect 69 0 128 0;
#X connect 70 0 129 0;
#X connect 71 0 130 0;
#X connect 72 0 131 0;
#X connect 73 0 132 0;
#X connect 74 0 133 0;
#X connect 75 0 134 0;
#X connect 76 0 135 0;
#X connect 77 0 136 0;
#X connect 78 0 137 0;
#X connect 79 0 138 0;
#X connect 80 0 139 0;
#X connect 81 0 140 0;
#X connect 82 0 141 0;
#X connect 83 0 142 0;
#X connect 84 0 9 0;
#X connect 85 0 15 0;
#X connect 86 0 18 0;
#X connect 87 0 21 0;
#X connect 88 0 24 0;
#X connect 89 0 27 0;
#X connect 90 0 30 0;
#X connect 91 0 33 0;
#X connect 92 0 36 0;
#X connect 93 0 39 0;
#X connect 94 0 42 0;
#X connect 95 0 45 0;
#X connect 96 0 48 0;
#X connect 97 0 51 0;
#X connect 98 0 113 0;
#X connect 99 0 114 0;
#X connect 100 0 115 0;
#X connect 101 0 116 0;
#X connect 102 0 117 0;
#X connect 103 0 118 0;
#X connect 104 0 119 0;
#X connect 105 0 120 0;
#X connect 106 0 121 0;
#X connect 107 0 122 0;
#X connect 108 0 123 0;
#X connect 109 0 124 0;
#X connect 110 0 125 0;
#X connect 111 0 126 0;
#X connect 112 0 127 0;
#X connect 113 0 9 0;
#X connect 114 0 12 0;
#X connect 115 0 15 0;
#X connect 116 0 18 0;
#X connect 117 0 21 0;
#X connect 118 0 24 0;
#X connect 119 0 27 0;
#X connect 120 0 30 0;
#X connect 121 0 33 0;
#X connect 122 0 36 0;
#X connect 123 0 39 0;
#X connect 124 0 42 0;
#X connect 125 0 45 0;
#X connect 126 0 48 0;
#X connect 127 0 51 0;
#X connect 128 0 9 0;
#X connect 129 0 12 0;
#X connect 130 0 15 0;
#X connect 131 0 18 0;
#X connect 132 0 21 0;
#X connect 133 0 24 0;
#X connect 134 0 27 0;
#X connect 135 0 30 0;
#X connect 136 0 33 0;
#X connect 137 0 36 0;
#X connect 138 0 39 0;
#X connect 139 0 42 0;
#X connect 140 0 45 0;
#X connect 141 0 48 0;
#X connect 142 0 51 0;
#X connect 143 0 12 0;
#X connect 144 0 203 0;
#X connect 145 0 204 0;
#X connect 146 0 205 0;
#X connect 147 0 206 0;
#X connect 148 0 207 0;
#X connect 149 0 208 0;
#X connect 150 0 209 0;
#X connect 151 0 210 0;
#X connect 152 0 218 0;
#X connect 153 0 211 0;
#X connect 154 0 212 0;
#X connect 155 0 213 0;
#X connect 156 0 214 0;
#X connect 157 0 215 0;
#X connect 158 0 216 0;
#X connect 159 0 217 0;
#X connect 160 0 3 0;
#X connect 161 0 160 0;
#X connect 162 0 163 0;
#X connect 163 0 9 0;
#X connect 164 0 165 0;
#X connect 165 0 12 0;
#X connect 166 0 167 0;
#X connect 167 0 15 0;
#X connect 168 0 169 0;
#X connect 169 0 18 0;
#X connect 170 0 171 0;
#X connect 171 0 21 0;
#X connect 172 0 173 0;
#X connect 173 0 24 0;
#X connect 174 0 175 0;
#X connect 175 0 27 0;
#X connect 176 0 177 0;
#X connect 177 0 30 0;
#X connect 178 0 179 0;
#X connect 179 0 33 0;
#X connect 180 0 181 0;
#X connect 181 0 36 0;
#X connect 182 0 183 0;
#X connect 183 0 39 0;
#X connect 184 0 185 0;
#X connect 185 0 45 0;
#X connect 186 0 187 0;
#X connect 187 0 42 0;
#X connect 188 0 189 0;
#X connect 189 0 48 0;
#X connect 190 0 191 0;
#X connect 191 0 51 0;
#X connect 192 0 3 0;
#X connect 194 0 193 0;
#X connect 195 0 193 0;
#X connect 203 0 202 0;
#X connect 204 0 219 0;
#X connect 205 0 220 0;
#X connect 206 0 221 0;
#X connect 207 0 222 0;
#X connect 208 0 223 0;
#X connect 209 0 224 0;
#X connect 210 0 225 0;
#X connect 211 0 227 0;
#X connect 212 0 228 0;
#X connect 213 0 229 0;
#X connect 214 0 230 0;
#X connect 215 0 231 0;
#X connect 216 0 232 0;
#X connect 217 0 233 0;
#X connect 218 0 226 0;
#X connect 234 0 9 0;
#X connect 235 0 12 0;
#X connect 236 0 15 0;
#X connect 237 0 18 0;
#X connect 238 0 21 0;
#X connect 239 0 24 0;
#X connect 240 0 27 0;
#X connect 241 0 30 0;
#X connect 242 0 33 0;
#X connect 243 0 36 0;
#X connect 244 0 39 0;
#X connect 245 0 42 0;
#X connect 246 0 45 0;
#X connect 247 0 48 0;
#X connect 248 0 51 0;
#X connect 249 0 193 0;
#X connect 251 0 249 0;
#X connect 251 0 271 0;
#X connect 252 0 195 0;
#X connect 252 0 254 0;
#X connect 253 0 194 0;
#X connect 255 0 0 0;
#X connect 256 0 128 0;
#X connect 257 0 129 0;
#X connect 258 0 130 0;
#X connect 259 0 134 0;
#X connect 260 0 133 0;
#X connect 261 0 132 0;
#X connect 262 0 131 0;
#X connect 263 0 135 0;
#X connect 264 0 136 0;
#X connect 265 0 137 0;
#X connect 266 0 138 0;
#X connect 267 0 139 0;
#X connect 268 0 140 0;
#X connect 269 0 141 0;
#X connect 270 0 142 0;
#X restore -833 -1660 pd kontrol;
#N canvas 416 255 763 456 konnekt 0;
#X obj 272 29 s ausCOM;
#X msg 223 -65 close;
#X obj 223 -99 select 1 0;
#X obj 263 108 print;
#X obj 269 -82 delay 500;
#X obj 223 -41 comport 1 115200;
#X obj 129 -150 r s.srl;
#X obj 327 -82 s r.null;
#X text 205 -161 // serial teil;
#X obj 276 -65 r toCOM;
#X obj 68 -75 + 2;
#X msg 68 -58 print \$1Z;
#X obj 131 -99 r s.netz;
#X obj 68 -92 r s.ms;
#X obj 131 50 s toOSC;
#X msg 131 -59 /init/netz \$1;
#X msg 131 -42 /init/ms \$1;
#X msg 131 -76 /init/fbk \$1;
#X msg 131 9 /init/srl \$1;
#X text 281 47 //TODO spaetter weg;
#X msg 131 26 /ARD \$1;
#X obj 68 -25 r s.stm;
#X msg 131 -25 /init/stm \$1;
#X obj 68 -8 r s.null;
#X msg 131 -8 /init/null \$1;
#X obj -315 -246 unpackOSC;
#X obj -291 -151 s r.fbk;
#X obj -263 -129 s r.srl;
#X obj -146 -154 s r.null;
#X obj -237 -151 s r.ms;
#X obj -211 -129 s r.netz;
#X obj -176 -108 s r.stm;
#X text -161 -263 //OSC_receive konnektion;
#X obj 223 -19 ascii2pd CR;
#X obj 223 4 route list symbol;
#X obj -118 -132 select 1;
#X obj -89 -90 select 1;
#X obj -89 -73 s r.blk;
#X obj -315 -263 udpreceive 9000;
#X obj -315 -24 unpack f f f f f f f f f f f f f f f f f f f f;
#X obj -315 -3 s dec.1;
#X obj -301 14 s dec.2;
#X obj -287 31 s dec.3;
#X obj -272 48 s dec.4;
#X obj -258 65 s dec.5;
#X obj -244 82 s dec.6;
#X obj -229 99 s dec.7;
#X obj -215 116 s dec.8;
#X obj -201 -3 s dec.9;
#X obj -186 14 s dec.10;
#X obj -173 31 s dec.11;
#X obj -157 48 s dec.12;
#X obj -143 65 s dec.13;
#X obj -130 82 s dec.14;
#X obj -114 99 s dec.15;
#X obj -100 116 s dec.16;
#X obj -81 -246 outlet;
#X obj -5 -101 select 1;
#X text 63 70 // TODO feedback teil;
#X obj -5 -79 s spd.rst;
#X text 233 -119 // 1 fur rpi \, 2fur mac;
#X obj -315 -214 routeOSC /alle /each;
#N canvas 175 39 808 674 routeOSC-zu-each 0;
#X obj 204 -181 inlet;
#X obj 246 -182 routeOSC /1 /2 /3 /4 /5 /6 /7 /8 /9 /10 /11 /12 /13
/14 /15 /16;
#X obj 68 -101 s dec.1;
#X obj 149 -98 s r.null.1;
#X obj 108 -79 s r.stm.1;
#X text 92 -142 //norm y rst not implemented;
#X obj 69 -30 s dec.2;
#X obj 109 -7 s r.stm.2;
#X obj 150 -27 s r.null.2;
#X obj 72 43 s dec.3;
#X obj 112 66 s r.stm.3;
#X obj 153 46 s r.null.3;
#X obj 71 117 s dec.4;
#X obj 152 120 s r.null.4;
#X obj 111 140 s r.stm.4;
#X obj 71 193 s dec.5;
#X obj 152 196 s r.null.5;
#X obj 111 216 s r.stm.5;
#X obj 72 268 s dec.6;
#X obj 153 271 s r.null.6;
#X obj 112 292 s r.stm.6;
#X obj 73 347 s dec.7;
#X obj 113 370 s r.stm.7;
#X obj 154 350 s r.null.7;
#X obj 74 425 s dec.8;
#X obj 114 449 s r.stm.8;
#X obj 155 428 s r.null.8;
#X obj 428 -101 s dec.9;
#X obj 509 -98 s r.null.9;
#X obj 468 -79 s r.stm.9;
#X obj 429 -30 s dec.10;
#X obj 510 -27 s r.null.10;
#X obj 469 -7 s r.stm.10;
#X obj 428 43 s dec.11;
#X obj 509 46 s r.null.11;
#X obj 468 66 s r.stm.11;
#X obj 428 117 s dec.12;
#X obj 509 120 s r.null.12;
#X obj 468 140 s r.stm.12;
#X obj 425 193 s dec.13;
#X obj 506 196 s r.null.13;
#X obj 465 216 s r.stm.13;
#X obj 426 268 s dec.14;
#X obj 507 271 s r.null.14;
#X obj 466 292 s r.stm.14;
#X obj 430 347 s dec.15;
#X obj 511 350 s r.null.15;
#X obj 470 370 s r.stm.15;
#X obj 431 425 s dec.16;
#X obj 512 428 s r.null.16;
#X obj 471 449 s r.stm.16;
#X obj 68 -120 routeOSC /char /stm /null /max /accel /parke /rst;
#X obj 315 -98 s r.rst.1;
#X obj 273 -78 s park.1;
#X obj 191 -78 s max.1;
#X obj 230 -98 s accel.1;
#X obj 318 -26 s r.rst.2;
#X obj 276 -5 s park.1;
#X obj 194 -6 s max.2;
#X obj 225 -27 s accel.2;
#X obj 319 43 s r.rst.3;
#X obj 270 65 s park.3;
#X obj 191 65 s max.3;
#X obj 236 43 s accel.3;
#X obj 313 120 s r.rst.4;
#X obj 270 138 s park.4;
#X obj 190 139 s max.4;
#X obj 230 118 s accel.4;
#X obj 315 197 s r.rst.5;
#X obj 274 216 s park.5;
#X obj 191 216 s max.5;
#X obj 232 195 s accel.5;
#X obj 316 272 s r.rst.6;
#X obj 277 292 s park.6;
#X obj 191 294 s max.6;
#X obj 235 271 s accel.6;
#X obj 317 349 s r.rst.7;
#X obj 274 370 s park.7;
#X obj 192 371 s max.7;
#X obj 234 349 s accel.7;
#X obj 316 430 s r.rst.8;
#X obj 277 453 s park.8;
#X obj 200 453 s max.8;
#X obj 235 429 s accel.8;
#X obj 680 426 s r.rst.16;
#X obj 634 446 s park.16;
#X obj 549 447 s max.16;
#X obj 594 428 s accel.16;
#X obj 672 351 s r.rst.15;
#X obj 631 370 s park.15;
#X obj 550 372 s max.15;
#X obj 592 352 s accel.15;
#X obj 669 270 s r.rst.14;
#X obj 630 290 s park.14;
#X obj 550 290 s max.14;
#X obj 586 271 s accel.14;
#X obj 668 196 s r.rst.13;
#X obj 629 213 s park.14;
#X obj 549 215 s max.13;
#X obj 587 195 s accel.13;
#X obj 671 118 s r.rst.12;
#X obj 631 139 s park.12;
#X obj 551 139 s max.12;
#X obj 590 118 s accel.12;
#X obj 672 46 s r.rst.11;
#X obj 633 66 s park.11;
#X obj 549 65 s max.11;
#X obj 592 46 s accel.11;
#X obj 673 -28 s r.rst.10;
#X obj 634 -9 s park.10;
#X obj 548 -7 s max.10;
#X obj 593 -28 s accel.10;
#X obj 672 -98 s r.rst.9;
#X obj 630 -78 s park.9;
#X obj 551 -77 s max.9;
#X obj 589 -99 s accel.9;
#X obj 428 -120 routeOSC /char /stm /null /max /accel /park /rst;
#X obj 429 -51 routeOSC /char /stm /null /max /accel /park /rst;
#X obj 428 22 routeOSC /char /stm /null /max /accel /park /rst;
#X obj 428 96 routeOSC /char /stm /null /max /accel /park /rst;
#X obj 425 172 routeOSC /char /stm /null /max /accel /park /rst;
#X obj 426 247 routeOSC /char /stm /null /max /accel /park /rst;
#X obj 430 326 routeOSC /char /stm /null /max /accel /park /rst;
#X obj 74 404 routeOSC /char /stm /null /max /accel /park /rst;
#X obj 73 326 routeOSC /char /stm /null /max /accel /park /rst;
#X obj 72 247 routeOSC /char /stm /null /max /accel /park /rst;
#X obj 71 172 routeOSC /char /stm /null /max /accel /park /rst;
#X obj 71 96 routeOSC /char /stm /null /max /accel /park /rst;
#X obj 70 19 routeOSC /char /stm /null /max /accel /parke /rst;
#X obj 69 -51 routeOSC /char /stm /null /max /accel /parke /rst;
#X obj 431 404 routeOSC /char /stm /null /max /accel /park /rst;
#X connect 0 0 1 0;
#X connect 1 0 51 0;
#X connect 1 1 129 0;
#X connect 1 2 128 0;
#X connect 1 3 127 0;
#X connect 1 4 126 0;
#X connect 1 5 125 0;
#X connect 1 6 124 0;
#X connect 1 7 123 0;
#X connect 1 8 116 0;
#X connect 1 9 117 0;
#X connect 1 10 118 0;
#X connect 1 11 119 0;
#X connect 1 12 120 0;
#X connect 1 13 121 0;
#X connect 1 14 122 0;
#X connect 1 15 130 0;
#X connect 51 0 2 0;
#X connect 51 1 4 0;
#X connect 51 2 3 0;
#X connect 51 3 54 0;
#X connect 51 4 55 0;
#X connect 51 5 53 0;
#X connect 51 6 52 0;
#X connect 116 0 27 0;
#X connect 116 1 29 0;
#X connect 116 2 28 0;
#X connect 116 3 114 0;
#X connect 116 4 115 0;
#X connect 116 5 113 0;
#X connect 116 6 112 0;
#X connect 117 0 30 0;
#X connect 117 1 32 0;
#X connect 117 2 31 0;
#X connect 117 3 110 0;
#X connect 117 4 111 0;
#X connect 117 5 109 0;
#X connect 117 6 108 0;
#X connect 118 0 33 0;
#X connect 118 1 35 0;
#X connect 118 2 34 0;
#X connect 118 3 106 0;
#X connect 118 4 107 0;
#X connect 118 5 105 0;
#X connect 118 6 104 0;
#X connect 119 0 36 0;
#X connect 119 1 38 0;
#X connect 119 2 37 0;
#X connect 119 3 102 0;
#X connect 119 4 103 0;
#X connect 119 5 101 0;
#X connect 119 6 100 0;
#X connect 120 0 39 0;
#X connect 120 1 41 0;
#X connect 120 2 40 0;
#X connect 120 3 98 0;
#X connect 120 4 99 0;
#X connect 120 5 97 0;
#X connect 120 6 96 0;
#X connect 121 0 42 0;
#X connect 121 1 44 0;
#X connect 121 2 43 0;
#X connect 121 3 94 0;
#X connect 121 4 95 0;
#X connect 121 5 93 0;
#X connect 121 6 92 0;
#X connect 122 0 45 0;
#X connect 122 1 47 0;
#X connect 122 2 46 0;
#X connect 122 3 90 0;
#X connect 122 4 91 0;
#X connect 122 5 89 0;
#X connect 122 6 88 0;
#X connect 123 0 24 0;
#X connect 123 1 25 0;
#X connect 123 2 26 0;
#X connect 123 3 82 0;
#X connect 123 4 83 0;
#X connect 123 5 81 0;
#X connect 123 6 80 0;
#X connect 124 0 21 0;
#X connect 124 1 22 0;
#X connect 124 2 23 0;
#X connect 124 3 78 0;
#X connect 124 4 79 0;
#X connect 124 5 77 0;
#X connect 124 6 76 0;
#X connect 125 0 18 0;
#X connect 125 1 20 0;
#X connect 125 2 19 0;
#X connect 125 3 74 0;
#X connect 125 4 75 0;
#X connect 125 5 73 0;
#X connect 125 6 72 0;
#X connect 126 0 15 0;
#X connect 126 1 17 0;
#X connect 126 2 16 0;
#X connect 126 3 70 0;
#X connect 126 4 71 0;
#X connect 126 5 69 0;
#X connect 126 6 68 0;
#X connect 127 0 12 0;
#X connect 127 1 14 0;
#X connect 127 2 13 0;
#X connect 127 3 66 0;
#X connect 127 4 67 0;
#X connect 127 5 65 0;
#X connect 127 6 64 0;
#X connect 128 0 9 0;
#X connect 128 1 10 0;
#X connect 128 2 11 0;
#X connect 128 3 62 0;
#X connect 128 4 63 0;
#X connect 128 5 61 0;
#X connect 128 6 60 0;
#X connect 129 0 6 0;
#X connect 129 1 7 0;
#X connect 129 2 8 0;
#X connect 129 3 58 0;
#X connect 129 4 59 0;
#X connect 129 5 57 0;
#X connect 129 6 56 0;
#X connect 130 0 48 0;
#X connect 130 1 50 0;
#X connect 130 2 49 0;
#X connect 130 3 86 0;
#X connect 130 4 87 0;
#X connect 130 5 85 0;
#X connect 130 6 84 0;
#X restore -258 -67 pd routeOSC-zu-each;
#X text -83 1 //oneshot;
#X msg 222 -136 open 1;
#X obj 80 -259 inlet;
#X msg 80 -235 ./dropbox_uploader.sh upload startx-buffer.pd STARTX/startx-buffer/startx-buffer.pd
;
#X obj 80 -202 shell;
#X obj 80 -185 print SHELL:;
#X obj -181 -229 print OSC:;
#X obj -315 -190 routeOSC /satz /FBK /SRL /MS /NETZ /STM /NULL /PARKE
/BLK /AKSEL /MAXI /RST;
#X obj -118 -115 s r.alle.park;
#X obj -33 -132 s max.alle;
#X obj -62 -156 s accel.alle;
#X connect 1 0 5 0;
#X connect 2 0 64 0;
#X connect 2 1 4 0;
#X connect 2 1 7 0;
#X connect 4 0 1 0;
#X connect 5 0 33 0;
#X connect 6 0 2 0;
#X connect 6 0 18 0;
#X connect 9 0 5 0;
#X connect 10 0 11 0;
#X connect 11 0 5 0;
#X connect 12 0 11 0;
#X connect 12 0 15 0;
#X connect 13 0 10 0;
#X connect 13 0 16 0;
#X connect 15 0 14 0;
#X connect 16 0 14 0;
#X connect 17 0 14 0;
#X connect 18 0 14 0;
#X connect 20 0 14 0;
#X connect 21 0 22 0;
#X connect 22 0 14 0;
#X connect 23 0 24 0;
#X connect 24 0 14 0;
#X connect 25 0 61 0;
#X connect 25 0 69 0;
#X connect 33 0 34 0;
#X connect 34 0 3 0;
#X connect 34 0 20 0;
#X connect 34 1 0 0;
#X connect 35 0 71 0;
#X connect 36 0 37 0;
#X connect 38 0 25 0;
#X connect 38 1 56 0;
#X connect 39 0 40 0;
#X connect 39 1 41 0;
#X connect 39 2 42 0;
#X connect 39 3 43 0;
#X connect 39 4 44 0;
#X connect 39 5 45 0;
#X connect 39 6 46 0;
#X connect 39 7 47 0;
#X connect 39 8 48 0;
#X connect 39 9 49 0;
#X connect 39 10 50 0;
#X connect 39 11 51 0;
#X connect 39 12 52 0;
#X connect 39 13 53 0;
#X connect 39 14 54 0;
#X connect 39 15 55 0;
#X connect 57 0 59 0;
#X connect 61 0 70 0;
#X connect 61 1 62 0;
#X connect 64 0 5 0;
#X connect 65 0 66 0;
#X connect 66 0 67 0;
#X connect 67 0 68 0;
#X connect 70 0 39 0;
#X connect 70 1 26 0;
#X connect 70 2 27 0;
#X connect 70 3 29 0;
#X connect 70 4 30 0;
#X connect 70 5 31 0;
#X connect 70 6 28 0;
#X connect 70 7 35 0;
#X connect 70 8 36 0;
#X connect 70 9 73 0;
#X connect 70 10 72 0;
#X connect 70 11 57 0;
#X restore -816 -1600 pd konnekt;
#X obj -840 -1615 bng 15 250 50 0 empty empty empty 17 7 0 10 -262144
-1 -1;
#X text -818 -1620 //upsync;
#X obj -462 -1397 r toCOM;
#X obj -466 -1367 print toCOM:;
#N canvas 107 399 433 133 dec2abd2stp 0;
#N canvas 127 155 1098 482 abs2stp 0;
#X obj 147 -327 -;
#X obj 200 -310 < 0;
#X obj 189 -293 abs;
#X obj 189 -242 spigot;
#X obj 147 -242 spigot;
#X msg 147 -259 1;
#X obj 147 -276 select 1 0;
#X msg 177 -259 1;
#X obj 147 -310 moses 0;
#X obj 147 -293 + 100;
#X obj 147 -225 * 32;
#X obj 189 -225 * 32;
#X msg 172 -326 1;
#X obj 279 -327 -;
#X obj 332 -310 < 0;
#X obj 321 -293 abs;
#X obj 321 -242 spigot;
#X obj 279 -242 spigot;
#X msg 279 -259 1;
#X obj 279 -276 select 1 0;
#X msg 309 -259 1;
#X obj 279 -310 moses 0;
#X obj 279 -293 + 100;
#X obj 279 -225 * 32;
#X obj 321 -225 * 32;
#X msg 304 -326 1;
#X obj 411 -327 -;
#X obj 464 -310 < 0;
#X obj 453 -293 abs;
#X obj 453 -242 spigot;
#X obj 411 -242 spigot;
#X msg 411 -259 1;
#X obj 411 -276 select 1 0;
#X msg 441 -259 1;
#X obj 411 -310 moses 0;
#X obj 411 -293 + 100;
#X obj 411 -225 * 32;
#X obj 453 -225 * 32;
#X msg 436 -326 1;
#X obj 27 -167 -;
#X obj 80 -150 < 0;
#X obj 69 -133 abs;
#X obj 69 -82 spigot;
#X obj 27 -82 spigot;
#X msg 27 -99 1;
#X obj 27 -116 select 1 0;
#X msg 57 -99 1;
#X obj 27 -150 moses 0;
#X obj 27 -133 + 100;
#X obj 27 -65 * 32;
#X obj 69 -65 * 32;
#X msg 52 -166 1;
#X obj 147 -167 -;
#X obj 200 -150 < 0;
#X obj 189 -133 abs;
#X obj 189 -82 spigot;
#X obj 147 -82 spigot;
#X msg 147 -99 1;
#X obj 147 -116 select 1 0;
#X msg 177 -99 1;
#X obj 147 -150 moses 0;
#X obj 147 -133 + 100;
#X obj 147 -65 * 32;
#X obj 189 -65 * 32;
#X msg 172 -166 1;
#X obj 279 -167 -;
#X obj 332 -150 < 0;
#X obj 321 -133 abs;
#X obj 321 -82 spigot;
#X obj 279 -82 spigot;
#X msg 279 -99 1;
#X obj 279 -116 select 1 0;
#X msg 309 -99 1;
#X obj 279 -150 moses 0;
#X obj 279 -133 + 100;
#X obj 279 -65 * 32;
#X obj 321 -65 * 32;
#X msg 304 -166 1;
#X obj 411 -167 -;
#X obj 464 -150 < 0;
#X obj 453 -133 abs;
#X obj 453 -82 spigot;
#X obj 411 -82 spigot;
#X msg 411 -99 1;
#X obj 411 -116 select 1 0;
#X msg 441 -99 1;
#X obj 411 -150 moses 0;
#X obj 411 -133 + 100;
#X obj 411 -65 * 32;
#X obj 453 -65 * 32;
#X msg 436 -166 1;
#X obj 544 -327 -;
#X obj 597 -310 < 0;
#X obj 586 -293 abs;
#X obj 586 -242 spigot;
#X obj 544 -242 spigot;
#X msg 544 -259 1;
#X obj 544 -276 select 1 0;
#X msg 574 -259 1;
#X obj 544 -310 moses 0;
#X obj 544 -293 + 100;
#X obj 544 -225 * 32;
#X obj 586 -225 * 32;
#X msg 569 -326 1;
#X obj 677 -327 -;
#X obj 730 -310 < 0;
#X obj 719 -293 abs;
#X obj 719 -242 spigot;
#X obj 677 -242 spigot;
#X msg 677 -259 1;
#X obj 677 -276 select 1 0;
#X msg 707 -259 1;
#X obj 677 -310 moses 0;
#X obj 677 -293 + 100;
#X obj 677 -225 * 32;
#X obj 719 -225 * 32;
#X msg 702 -326 1;
#X obj 809 -327 -;
#X obj 862 -310 < 0;
#X obj 851 -293 abs;
#X obj 851 -242 spigot;
#X obj 809 -242 spigot;
#X msg 809 -259 1;
#X obj 809 -276 select 1 0;
#X msg 839 -259 1;
#X obj 809 -310 moses 0;
#X obj 809 -293 + 100;
#X obj 809 -225 * 32;
#X obj 851 -225 * 32;
#X msg 834 -326 1;
#X obj 941 -327 -;
#X obj 994 -310 < 0;
#X obj 983 -293 abs;
#X obj 983 -242 spigot;
#X obj 941 -242 spigot;
#X msg 941 -259 1;
#X obj 941 -276 select 1 0;
#X msg 971 -259 1;
#X obj 941 -310 moses 0;
#X obj 941 -293 + 100;
#X obj 941 -225 * 32;
#X obj 983 -225 * 32;
#X msg 966 -326 1;
#X obj 544 -167 -;
#X obj 597 -150 < 0;
#X obj 586 -133 abs;
#X obj 586 -82 spigot;
#X obj 544 -82 spigot;
#X msg 544 -99 1;
#X obj 544 -116 select 1 0;
#X msg 574 -99 1;
#X obj 544 -150 moses 0;
#X obj 544 -133 + 100;
#X obj 544 -65 * 32;
#X obj 586 -65 * 32;
#X msg 569 -166 1;
#X obj 677 -167 -;
#X obj 730 -150 < 0;
#X obj 719 -133 abs;
#X obj 719 -82 spigot;
#X obj 677 -82 spigot;
#X msg 677 -99 1;
#X obj 677 -116 select 1 0;
#X msg 707 -99 1;
#X obj 677 -150 moses 0;
#X obj 677 -133 + 100;
#X obj 677 -65 * 32;
#X obj 719 -65 * 32;
#X msg 702 -166 1;
#X obj 809 -167 -;
#X obj 862 -150 < 0;
#X obj 851 -133 abs;
#X obj 851 -82 spigot;
#X obj 809 -82 spigot;
#X msg 809 -99 1;
#X obj 809 -116 select 1 0;
#X msg 839 -99 1;
#X obj 809 -150 moses 0;
#X obj 809 -133 + 100;
#X obj 809 -65 * 32;
#X obj 851 -65 * 32;
#X msg 834 -166 1;
#X obj 941 -167 -;
#X obj 994 -150 < 0;
#X obj 983 -133 abs;
#X obj 983 -82 spigot;
#X obj 941 -82 spigot;
#X msg 941 -99 1;
#X obj 941 -116 select 1 0;
#X msg 971 -99 1;
#X obj 941 -150 moses 0;
#X obj 941 -133 + 100;
#X obj 941 -65 * 32;
#X obj 983 -65 * 32;
#X msg 966 -166 1;
#X obj 204 -327 r null.2;
#X obj 336 -327 r null.3;
#X obj 468 -327 r null.4;
#X obj 601 -327 r null.5;
#X obj 734 -327 r null.6;
#X obj 866 -327 r null.7;
#X obj 998 -327 r null.8;
#X obj 82 -167 r null.9;
#X obj 209 -167 r null.10;
#X obj 341 -167 r null.11;
#X obj 473 -167 r null.12;
#X obj 606 -167 r null.13;
#X obj 739 -167 r null.14;
#X obj 871 -167 r null.15;
#X obj 1003 -167 r null.16;
#X obj 147 -208 s 2B;
#X obj 279 -208 s 3C;
#X obj 411 -208 s 4D;
#X obj 544 -208 s 5E;
#X obj 677 -208 s 6F;
#X obj 809 -208 s 7G;
#X obj 941 -208 s 8H;
#X obj 27 -48 s 9I;
#X obj 147 -48 s 10J;
#X obj 279 -48 s 11K;
#X obj 411 -48 s 12L;
#X obj 544 -48 s 13M;
#X obj 677 -48 s 14N;
#X obj 809 -48 s 15O;
#X obj 941 -48 s 16P;
#X obj 26 -328 -;
#X obj 79 -311 < 0;
#X obj 68 -294 abs;
#X obj 68 -243 spigot;
#X obj 26 -243 spigot;
#X msg 26 -260 1;
#X obj 26 -277 select 1 0;
#X msg 56 -260 1;
#X obj 26 -311 moses 0;
#X obj 26 -294 + 100;
#X obj 26 -226 * 32;
#X obj 68 -226 * 32;
#X msg 51 -327 1;
#X obj 83 -328 r null.1;
#X obj 26 -209 s 1A;
#X obj 26 -345 r abs.1;
#X obj 147 -344 r abs.2;
#X obj 279 -344 r abs.3;
#X obj 411 -344 r abs.4;
#X obj 544 -344 r abs.5;
#X obj 677 -344 r abs.6;
#X obj 809 -344 r abs.7;
#X obj 941 -344 r abs.8;
#X obj 27 -184 r abs.9;
#X obj 147 -184 r abs.10;
#X obj 279 -184 r abs.11;
#X obj 411 -184 r abs.12;
#X obj 544 -184 r abs.13;
#X obj 677 -184 r abs.14;
#X obj 809 -184 r abs.15;
#X obj 941 -184 r abs.16;
#X connect 0 0 1 0;
#X connect 0 0 8 0;
#X connect 1 0 6 0;
#X connect 2 0 3 0;
#X connect 3 0 11 0;
#X connect 4 0 10 0;
#X connect 5 0 3 1;
#X connect 6 0 5 0;
#X connect 6 1 7 0;
#X connect 7 0 4 1;
#X connect 8 0 9 0;
#X connect 8 1 2 0;
#X connect 9 0 4 0;
#X connect 10 0 210 0;
#X connect 11 0 210 0;
#X connect 12 0 0 1;
#X connect 12 0 0 0;
#X connect 12 0 6 0;
#X connect 13 0 14 0;
#X connect 13 0 21 0;
#X connect 14 0 19 0;
#X connect 15 0 16 0;
#X connect 16 0 24 0;
#X connect 17 0 23 0;
#X connect 18 0 16 1;
#X connect 19 0 18 0;
#X connect 19 1 20 0;
#X connect 20 0 17 1;
#X connect 21 0 22 0;
#X connect 21 1 15 0;
#X connect 22 0 17 0;
#X connect 23 0 211 0;
#X connect 24 0 211 0;
#X connect 25 0 13 1;
#X connect 25 0 13 0;
#X connect 25 0 19 0;
#X connect 26 0 27 0;
#X connect 26 0 34 0;
#X connect 27 0 32 0;
#X connect 28 0 29 0;
#X connect 29 0 37 0;
#X connect 30 0 36 0;
#X connect 31 0 29 1;
#X connect 32 0 31 0;
#X connect 32 1 33 0;
#X connect 33 0 30 1;
#X connect 34 0 35 0;
#X connect 34 1 28 0;
#X connect 35 0 30 0;
#X connect 36 0 212 0;
#X connect 37 0 212 0;
#X connect 38 0 26 1;
#X connect 38 0 26 0;
#X connect 38 0 32 0;
#X connect 39 0 40 0;
#X connect 39 0 47 0;
#X connect 40 0 45 0;
#X connect 41 0 42 0;
#X connect 42 0 50 0;
#X connect 43 0 49 0;
#X connect 44 0 42 1;
#X connect 45 0 44 0;
#X connect 45 1 46 0;
#X connect 46 0 43 1;
#X connect 47 0 48 0;
#X connect 47 1 41 0;
#X connect 48 0 43 0;
#X connect 49 0 217 0;
#X connect 50 0 217 0;
#X connect 51 0 39 1;
#X connect 51 0 39 0;
#X connect 51 0 45 0;
#X connect 52 0 53 0;
#X connect 52 0 60 0;
#X connect 53 0 58 0;
#X connect 54 0 55 0;
#X connect 55 0 63 0;
#X connect 56 0 62 0;
#X connect 57 0 55 1;
#X connect 58 0 57 0;
#X connect 58 1 59 0;
#X connect 59 0 56 1;
#X connect 60 0 61 0;
#X connect 60 1 54 0;
#X connect 61 0 56 0;
#X connect 62 0 218 0;
#X connect 63 0 218 0;
#X connect 64 0 52 1;
#X connect 64 0 52 0;
#X connect 64 0 58 0;
#X connect 65 0 66 0;
#X connect 65 0 73 0;
#X connect 66 0 71 0;
#X connect 67 0 68 0;
#X connect 68 0 76 0;
#X connect 69 0 75 0;
#X connect 70 0 68 1;
#X connect 71 0 70 0;
#X connect 71 1 72 0;
#X connect 72 0 69 1;
#X connect 73 0 74 0;
#X connect 73 1 67 0;
#X connect 74 0 69 0;
#X connect 75 0 219 0;
#X connect 76 0 219 0;
#X connect 77 0 65 1;
#X connect 77 0 65 0;
#X connect 77 0 71 0;
#X connect 78 0 79 0;
#X connect 78 0 86 0;
#X connect 79 0 84 0;
#X connect 80 0 81 0;
#X connect 81 0 89 0;
#X connect 82 0 88 0;
#X connect 83 0 81 1;
#X connect 84 0 83 0;
#X connect 84 1 85 0;
#X connect 85 0 82 1;
#X connect 86 0 87 0;
#X connect 86 1 80 0;
#X connect 87 0 82 0;
#X connect 88 0 220 0;
#X connect 89 0 220 0;
#X connect 90 0 78 1;
#X connect 90 0 78 0;
#X connect 90 0 84 0;
#X connect 91 0 92 0;
#X connect 91 0 99 0;
#X connect 92 0 97 0;
#X connect 93 0 94 0;
#X connect 94 0 102 0;
#X connect 95 0 101 0;
#X connect 96 0 94 1;
#X connect 97 0 96 0;
#X connect 97 1 98 0;
#X connect 98 0 95 1;
#X connect 99 0 100 0;
#X connect 99 1 93 0;
#X connect 100 0 95 0;
#X connect 101 0 213 0;
#X connect 102 0 213 0;
#X connect 103 0 91 1;
#X connect 103 0 91 0;
#X connect 103 0 97 0;
#X connect 104 0 105 0;
#X connect 104 0 112 0;
#X connect 105 0 110 0;
#X connect 106 0 107 0;
#X connect 107 0 115 0;
#X connect 108 0 114 0;
#X connect 109 0 107 1;
#X connect 110 0 109 0;
#X connect 110 1 111 0;
#X connect 111 0 108 1;
#X connect 112 0 113 0;
#X connect 112 1 106 0;
#X connect 113 0 108 0;
#X connect 114 0 214 0;
#X connect 115 0 214 0;
#X connect 116 0 104 1;
#X connect 116 0 104 0;
#X connect 116 0 110 0;
#X connect 117 0 118 0;
#X connect 117 0 125 0;
#X connect 118 0 123 0;
#X connect 119 0 120 0;
#X connect 120 0 128 0;
#X connect 121 0 127 0;
#X connect 122 0 120 1;
#X connect 123 0 122 0;
#X connect 123 1 124 0;
#X connect 124 0 121 1;
#X connect 125 0 126 0;
#X connect 125 1 119 0;
#X connect 126 0 121 0;
#X connect 127 0 215 0;
#X connect 128 0 215 0;
#X connect 129 0 117 1;
#X connect 129 0 117 0;
#X connect 129 0 123 0;
#X connect 130 0 131 0;
#X connect 130 0 138 0;
#X connect 131 0 136 0;
#X connect 132 0 133 0;
#X connect 133 0 141 0;
#X connect 134 0 140 0;
#X connect 135 0 133 1;
#X connect 136 0 135 0;
#X connect 136 1 137 0;
#X connect 137 0 134 1;
#X connect 138 0 139 0;
#X connect 138 1 132 0;
#X connect 139 0 134 0;
#X connect 140 0 216 0;
#X connect 141 0 216 0;
#X connect 142 0 130 1;
#X connect 142 0 130 0;
#X connect 142 0 136 0;
#X connect 143 0 144 0;
#X connect 143 0 151 0;
#X connect 144 0 149 0;
#X connect 145 0 146 0;
#X connect 146 0 154 0;
#X connect 147 0 153 0;
#X connect 148 0 146 1;
#X connect 149 0 148 0;
#X connect 149 1 150 0;
#X connect 150 0 147 1;
#X connect 151 0 152 0;
#X connect 151 1 145 0;
#X connect 152 0 147 0;
#X connect 153 0 221 0;
#X connect 154 0 221 0;
#X connect 155 0 143 1;
#X connect 155 0 143 0;
#X connect 155 0 149 0;
#X connect 156 0 157 0;
#X connect 156 0 164 0;
#X connect 157 0 162 0;
#X connect 158 0 159 0;
#X connect 159 0 167 0;
#X connect 160 0 166 0;
#X connect 161 0 159 1;
#X connect 162 0 161 0;
#X connect 162 1 163 0;
#X connect 163 0 160 1;
#X connect 164 0 165 0;
#X connect 164 1 158 0;
#X connect 165 0 160 0;
#X connect 166 0 222 0;
#X connect 167 0 222 0;
#X connect 168 0 156 1;
#X connect 168 0 156 0;
#X connect 168 0 162 0;
#X connect 169 0 170 0;
#X connect 169 0 177 0;
#X connect 170 0 175 0;
#X connect 171 0 172 0;
#X connect 172 0 180 0;
#X connect 173 0 179 0;
#X connect 174 0 172 1;
#X connect 175 0 174 0;
#X connect 175 1 176 0;
#X connect 176 0 173 1;
#X connect 177 0 178 0;
#X connect 177 1 171 0;
#X connect 178 0 173 0;
#X connect 179 0 223 0;
#X connect 180 0 223 0;
#X connect 181 0 169 1;
#X connect 181 0 169 0;
#X connect 181 0 175 0;
#X connect 182 0 183 0;
#X connect 182 0 190 0;
#X connect 183 0 188 0;
#X connect 184 0 185 0;
#X connect 185 0 193 0;
#X connect 186 0 192 0;
#X connect 187 0 185 1;
#X connect 188 0 187 0;
#X connect 188 1 189 0;
#X connect 189 0 186 1;
#X connect 190 0 191 0;
#X connect 190 1 184 0;
#X connect 191 0 186 0;
#X connect 192 0 224 0;
#X connect 193 0 224 0;
#X connect 194 0 182 1;
#X connect 194 0 182 0;
#X connect 194 0 188 0;
#X connect 195 0 12 0;
#X connect 196 0 25 0;
#X connect 197 0 38 0;
#X connect 198 0 103 0;
#X connect 199 0 116 0;
#X connect 200 0 129 0;
#X connect 201 0 142 0;
#X connect 202 0 51 0;
#X connect 203 0 64 0;
#X connect 204 0 77 0;
#X connect 205 0 90 0;
#X connect 206 0 155 0;
#X connect 207 0 168 0;
#X connect 208 0 181 0;
#X connect 209 0 194 0;
#X connect 225 0 226 0;
#X connect 225 0 233 0;
#X connect 226 0 231 0;
#X connect 227 0 228 0;
#X connect 228 0 236 0;
#X connect 229 0 235 0;
#X connect 230 0 228 1;
#X connect 231 0 230 0;
#X connect 231 1 232 0;
#X connect 232 0 229 1;
#X connect 233 0 234 0;
#X connect 233 1 227 0;
#X connect 234 0 229 0;
#X connect 235 0 239 0;
#X connect 236 0 239 0;
#X connect 237 0 225 1;
#X connect 237 0 225 0;
#X connect 237 0 231 0;
#X connect 238 0 237 0;
#X connect 240 0 225 0;
#X connect 240 0 225 1;
#X connect 241 0 0 0;
#X connect 241 0 0 1;
#X connect 242 0 13 0;
#X connect 242 0 13 1;
#X connect 243 0 26 0;
#X connect 243 0 26 1;
#X connect 244 0 91 0;
#X connect 244 0 91 1;
#X connect 245 0 104 0;
#X connect 245 0 104 1;
#X connect 246 0 117 0;
#X connect 246 0 117 1;
#X connect 247 0 130 0;
#X connect 247 0 130 1;
#X connect 248 0 39 0;
#X connect 248 0 39 1;
#X connect 249 0 52 0;
#X connect 249 0 52 1;
#X connect 250 0 65 0;
#X connect 250 0 65 1;
#X connect 251 0 78 0;
#X connect 251 0 78 1;
#X connect 252 0 143 0;
#X connect 252 0 143 1;
#X connect 253 0 156 0;
#X connect 253 0 156 1;
#X connect 254 0 169 0;
#X connect 254 0 169 1;
#X connect 255 0 182 0;
#X connect 255 0 182 1;
#X restore -504 -1318 pd abs2stp;
#X floatatom -840 -1281 3 0 0 2 1A dec.1 -;
#X floatatom -818 -1281 3 0 0 2 2B dec.2 -;
#X floatatom -794 -1281 3 0 0 2 3C dec.3 -;
#X floatatom -768 -1281 3 0 0 2 4D dec.4 -;
#X floatatom -741 -1281 3 0 0 2 5E dec.5 -;
#X floatatom -714 -1281 3 0 0 2 6F dec.6 -;
#X floatatom -691 -1281 3 0 0 2 7G dec.7 -;
#X floatatom -667 -1281 3 0 0 2 8H dec.8 -;
#X floatatom -840 -1259 3 0 0 3 9I dec.9 -;
#X floatatom -818 -1259 3 0 0 3 10J dec.10 -;
#X floatatom -794 -1259 3 0 0 3 11K dec.11 -;
#X floatatom -768 -1259 3 0 0 3 12L dec.12 -;
#X floatatom -741 -1259 3 0 0 3 13M dec.13 -;
#X floatatom -714 -1259 3 0 0 3 14N dec.14 -;
#X floatatom -691 -1259 3 0 0 3 15O dec.15 -;
#X floatatom -667 -1259 3 0 0 3 16P dec.16 -;
#N canvas 239 142 319 334 dec2abs 0;
#X obj -627 -5 - 31;
#X obj -558 8 - 31;
#X obj -488 8 - 31;
#X obj -409 8 - 31;
#X obj -624 69 - 31;
#X obj -554 70 - 31;
#X obj -486 71 - 31;
#X obj -407 71 - 31;
#X obj -623 131 - 31;
#X obj -554 132 - 31;
#X obj -484 132 - 31;
#X obj -405 132 - 31;
#X obj -623 194 - 31;
#X obj -554 196 - 31;
#X obj -483 196 - 31;
#X obj -404 196 - 31;
#X text -620 -72 // aus ascii dec;
#X obj -627 -32 r dec.1;
#X obj -558 -9 r dec.2;
#X obj -487 -9 r dec.3;
#X obj -409 -9 r dec.4;
#X obj -624 52 r dec.5;
#X obj -554 53 r dec.6;
#X obj -486 54 r dec.7;
#X obj -407 54 r dec.8;
#X obj -623 114 r dec.9;
#X obj -554 115 r dec.10;
#X obj -484 115 r dec.11;
#X obj -405 115 r dec.12;
#X obj -623 177 r dec.13;
#X obj -554 179 r dec.14;
#X obj -483 179 r dec.15;
#X obj -404 179 r dec.16;
#X obj -623 148 s abs.9;
#X obj -554 149 s abs.10;
#X obj -484 149 s abs.11;
#X obj -405 149 s abs.12;
#X obj -623 211 s abs.13;
#X obj -554 213 s abs.14;
#X obj -483 213 s abs.15;
#X obj -404 213 s abs.16;
#X obj -627 25 s abs.1;
#X obj -558 25 s abs.2;
#X obj -488 25 s abs.3;
#X obj -409 25 s abs.4;
#X obj -624 86 s abs.5;
#X obj -554 87 s abs.6;
#X obj -486 88 s abs.7;
#X obj -407 88 s abs.8;
#X connect 0 0 41 0;
#X connect 1 0 42 0;
#X connect 2 0 43 0;
#X connect 3 0 44 0;
#X connect 4 0 45 0;
#X connect 5 0 46 0;
#X connect 6 0 47 0;
#X connect 7 0 48 0;
#X connect 8 0 33 0;
#X connect 9 0 34 0;
#X connect 10 0 35 0;
#X connect 11 0 36 0;
#X connect 12 0 37 0;
#X connect 13 0 38 0;
#X connect 14 0 39 0;
#X connect 15 0 40 0;
#X connect 17 0 0 0;
#X connect 18 0 1 0;
#X connect 19 0 2 0;
#X connect 20 0 3 0;
#X connect 21 0 4 0;
#X connect 22 0 5 0;
#X connect 23 0 6 0;
#X connect 24 0 7 0;
#X connect 25 0 8 0;
#X connect 26 0 9 0;
#X connect 27 0 10 0;
#X connect 28 0 11 0;
#X connect 29 0 12 0;
#X connect 30 0 13 0;
#X connect 31 0 14 0;
#X connect 32 0 15 0;
#X restore -708 -1319 pd dec2abs;
#X floatatom -630 -1283 3 0 0 2 1A abs.1 -;
#X floatatom -607 -1283 3 0 0 2 2B abs.2 -;
#X floatatom -585 -1283 3 0 0 2 3C abs.3 -;
#X floatatom -563 -1283 3 0 0 2 4D abs.4 -;
#X floatatom -541 -1283 3 0 0 2 5E abs.5 -;
#X floatatom -519 -1283 3 0 0 2 6F abs.6 -;
#X floatatom -497 -1283 3 0 0 2 7G abs.7 -;
#X floatatom -475 -1283 3 0 0 2 8H abs.8 -;
#X floatatom -630 -1261 3 0 0 3 9I abs.9 -;
#X floatatom -607 -1261 3 0 0 3 10J abs.10 -;
#X floatatom -585 -1261 3 0 0 3 11K abs.11 -;
#X floatatom -563 -1261 3 0 0 3 12L abs.12 -;
#X floatatom -519 -1261 3 0 0 3 14N abs.14 -;
#X floatatom -497 -1261 3 0 0 3 15O abs.15 -;
#X floatatom -475 -1261 3 0 0 3 16P abs.16 -;
#X floatatom -541 -1261 3 0 0 3 13M abs.13 -;
#X text -842 -1327 //dec \; ascii decimal;
#X text -633 -1330 //ABS \; absolute pos;
#X restore -852 -1707 pd dec2abd2stp;
#X obj -507 -1239 r spd.norm;
#X obj -688 -1239 r spd.accel;
#X obj -610 -1239 r spd.max;
#N canvas 76 234 327 342 each.park 0;
#X obj -773 -1234 s dec.1;
#X obj -773 -1278 r park.1;
#X obj -801 -1274 b;
#X obj -713 -1278 r park.2;
#X obj -713 -1234 s dec.2;
#X obj -653 -1278 r park.3;
#X obj -653 -1234 s dec.3;
#X obj -593 -1278 r park.4;
#X obj -593 -1234 s dec.4;
#X msg -773 -1257 128;
#X msg -713 -1257 128;
#X msg -653 -1257 128;
#X msg -593 -1257 128;
#X obj -801 -1204 b;
#X msg -773 -1187 128;
#X msg -713 -1187 128;
#X msg -653 -1187 128;
#X msg -593 -1187 128;
#X obj -801 -1134 b;
#X msg -773 -1117 128;
#X msg -713 -1117 128;
#X msg -653 -1117 128;
#X msg -593 -1117 128;
#X obj -801 -1064 b;
#X msg -773 -1047 128;
#X msg -713 -1047 128;
#X msg -653 -1047 128;
#X msg -593 -1047 128;
#X obj -773 -1207 r park.5;
#X obj -773 -1164 s dec.5;
#X obj -713 -1208 r park.6;
#X obj -713 -1164 s dec.6;
#X obj -653 -1208 r park.7;
#X obj -653 -1164 s dec.7;
#X obj -593 -1208 r park.8;
#X obj -593 -1164 s dec.8;
#X obj -773 -1138 r park.9;
#X obj -773 -1094 s dec.9;
#X obj -713 -1138 r park.10;
#X obj -653 -1138 r park.11;
#X obj -653 -1094 s dec.11;
#X obj -593 -1138 r park.12;
#X obj -593 -1094 s dec.12;
#X obj -773 -1068 r park.13;
#X obj -773 -1024 s dec.13;
#X obj -713 -1068 r park.14;
#X obj -713 -1024 s dec.14;
#X obj -653 -1068 r park.15;
#X obj -653 -1024 s dec.15;
#X obj -593 -1068 r park.16;
#X obj -593 -1024 s dec.16;
#X obj -713 -1094 s dec.10;
#X obj -801 -1306 r s.alle.park;
#X connect 1 0 9 0;
#X connect 2 0 9 0;
#X connect 2 0 10 0;
#X connect 2 0 11 0;
#X connect 2 0 12 0;
#X connect 3 0 10 0;
#X connect 5 0 11 0;
#X connect 7 0 12 0;
#X connect 9 0 0 0;
#X connect 10 0 4 0;
#X connect 11 0 6 0;
#X connect 12 0 8 0;
#X connect 13 0 14 0;
#X connect 13 0 15 0;
#X connect 13 0 16 0;
#X connect 13 0 17 0;
#X connect 14 0 29 0;
#X connect 15 0 31 0;
#X connect 16 0 33 0;
#X connect 17 0 35 0;
#X connect 18 0 19 0;
#X connect 18 0 20 0;
#X connect 18 0 21 0;
#X connect 18 0 22 0;
#X connect 19 0 37 0;
#X connect 20 0 51 0;
#X connect 21 0 40 0;
#X connect 22 0 42 0;
#X connect 23 0 24 0;
#X connect 23 0 25 0;
#X connect 23 0 26 0;
#X connect 23 0 27 0;
#X connect 24 0 44 0;
#X connect 25 0 46 0;
#X connect 26 0 48 0;
#X connect 27 0 50 0;
#X connect 28 0 14 0;
#X connect 30 0 15 0;
#X connect 32 0 16 0;
#X connect 34 0 17 0;
#X connect 36 0 19 0;
#X connect 38 0 20 0;
#X connect 39 0 21 0;
#X connect 41 0 22 0;
#X connect 43 0 24 0;
#X connect 45 0 25 0;
#X connect 47 0 26 0;
#X connect 49 0 27 0;
#X connect 52 0 2 0;
#X connect 52 0 13 0;
#X connect 52 0 18 0;
#X connect 52 0 23 0;
#X restore -607 -1288 pd each.park;
#X obj -516 -1485 vsl 8 50 0 5000 0 0 empty v.max.1 empty 0 -9 0 10
-262144 -1 -1 1 1;
#X floatatom -807 -1425 5 0 0 0 - v.accel.1 -;
#X floatatom -772 -1425 5 0 0 0 - v.accel.2 -;
#X floatatom -737 -1425 5 0 0 0 - v.accel.3 -;
#X floatatom -702 -1425 5 0 0 0 - v.accel.4 -;
#X floatatom -667 -1425 5 0 0 0 - v.accel.5 -;
#X floatatom -632 -1425 5 0 0 0 - v.accel.6 -;
#X floatatom -597 -1425 5 0 0 0 - v.accel.7 -;
#X floatatom -562 -1425 5 0 0 0 - v.accel.8 -;
#X floatatom -807 -1405 5 0 0 0 - v.accel.9 -;
#X floatatom -772 -1405 5 0 0 0 - v.accel.10 -;
#X floatatom -737 -1405 5 0 0 0 - v.accel.11 -;
#X floatatom -702 -1405 5 0 0 0 - v.accel.12 -;
#X floatatom -667 -1405 5 0 0 0 - v.accel.13 -;
#X floatatom -632 -1405 5 0 0 0 - v.accel.14 -;
#X floatatom -597 -1405 5 0 0 0 - v.accel.15 -;
#X floatatom -562 -1405 5 0 0 0 - v.accel.16 -;
#X connect 4 0 5 0;
#X connect 5 0 2 0;
#X connect 5 0 3 0;
#X connect 42 0 14 0;
#X connect 42 1 13 0;
#X connect 42 2 12 0;
#X connect 42 3 11 0;
#X connect 42 4 10 0;
#X connect 42 5 9 0;
#X connect 42 6 8 0;
#X connect 42 7 7 0;
#X connect 42 8 22 0;
#X connect 42 9 21 0;
#X connect 42 10 20 0;
#X connect 42 11 19 0;
#X connect 42 12 18 0;
#X connect 42 13 17 0;
#X connect 42 14 16 0;
#X connect 42 15 15 0;
#X connect 52 0 47 0;
#X connect 52 1 48 0;
#X connect 52 2 49 0;
#X connect 52 3 50 0;
#X connect 52 4 51 0;
#X connect 58 0 53 0;
#X connect 58 1 54 0;
#X connect 58 2 52 0;
#X connect 93 0 41 0;
#X connect 96 0 23 0;
#X connect 96 1 24 0;
#X connect 96 2 25 0;
#X connect 96 3 26 0;
#X connect 96 4 27 0;
#X connect 96 5 28 0;
#X connect 96 6 29 0;
#X connect 96 7 30 0;
#X connect 96 8 31 0;
#X connect 96 9 32 0;
#X connect 96 10 33 0;
#X connect 96 11 34 0;
#X connect 96 12 35 0;
#X connect 96 13 36 0;
#X connect 96 14 37 0;
#X connect 96 15 38 0;
#X connect 99 0 58 0;
#X connect 100 0 99 0;
#X connect 102 0 103 0;
